<?xml version="1.0" standalone="no"?>
<!DOCTYPE svg PUBLIC "-//W3C//DTD SVG 1.1//EN" "http://www.w3.org/Graphics/SVG/1.1/DTD/svg11.dtd" >
<svg xmlns="http://www.w3.org/2000/svg" xmlns:xlink="http://www.w3.org/1999/xlink" version="1.1">
<metadata>
Created by FontForge 20170104 at Wed Mar  8 15:46:11 2006
 By myTaste
Part of the digitally encoded machine readable outline data for producing the Typefaces provided is copyrighted (c) 2003 - 2006 Linotype GmbH, www.linotype.com. All rights reserved. This software is the property of Linotype GmbH, and may not be reproduced, modified, disclosed or transferred without the express written approval of Linotype GmbH. Copyright (c) 1988, 1990, 1993 Adobe Systems Incorporated. All Rights Reserved. Helvetica is a trademark of Heidelberger Druckmaschinen AG, exclusively licensed through Linotype GmbH, and may be registered in certain jurisdictions. This typeface is original artwork of Linotype Design Studio. The design may be protected in certain jurisdictions.
</metadata>
<defs>
<font id="HelveticaNeueLTCom-It" horiz-adv-x="556" >
  <font-face 
    font-family="HelveticaNeueLT Com 55 Roman"
    font-weight="400"
    font-style="italic"
    font-stretch="normal"
    units-per-em="1000"
    panose-1="2 11 6 4 2 2 2 9 2 4"
    ascent="714"
    descent="-286"
    x-height="517"
    cap-height="714"
    bbox="-166 -214 1106 973"
    underline-thickness="50"
    underline-position="-100"
    unicode-range="U+0020-FB02"
  />
<missing-glyph horiz-adv-x="512" 
d="M222 117v67h56v-67h-56zM225 234l-2 17q0 55 13 81t46 59q32 31 41 47.5t9 35.5q0 36 -22.5 60.5t-53.5 24.5t-53.5 -22t-28.5 -73l-50 8q7 71 44 104t91 33q53 0 88.5 -36t35.5 -95q0 -32 -12.5 -58.5t-50.5 -61.5q-37 -33 -43 -52t-6 -72h-46zM462 50v617h-412v-617
h412zM512 718v-718h-512v718h512z" />
    <glyph glyph-name="fi" unicode="fi" horiz-adv-x="519" 
d="M119 442h-88l15 75h88q10 39 18.5 76t24.5 65.5t44.5 46t79.5 17.5q18 0 36 -1.5t35 -6.5l-14 -72q-22 5 -40 5q-32 0 -48.5 -11.5t-25.5 -30t-14 -41.5t-12 -47h99l-14 -75h-100l-95 -442h-85zM505 610h-86l22 104h86zM400 517h85l-108 -517h-85z" />
    <glyph glyph-name="fl" unicode="fl" horiz-adv-x="519" 
d="M442 714h85l-150 -714h-85zM119 442h-88l15 75h88q10 39 18.5 76t24.5 65.5t44.5 46t79.5 17.5q18 0 36 -1.5t35 -6.5l-14 -72q-22 5 -40 5q-32 0 -48.5 -11.5t-25.5 -30t-14 -41.5t-12 -47h99l-14 -75h-100l-95 -442h-85z" />
    <glyph glyph-name="IJ" unicode="IJ" horiz-adv-x="766" 
d="M157 714h95l-150 -714h-95zM659 176q-10 -46 -26 -82t-42 -60.5t-63.5 -37.5t-91.5 -13q-43 0 -79.5 10t-62.5 29t-41 47.5t-15 65.5q0 18 2 44t7 55h96q-4 -18 -6.5 -36.5t-3.5 -37.5q0 -51 28 -74t77 -23q36 0 59.5 14.5t38.5 37.5t23.5 52t14.5 58l104 489h94z" />
    <glyph glyph-name="ij" unicode="ij" horiz-adv-x="445" 
d="M208 610h-86l22 104h86zM103 517h85l-108 -517h-85zM431 610h-86l22 104h86zM118 -117q8 -2 16.5 -4t16.5 -2q14 0 23 5t16 16t12 30t11 46l113 543h85l-130 -614q-11 -48 -41 -74.5t-81 -26.5q-14 0 -28 1t-28 5z" />
    <glyph glyph-name="napostrophe" unicode="&#x2019;n" horiz-adv-x="581" 
d="M129 517h82l-16 -78h2q32 44 81 67t103 23q73 0 108.5 -32t35.5 -101q0 -17 -4 -44t-11 -57l-63 -295h-85l66 302q1 7 3.5 18t4 22.5t3 22t1.5 17.5q0 37 -26 54.5t-64 17.5q-35 0 -69.5 -17t-58.5 -43q-23 -20 -36 -48.5t-21 -59.5l-60 -286h-85zM115 802h111
q-14 -77 -18 -91.5t-13 -29t-30.5 -26.5t-70.5 -13l8 35q14 3 22 7t14 10.5t10 19.5h-52z" />
    <glyph glyph-name=".notdef" horiz-adv-x="512" 
d="M222 117v67h56v-67h-56zM225 234l-2 17q0 55 13 81t46 59q32 31 41 47.5t9 35.5q0 36 -22.5 60.5t-53.5 24.5t-53.5 -22t-28.5 -73l-50 8q7 71 44 104t91 33q53 0 88.5 -36t35.5 -95q0 -32 -12.5 -58.5t-50.5 -61.5q-37 -33 -43 -52t-6 -72h-46zM462 50v617h-412v-617
h412zM512 718v-718h-512v718h512z" />
    <glyph glyph-name=".null" horiz-adv-x="500" 
 />
    <glyph glyph-name="nonmarkingreturn" horiz-adv-x="0" 
 />
    <glyph glyph-name="space" unicode=" " horiz-adv-x="278" 
 />
    <glyph glyph-name="percent" unicode="%" horiz-adv-x="926" 
d="M79 454q0 40 11 85t33.5 83t57.5 62.5t83 24.5q72 0 109 -36.5t37 -108.5q0 -43 -10.5 -88t-33 -82t-58 -61t-85.5 -24q-67 0 -105.5 38.5t-38.5 106.5zM581 137q0 -46 17.5 -70t61.5 -24q33 0 55 20t35.5 51t19.5 66.5t6 67.5q0 85 -73 85q-33 0 -56 -21t-37.5 -51.5
t-21.5 -64.5t-7 -59zM513 133q0 40 11 85t33.5 83t57.5 62.5t83 24.5q72 0 109 -36.5t37 -108.5q0 -43 -10.5 -88t-33 -82t-58 -61t-85.5 -24q-67 0 -105.5 38.5t-38.5 106.5zM644 725h64l-435 -753h-64zM147 458q0 -46 17.5 -70t61.5 -24q33 0 55 20t35.5 51t19.5 66.5
t6 67.5q0 85 -73 85q-33 0 -56 -21t-37.5 -51.5t-21.5 -64.5t-7 -59z" />
    <glyph glyph-name="ampersand" unicode="&#x26;" horiz-adv-x="630" 
d="M246 551q0 -34 14 -61.5t31 -55.5q19 11 41 24t41 29t31.5 35.5t12.5 42.5q0 34 -23 54t-56 20q-39 0 -65.5 -23.5t-26.5 -64.5zM424 74q-41 -39 -91.5 -62.5t-112.5 -23.5q-42 0 -78 12.5t-63 36.5t-42.5 58t-15.5 78q0 45 18 79t46.5 60.5t64 47t70.5 38.5
q-21 33 -40 71.5t-19 86.5q0 36 13.5 65t37 49.5t56 32t71.5 11.5q31 0 60.5 -8.5t52 -25.5t36.5 -42.5t14 -59.5q0 -38 -16.5 -68t-42 -54.5t-56.5 -44t-61 -35.5l112 -184q21 29 39.5 68.5t23.5 76.5h82q-16 -71 -41.5 -118t-61.5 -89l85 -130h-97zM257 338
q-25 -13 -52 -29t-49 -36t-36 -46t-14 -58q0 -24 10 -43.5t27.5 -33.5t39.5 -21.5t46 -7.5t44 4.5t38.5 13t36 21t36.5 28.5z" />
    <glyph glyph-name="quoteright" unicode="&#x2019;" horiz-adv-x="278" 
d="M162 714h111q-10 -42 -17.5 -86t-23 -80.5t-44.5 -62t-81 -29.5l10 48q20 3 33 12.5t21 23t13 30t10 33.5h-56z" />
    <glyph glyph-name="parenleft" unicode="(" horiz-adv-x="259" 
d="M116 -198q-18 39 -32.5 85.5t-25.5 94.5t-17 96t-6 92q0 85 19.5 160t54 143.5t82 132t102.5 125.5h70q-54 -65 -99 -134t-77 -143t-49.5 -154t-17.5 -166q0 -85 12 -168t40 -164h-56z" />
    <glyph glyph-name="parenright" unicode=")" horiz-adv-x="259" 
d="M-117 -198q55 64 99.5 133t76.5 143t49.5 154t17.5 166q0 85 -12 168.5t-40 164.5h56q18 -41 32.5 -87t25.5 -94t17 -96t6 -92q0 -85 -19.5 -160t-54 -143.5t-82 -131.5t-102.5 -125h-70z" />
    <glyph glyph-name="asterisk" unicode="*" horiz-adv-x="352" 
d="M247 601l110 11l5 -48l-107 -14l49 -100l-49 -23l-47 103l-78 -87l-37 37l77 84l-95 48l25 46l96 -49l22 105h54z" />
    <glyph glyph-name="plus" unicode="+" horiz-adv-x="600" 
d="M334 287h218v-68h-218v-219h-68v219h-218v68h218v219h68v-219z" />
    <glyph glyph-name="comma" unicode="," horiz-adv-x="278" 
d="M39 111h111q-10 -42 -17.5 -86t-23 -80.5t-44.5 -62t-81 -29.5l10 48q20 3 33 12.5t21 23t13 30t10 33.5h-56z" />
    <glyph glyph-name="hyphen" unicode="-" horiz-adv-x="389" 
d="M42 318h290l-16 -80h-290z" />
    <glyph glyph-name="period" unicode="." horiz-adv-x="278" 
d="M39 111h111l-24 -111h-111z" />
    <glyph glyph-name="slash" unicode="/" horiz-adv-x="333" 
d="M278 731h73l-296 -748h-73z" />
    <glyph glyph-name="zero" unicode="0" 
d="M115 249q0 -85 26 -135.5t89 -50.5q39 0 70 22t54 56t38.5 75.5t25 81t14 71.5t4.5 48q0 30 0.5 67.5t-8.5 70.5t-31.5 56t-68.5 23q-38 0 -69 -21.5t-54.5 -56t-40.5 -77.5t-28 -86t-16 -81t-5 -63zM25 263q0 40 7.5 88.5t23.5 98t41 96.5t59 83t78.5 58t100.5 22
q93 0 142 -63t49 -205q0 -32 -6.5 -78.5t-20.5 -97t-37.5 -100t-57.5 -89t-79.5 -64t-103.5 -24.5q-56 0 -93.5 21.5t-60.5 58.5t-32.5 87.5t-9.5 107.5z" />
    <glyph glyph-name="one" unicode="1" 
d="M282 0h-90l115 539q-48 -11 -91 -15.5t-92 -4.5l14 68q32 0 66 7.5t65 23t56.5 38.5t41.5 53h66z" />
    <glyph glyph-name="two" unicode="2" 
d="M68 468q6 55 25 99.5t51 76t77 48.5t102 17q43 0 79.5 -13t63 -37.5t41.5 -59.5t15 -79q0 -43 -15 -78.5t-39.5 -65t-56.5 -54t-67 -46t-70 -41t-65 -38.5q-17 -11 -34.5 -24t-33.5 -28.5t-28.5 -33t-19.5 -36.5h369l-16 -75h-452q4 54 21.5 94.5t44.5 72.5t61 57
t71 47.5t75 45t73 48.5q19 15 36 30t29.5 33t19.5 39.5t7 47.5q0 56 -32 87.5t-87 31.5q-36 0 -64 -13.5t-47.5 -36t-30.5 -53t-13 -63.5h-90z" />
    <glyph glyph-name="three" unicode="3" 
d="M229 404q34 -2 68.5 1.5t63 17t46.5 40.5t18 73q0 31 -10.5 50.5t-27.5 30t-38.5 14t-43.5 3.5q-60 0 -97.5 -35t-46.5 -109h-90q6 44 23 83.5t46 69.5t71 48t99 18q94 0 149.5 -43.5t55.5 -133.5q0 -31 -11 -57.5t-28.5 -47.5t-40.5 -35.5t-47 -21.5q52 -23 72 -61.5
t20 -85.5q0 -37 -15.5 -78t-47 -76t-79.5 -58t-114 -23q-105 0 -165 56t-58 175h90q-1 -29 4 -57t20 -50t42 -35.5t69 -13.5q36 0 66 11t51.5 31t34 49t12.5 65q0 40 -15.5 63.5t-40.5 35.5t-56.5 15t-63.5 3z" />
    <glyph glyph-name="four" unicode="4" 
d="M307 166h-311l17 84l420 459h72l-98 -468h94l-15 -75h-94l-36 -166h-85zM94 241h228l67 321h-2z" />
    <glyph glyph-name="five" unicode="5" 
d="M508 622h-291l-56 -192l2 -2q26 20 59 29.5t66 9.5q48 0 85 -16.5t62.5 -45t38.5 -68t13 -84.5q0 -56 -19.5 -108t-60.5 -90q-41 -36 -86.5 -51.5t-100.5 -15.5q-97 0 -155 52.5t-58 149.5h90q0 -62 31.5 -94.5t96.5 -32.5q42 0 74 14.5t53.5 40t33 59.5t11.5 72
q0 69 -36 106t-105 37q-38 0 -73 -18.5t-53 -50.5h-76l110 374h359z" />
    <glyph glyph-name="six" unicode="6" 
d="M455 525q-1 54 -27.5 81.5t-82.5 27.5q-50 0 -84.5 -24t-58 -61t-38.5 -81t-26 -83h2q12 18 29.5 31.5t38 22.5t43 13t44.5 4q44 0 81 -16t63.5 -44.5t41 -66.5t14.5 -81q0 -55 -17.5 -102.5t-50.5 -82.5t-80 -55t-105 -20q-56 0 -96 18t-66 50.5t-38.5 76t-12.5 94.5
q0 35 4 73.5t12 76.5t19 74t25 67q38 89 101.5 140t168.5 51q88 0 136 -49t50 -135h-90zM405 244q0 61 -33.5 99t-96.5 38q-38 0 -67 -14t-49 -38t-30 -55.5t-10 -67.5q0 -63 32 -103t99 -40q39 0 68 15t48.5 40.5t29 58t9.5 67.5z" />
    <glyph glyph-name="seven" unicode="7" 
d="M564 626q-61 -57 -117 -132.5t-104 -159t-86 -169.5t-63 -165h-97q55 174 150.5 330.5t223.5 291.5h-369l17 75h457z" />
    <glyph glyph-name="eight" unicode="8" 
d="M104 519q0 46 17.5 81.5t47 59.5t68.5 36.5t83 12.5q39 0 75 -12t63.5 -34.5t44 -55t16.5 -74.5q0 -59 -35 -102.5t-92 -56.5v-2q52 -22 76 -67t24 -100q0 -49 -19.5 -89t-52.5 -68.5t-76 -44t-89 -15.5q-47 0 -89 12t-74 37t-51 63t-19 89q0 80 46 131.5t124 65.5v2
q-38 17 -63 53t-25 78zM249 63q67 0 110 38.5t43 106.5q0 57 -34 92.5t-97 35.5q-70 0 -114.5 -37t-44.5 -109q0 -64 38.5 -95.5t98.5 -31.5zM194 516q0 -56 34.5 -80.5t85.5 -24.5t83 32t32 83q0 54 -30 81t-83 27q-54 0 -88 -32t-34 -86z" />
    <glyph glyph-name="nine" unicode="9" 
d="M94 169q0 -51 25 -78.5t78 -27.5q51 0 86 23.5t59.5 59.5t40.5 79t28 82l-2 2q-25 -37 -68.5 -53.5t-87.5 -16.5t-81 16.5t-63 44.5t-40.5 66t-14.5 81q0 54 17.5 101.5t49.5 83.5t78 56.5t102 20.5t97 -17t68 -48.5t40 -75.5t13 -97q0 -70 -15.5 -146.5t-43.5 -140.5
q-20 -45 -43.5 -81.5t-54.5 -62t-71 -39t-93 -13.5q-44 0 -80.5 11t-62 33.5t-39 56.5t-12.5 80h90zM274 314q38 0 67 14t48.5 38t29.5 56t10 67q0 66 -34 105.5t-103 39.5q-37 0 -64.5 -16.5t-46 -43t-28 -59t-9.5 -64.5q0 -61 33 -99t97 -38z" />
    <glyph glyph-name="colon" unicode=":" horiz-adv-x="278" 
d="M211 406h-112l23 111h112zM37 111h113l-23 -111h-112z" />
    <glyph glyph-name="semicolon" unicode=";" horiz-adv-x="278" 
d="M210 406h-111l24 111h111zM39 111h111q-10 -42 -17.5 -86t-23 -80.5t-44.5 -62t-81 -29.5l10 48q20 3 33 12.5t21 23t13 30t10 33.5h-56z" />
    <glyph glyph-name="less" unicode="&#x3c;" horiz-adv-x="600" 
d="M554 446l-425 -193l425 -193v-68l-508 230v62l508 230v-68z" />
    <glyph glyph-name="equal" unicode="=" horiz-adv-x="600" 
d="M48 186h504v-68h-504v68zM552 320h-504v68h504v-68z" />
    <glyph glyph-name="greater" unicode="&#x3e;" horiz-adv-x="600" 
d="M46 60l425 193l-425 193v68l508 -230v-62l-508 -230v68z" />
    <glyph glyph-name="question" unicode="?" 
d="M169 111h111l-24 -111h-111zM86 488q3 50 22 93t51 74.5t75 49t94 17.5q37 0 74.5 -10t66.5 -30t47.5 -51.5t18.5 -73.5q0 -52 -16.5 -87.5t-41.5 -62t-55.5 -47.5t-58.5 -43t-50 -48.5t-30 -63.5l-4 -22h-83q6 35 16.5 67.5t33.5 61.5q18 24 43.5 45t60.5 45
q18 12 35 26.5t30.5 32t21.5 37.5t8 44q0 54 -32 79.5t-83 25.5q-36 0 -64 -12.5t-48 -34t-32 -50.5t-15 -62h-85z" />
    <glyph glyph-name="at" unicode="@" horiz-adv-x="800" 
d="M534 270q-4 -13 -7.5 -26.5t-3.5 -24.5q0 -14 5.5 -22.5t18.5 -8.5q23 0 47.5 21t44.5 54t33 74t13 81q0 59 -22.5 107t-60.5 81.5t-87 51.5t-101 18q-64 0 -119.5 -25.5t-96.5 -69.5t-64.5 -102t-23.5 -124q0 -67 24.5 -125t67 -100.5t98.5 -67t119 -24.5q36 0 71 8.5
t67.5 24.5t60.5 38.5t49 49.5h63q-24 -41 -58 -74t-74.5 -55.5t-86.5 -34.5t-94 -12q-79 0 -147.5 29t-119 80t-79.5 120t-29 148q0 77 29.5 144.5t80 118t118 79.5t143.5 29q69 0 131 -23t108.5 -63.5t73.5 -97.5t27 -124q0 -65 -23.5 -118.5t-58.5 -91.5t-76 -59t-76 -21
q-26 0 -44 16t-20 49h-3q-23 -26 -55 -46.5t-69 -20.5q-32 0 -58.5 12.5t-45 33.5t-29 50t-10.5 62q0 52 17 103t47.5 91t74 65t96.5 25q35 0 65 -18.5t47 -63.5l23 63h63zM420 505q-35 0 -64.5 -20.5t-50.5 -51.5t-33 -67.5t-12 -69.5q0 -42 24 -69.5t62 -27.5
q33 0 61 21.5t49 54t33 69.5t12 68q0 18 -7 35t-18 29.5t-25.5 20.5t-30.5 8z" />
    <glyph glyph-name="A" unicode="A" horiz-adv-x="667" 
d="M375 714h104l129 -714h-98l-33 215h-301l-125 -215h-106zM219 295h246l-53 335h-2z" />
    <glyph glyph-name="B" unicode="B" horiz-adv-x="685" 
d="M183 407h212q75 0 113.5 34.5t38.5 101.5q0 31 -13.5 49.5t-34.5 27.5t-45.5 11.5t-46.5 2.5h-176zM156 714h287q105 0 152 -45t47 -126q0 -30 -9.5 -58.5t-27 -52t-43 -40t-56.5 -21.5v-2q49 -14 78 -52.5t29 -95.5q0 -51 -19.5 -92t-54 -69.5t-80.5 -44t-99 -15.5h-353
zM115 80h230q18 0 47 3.5t57 18t48.5 42.5t20.5 77q0 34 -12 55t-32.5 32t-47 15t-55.5 4h-204z" />
    <glyph glyph-name="C" unicode="C" horiz-adv-x="722" 
d="M660 241q-27 -120 -105.5 -189t-210.5 -69q-73 0 -130 21t-96 61.5t-59.5 98.5t-20.5 132q0 87 27 165.5t77.5 138.5t123 95.5t164.5 35.5q58 0 107.5 -15.5t86 -46t57.5 -77t21 -108.5h-95q0 84 -49.5 125.5t-127.5 41.5q-75 0 -130.5 -31.5t-92.5 -81.5t-55.5 -114
t-18.5 -128q0 -52 13 -95t39 -73.5t65.5 -47.5t93.5 -17q88 0 143 47t78 131h95z" />
    <glyph glyph-name="D" unicode="D" horiz-adv-x="704" 
d="M117 80h165q76 0 132.5 30.5t94 80t56 112.5t18.5 128q0 39 -8.5 76t-30.5 65t-60.5 45t-97.5 17h-152zM158 714h250q133 0 201.5 -73t68.5 -200q0 -101 -29 -182.5t-81 -139t-125.5 -88.5t-161.5 -31h-274z" />
    <glyph glyph-name="E" unicode="E" horiz-adv-x="611" 
d="M158 714h492l-16 -80h-397l-48 -227h370l-16 -80h-371l-52 -247h402l-18 -80h-497z" />
    <glyph glyph-name="F" unicode="F" horiz-adv-x="574" 
d="M156 714h470l-17 -80h-375l-47 -227h330l-17 -80h-330l-68 -327h-95z" />
    <glyph glyph-name="G" unicode="G" horiz-adv-x="759" 
d="M557 71q-41 -45 -98 -66.5t-115 -21.5q-73 0 -130 21t-96 61.5t-59.5 98.5t-20.5 132q0 87 27 165.5t77.5 138.5t123 95.5t164.5 35.5q59 0 111.5 -14t91.5 -43.5t61.5 -74.5t22.5 -107h-95q0 41 -15.5 71t-41.5 49.5t-61 29t-74 9.5q-75 0 -130.5 -31.5t-92.5 -81.5
t-55.5 -114t-18.5 -128q0 -52 13 -95t39 -73.5t65.5 -47.5t93.5 -17q57 0 99.5 17t73.5 47.5t51.5 73.5t33.5 95h-228l16 80h311l-78 -376h-60z" />
    <glyph glyph-name="H" unicode="H" horiz-adv-x="722" 
d="M157 714h96l-65 -307h374l64 307h95l-150 -714h-95l69 327h-374l-69 -327h-95z" />
    <glyph glyph-name="I" unicode="I" horiz-adv-x="259" 
d="M157 714h95l-150 -714h-95z" />
    <glyph glyph-name="J" unicode="J" horiz-adv-x="519" 
d="M412 176q-10 -46 -26 -82t-42 -60.5t-63.5 -37.5t-91.5 -13q-43 0 -79.5 10t-62.5 29t-41 47.5t-15 65.5q0 18 2 44t7 55h96q-4 -18 -6.5 -36.5t-3.5 -37.5q0 -51 28 -74t77 -23q36 0 59.5 14.5t38.5 37.5t23.5 52t14.5 58l104 489h94z" />
    <glyph glyph-name="K" unicode="K" horiz-adv-x="667" 
d="M158 714h95l-75 -352l2 -2l404 354h127l-344 -294l229 -420h-105l-195 362l-143 -121l-51 -241h-95z" />
    <glyph glyph-name="L" unicode="L" 
d="M157 714h95l-132 -634h377l-17 -80h-473z" />
    <glyph glyph-name="M" unicode="M" horiz-adv-x="870" 
d="M157 714h132l95 -614h2l353 614h132l-151 -714h-91l146 625h-2l-364 -625h-91l-93 625h-2l-125 -625h-91z" />
    <glyph glyph-name="N" unicode="N" horiz-adv-x="722" 
d="M158 714h102l255 -591h2l119 591h92l-151 -714h-102l-253 587h-2l-121 -587h-92z" />
    <glyph glyph-name="O" unicode="O" horiz-adv-x="759" 
d="M133 296q0 -52 13 -95t39 -73.5t65.5 -47.5t93.5 -17q71 0 125 31t90.5 81t55 113t18.5 127q0 49 -13 92.5t-39 75t-64 50t-87 18.5q-75 0 -130.5 -31.5t-92.5 -81.5t-55.5 -114t-18.5 -128zM38 296q0 87 27 165.5t77.5 138.5t123 95.5t164.5 35.5q69 0 124.5 -24.5
t94 -67t59 -100.5t20.5 -124q0 -84 -26.5 -162t-76 -138t-121 -96t-160.5 -36q-73 0 -130 21t-96 61.5t-59.5 98.5t-20.5 132z" />
    <glyph glyph-name="P" unicode="P" horiz-adv-x="648" 
d="M181 372h215q77 0 117.5 40.5t40.5 104.5q0 33 -9.5 55.5t-25.5 36t-37 19.5t-45 6h-201zM156 714h281q103 0 157.5 -49.5t54.5 -147.5q0 -33 -13 -72.5t-44.5 -73.5t-84 -56.5t-131.5 -22.5h-212l-62 -292h-95z" />
    <glyph glyph-name="Q" unicode="Q" horiz-adv-x="759" 
d="M435 203l79 -77q30 25 52 58.5t37 71t22.5 78t7.5 81.5q0 49 -13 92.5t-39 75t-64 50t-87 18.5q-75 0 -130.5 -31.5t-92.5 -81.5t-55.5 -114t-18.5 -128q0 -52 13 -95t39 -73.5t65.5 -47.5t93.5 -17q57 0 102 21l-65 62zM609 -74l-99 96q-36 -19 -77.5 -29t-88.5 -10
q-73 0 -130 21t-96 61.5t-59.5 98.5t-20.5 132q0 87 27 165.5t77.5 138.5t123 95.5t164.5 35.5q69 0 124.5 -24.5t94 -67t59 -100.5t20.5 -124q0 -103 -39.5 -195.5t-112.5 -153.5l87 -84z" />
    <glyph glyph-name="R" unicode="R" horiz-adv-x="685" 
d="M158 714h275q45 0 87.5 -8.5t75.5 -29.5t52.5 -56t19.5 -88q0 -36 -12 -68.5t-33 -58t-50.5 -43t-65.5 -22.5v-2q23 -7 38.5 -22t24 -35.5t11 -45.5t-0.5 -52q-2 -24 -6 -48t-6 -46.5t0 -45t13 -43.5h-99q-7 20 -8 59t10 94q11 64 1.5 95.5t-28.5 44t-42 12.5h-38h-211
l-64 -305h-95zM183 385h214q56 0 90.5 15t53.5 36.5t25.5 46t6.5 43.5q0 33 -12 54t-31.5 33t-44.5 16.5t-52 4.5h-197z" />
    <glyph glyph-name="S" unicode="S" horiz-adv-x="648" 
d="M519 503q1 42 -10.5 70.5t-33.5 46t-52.5 24.5t-67.5 7q-26 0 -55 -6.5t-53.5 -20.5t-40.5 -36t-16 -54q0 -26 9 -44.5t24.5 -32t37 -22.5t45.5 -16l96 -26q33 -9 64 -22.5t55 -35t38.5 -54.5t14.5 -81q0 -55 -25.5 -96t-65.5 -68t-89.5 -40t-97.5 -13q-65 0 -118.5 14.5
t-91 45.5t-57 78t-14.5 113h95q-2 -48 11 -81t38.5 -53t61 -28.5t79.5 -8.5q33 0 65.5 8t57.5 24.5t40.5 42.5t15.5 62q0 27 -10 46.5t-27.5 33t-40.5 22.5t-49 16l-97 26q-32 9 -61 23t-51 36t-35 52t-13 69q0 52 23 90.5t59.5 64.5t83 39t94.5 13q53 0 100.5 -13.5
t83.5 -41t56.5 -70.5t18.5 -103h-95z" />
    <glyph glyph-name="T" unicode="T" horiz-adv-x="574" 
d="M635 634h-240l-134 -634h-95l134 634h-240l17 80h576z" />
    <glyph glyph-name="U" unicode="U" horiz-adv-x="722" 
d="M639 286q-9 -42 -18 -79t-18 -58q-18 -44 -46.5 -75.5t-65 -51.5t-79 -29.5t-87.5 -9.5q-158 0 -224 80.5t-35 230.5l89 420h95l-94 -444q-24 -104 20.5 -155.5t148.5 -51.5q58 0 95.5 16t61.5 45t37 70.5t24 91.5l90 428h95z" />
    <glyph glyph-name="V" unicode="V" horiz-adv-x="611" 
d="M288 0h-107l-102 714h97l73 -621h2l339 621h101z" />
    <glyph glyph-name="W" unicode="W" horiz-adv-x="926" 
d="M655 0h-99l-45 616h-2l-282 -616h-102l-45 714h94l25 -601h2l274 601h108l40 -603h2l260 603h98z" />
    <glyph glyph-name="X" unicode="X" horiz-adv-x="611" 
d="M266 373l-172 341h102l132 -282l229 282h107l-294 -354l181 -360h-98l-144 302l-244 -302h-109z" />
    <glyph glyph-name="Y" unicode="Y" horiz-adv-x="611" 
d="M254 287l-188 427h101l146 -346l271 346h110l-346 -427l-62 -287h-93z" />
    <glyph glyph-name="Z" unicode="Z" horiz-adv-x="611" 
d="M-21 79l536 555h-409l20 80h521l-17 -81l-540 -553h456l-17 -80h-567z" />
    <glyph glyph-name="bracketleft" unicode="[" horiz-adv-x="259" 
d="M163 731h189l-14 -65h-108l-164 -799h108l-14 -65h-189z" />
    <glyph glyph-name="backslash" unicode="\" horiz-adv-x="333" 
d="M351 -17h-73l-296 748h73z" />
    <glyph glyph-name="bracketright" unicode="]" horiz-adv-x="259" 
d="M61 -198h-189l14 65h108l164 799h-108l14 65h189z" />
    <glyph glyph-name="asciicircum" unicode="^" horiz-adv-x="600" 
d="M268 697h64l218 -433h-70l-181 360l-178 -360h-71z" />
    <glyph glyph-name="underscore" unicode="_" horiz-adv-x="500" 
d="M0 -75h500v-50h-500v50z" />
    <glyph glyph-name="quoteleft" unicode="&#x2018;" horiz-adv-x="278" 
d="M222 456h-111q10 42 17.5 86t23 80.5t44 61.5t81.5 30l-10 -48q-20 -3 -33 -12.5t-21 -23t-13.5 -30t-9.5 -33.5h56z" />
    <glyph glyph-name="a" unicode="a" horiz-adv-x="519" 
d="M53 361q6 43 26.5 74.5t50.5 52.5t68 31t79 10q37 0 71.5 -6t60.5 -21t41.5 -40.5t15.5 -64.5q0 -22 -5.5 -47.5t-10.5 -46.5l-33 -141q-3 -16 -8.5 -36t-5.5 -38t7 -25t18 -7q6 0 13.5 2.5l13.5 4.5l-13 -63q-10 -5 -25.5 -8.5t-26.5 -3.5q-35 0 -53 19.5t-14 53.5l-2 2
q-27 -36 -67 -55.5t-106 -19.5q-32 0 -61 8t-50.5 25.5t-34 45t-12.5 67.5q0 56 24.5 88.5t63 49t84.5 22.5t89 10q34 3 58.5 6.5t40.5 11.5t23.5 23t7.5 41q0 21 -10 34t-25 20.5t-33.5 10.5t-35.5 3q-24 0 -47.5 -5t-42.5 -16.5t-32 -29t-17 -42.5h-85zM75 135
q0 -36 28.5 -54t64.5 -18q101 0 145 68q21 29 28.5 63t16.5 70h-2q-14 -8 -33 -13.5t-40.5 -9.5t-45.5 -6.5t-47 -5.5t-44 -9t-36.5 -16.5t-25 -27t-9.5 -41.5z" />
    <glyph glyph-name="b" unicode="b" horiz-adv-x="593" 
d="M146 714h85l-55 -261l2 -2q29 37 69.5 57.5t88.5 20.5q52 0 90 -16.5t63 -45.5t37.5 -70.5t12.5 -90.5q0 -60 -18 -117.5t-53 -102t-85.5 -71.5t-116.5 -27q-36 0 -66 9.5t-52.5 25t-37 35t-18.5 38.5h-2l-19 -96h-76zM454 306q0 31 -7.5 58t-22 47t-36.5 31.5t-52 11.5
q-56 0 -96 -25.5t-65.5 -64.5t-37.5 -85t-12 -87q0 -61 39 -95t102 -34q46 0 81 24t59 60t36 78.5t12 80.5z" />
    <glyph glyph-name="c" unicode="c" horiz-adv-x="537" 
d="M416 353q0 48 -29.5 74.5t-79.5 26.5q-49 0 -86.5 -22t-63 -57t-38.5 -78.5t-13 -85.5q0 -30 6.5 -57t21.5 -47t39.5 -32t60.5 -12q55 0 94 29t57 77h85q-23 -87 -84.5 -134t-151.5 -47q-106 0 -159.5 59t-53.5 164q0 61 18.5 118.5t55 102t90 71t122.5 26.5
q88 0 139.5 -42.5t54.5 -133.5h-85z" />
    <glyph glyph-name="d" unicode="d" horiz-adv-x="593" 
d="M455 0h-80l18 74h-2q-38 -50 -78.5 -68t-92.5 -18q-50 0 -87.5 15.5t-63.5 43.5t-39 67t-13 86q0 59 19.5 117.5t56 105.5t90 76.5t121.5 29.5q24 0 49 -4.5t47.5 -15t39.5 -28t25 -43.5h2l55 276h84zM102 200q0 -63 31.5 -100t101.5 -37q48 0 86 25t63.5 63t39 83
t13.5 86q0 58 -33.5 96t-96.5 38q-51 0 -89 -23.5t-64 -60.5t-39 -82t-13 -88z" />
    <glyph glyph-name="e" unicode="e" horiz-adv-x="537" 
d="M98 233q-3 -23 -3 -45q0 -30 11 -53.5t30 -39t43 -24t50 -8.5q56 0 93.5 25.5t55.5 73.5h85q-10 -43 -32 -75.5t-53 -54.5t-69 -33t-80 -11q-64 0 -106.5 20t-67.5 50.5t-35 67t-10 70.5q0 74 21.5 135.5t58 105.5t85 68t101.5 24q114 0 166.5 -60t52.5 -169
q0 -20 -3 -38t-5 -29h-389zM410 308q2 27 -3.5 53.5t-19.5 47t-38.5 33t-59.5 12.5q-38 0 -67 -11.5t-50.5 -31.5t-37 -46.5t-24.5 -56.5h300z" />
    <glyph glyph-name="f" unicode="f" horiz-adv-x="296" 
d="M119 442h-88l15 75h88q10 39 18.5 76t24.5 65.5t44.5 46t79.5 17.5q18 0 36 -1.5t35 -6.5l-14 -72q-22 5 -40 5q-32 0 -48.5 -11.5t-25.5 -30t-14 -41.5t-12 -47h99l-14 -75h-100l-95 -442h-85z" />
    <glyph glyph-name="g" unicode="g" horiz-adv-x="574" 
d="M459 75q-9 -40 -19 -77t-21 -64q-33 -78 -92.5 -111t-142.5 -33q-39 0 -76 9t-65.5 28t-46 49.5t-18.5 73.5h85q2 -26 13.5 -42.5t29 -26t40.5 -13t47 -3.5q49 0 80.5 18t51.5 47.5t31.5 66.5t21.5 76l-2 2q-28 -42 -70 -60.5t-91 -18.5q-48 0 -84.5 16t-60.5 44.5
t-36.5 68t-12.5 85.5q0 57 18.5 114t53 102.5t84.5 74t113 28.5q28 0 55 -7.5t49.5 -21t38 -33t21.5 -43.5v-2h2l16 95h80zM106 210q0 -28 8 -53t23.5 -44t39.5 -30.5t56 -11.5q48 0 83.5 24t58.5 61t34.5 80.5t11.5 82.5q0 61 -32.5 98t-99.5 37q-45 0 -79 -25t-57 -61.5
t-35 -79t-12 -78.5z" />
    <glyph glyph-name="h" unicode="h" 
d="M146 714h85l-61 -273l2 -2q32 44 81 67t103 23q73 0 108.5 -32t35.5 -101q0 -17 -4 -44t-11 -57l-63 -295h-85l66 302q1 7 3.5 18t4 22.5t3 22t1.5 17.5q0 37 -26 54.5t-64 17.5q-35 0 -69.5 -17t-58.5 -43q-23 -20 -36 -48.5t-21 -59.5l-60 -286h-85z" />
    <glyph glyph-name="i" unicode="i" horiz-adv-x="222" 
d="M208 610h-86l22 104h86zM103 517h85l-108 -517h-85z" />
    <glyph glyph-name="j" unicode="j" horiz-adv-x="222" 
d="M208 610h-86l22 104h86zM-105 -117q8 -2 16.5 -4t16.5 -2q14 0 23 5t16 16t12 30t11 46l113 543h85l-130 -614q-11 -48 -41 -74.5t-81 -26.5q-14 0 -28 1t-28 5z" />
    <glyph glyph-name="k" unicode="k" horiz-adv-x="481" 
d="M146 714h84l-89 -420l2 -2l260 225h111l-225 -191l128 -326h-95l-101 275l-102 -91l-39 -184h-85z" />
    <glyph glyph-name="l" unicode="l" horiz-adv-x="222" 
d="M145 714h85l-150 -714h-85z" />
    <glyph glyph-name="m" unicode="m" horiz-adv-x="852" 
d="M105 517h79l-19 -77l2 -2q33 41 79.5 66t100.5 25q49 0 84 -21t46 -72q30 42 77.5 67.5t99.5 25.5q27 0 53 -6.5t46.5 -20t32.5 -36t12 -53.5q0 -23 -5 -52t-10 -51l-65 -310h-85l72 328q3 12 5.5 28.5t2.5 27.5q0 30 -22.5 50t-56.5 20q-18 0 -36.5 -6t-35.5 -15.5
t-32 -22.5t-26 -27q-21 -23 -31 -53t-17 -63l-57 -267h-85l62 295q7 30 11.5 56t4.5 35q0 32 -18.5 50t-53.5 18q-18 0 -35.5 -5.5t-34 -14.5t-31.5 -21t-26 -25q-27 -26 -37 -52.5t-18 -64.5l-58 -271h-85z" />
    <glyph glyph-name="n" unicode="n" 
d="M104 517h82l-16 -78h2q32 44 81 67t103 23q73 0 108.5 -32t35.5 -101q0 -17 -4 -44t-11 -57l-63 -295h-85l66 302q1 7 3.5 18t4 22.5t3 22t1.5 17.5q0 37 -26 54.5t-64 17.5q-35 0 -69.5 -17t-58.5 -43q-23 -20 -36 -48.5t-21 -59.5l-60 -286h-85z" />
    <glyph glyph-name="o" unicode="o" horiz-adv-x="574" 
d="M17 204q0 63 19.5 122t57 104t91 72t121.5 27q104 0 159.5 -55t55.5 -159q0 -63 -19 -122t-56 -104.5t-90 -73t-121 -27.5q-51 0 -91.5 16t-68.5 45t-43 68.5t-15 86.5zM102 205q0 -64 36 -103t106 -39q46 0 82 24t60.5 60.5t37 79.5t12.5 81q0 30 -8 57t-25 46.5
t-42.5 31t-60.5 11.5q-49 0 -86 -24t-62 -60.5t-37.5 -80.5t-12.5 -84z" />
    <glyph glyph-name="p" unicode="p" horiz-adv-x="593" 
d="M102 517h80l-18 -74h2q38 50 78.5 68t92.5 18q49 0 87 -15.5t64 -43.5t39 -67t13 -86q0 -59 -19.5 -117.5t-56 -105.5t-90 -76.5t-121.5 -29.5q-24 0 -49 4.5t-47.5 15t-40 28t-24.5 43.5h-2l-55 -277h-84zM455 317q0 63 -31.5 100t-101.5 37q-48 0 -86 -25t-63.5 -63
t-39 -83.5t-13.5 -85.5q0 -58 33.5 -96t96.5 -38q51 0 89 23.5t64 60.5t39 82t13 88z" />
    <glyph glyph-name="q" unicode="q" horiz-adv-x="593" 
d="M102 212q0 -30 7.5 -57.5t23.5 -47.5t41 -32t60 -12q51 0 88 26t61.5 65t36 85.5t11.5 87.5q0 59 -35 93t-98 34q-47 0 -83.5 -23t-61.5 -58t-38 -78t-13 -83zM410 -198h-86l56 264h-2q-30 -37 -72.5 -57.5t-90.5 -20.5q-51 0 -88 17t-61.5 47t-36.5 71t-12 89
q0 60 18.5 117t53.5 101.5t85.5 71.5t114.5 27q57 0 101.5 -20.5t65.5 -73.5h2l17 82h86z" />
    <glyph glyph-name="r" unicode="r" horiz-adv-x="333" 
d="M103 517h80l-25 -111h2q30 53 76.5 88t111.5 35q8 0 15 1t15 -1l-20 -91q-6 1 -13 1h-12q-16 0 -26 -0.5t-25 -4.5q-35 -9 -62.5 -31t-47.5 -53q-17 -25 -27 -58.5t-16 -62.5l-49 -229h-85z" />
    <glyph glyph-name="s" unicode="s" horiz-adv-x="481" 
d="M355 365q1 22 -7 38.5t-23 28t-35 17t-42 5.5q-20 0 -39.5 -3t-35 -10.5t-25.5 -20.5t-10 -32q0 -18 11.5 -31t31 -24t43.5 -20.5t50 -19.5q25 -11 50 -23.5t44 -29.5t31 -39.5t12 -52.5q0 -43 -19 -73.5t-49 -49.5t-68 -28t-75 -9q-44 0 -82.5 9t-66.5 29t-44 53.5
t-16 83.5h85q-2 -29 8.5 -48t29 -30.5t43 -16.5t51.5 -5q21 0 42 4t38 13.5t27.5 24.5t10.5 37q0 19 -11.5 32.5t-31 24.5t-44 20.5t-49.5 20.5q-26 10 -50.5 22t-44 28.5t-31 38.5t-11.5 51q0 36 16.5 64t43.5 46.5t61.5 28.5t70.5 10t71 -8.5t62.5 -28t44.5 -51t17 -76.5
h-85z" />
    <glyph glyph-name="t" unicode="t" horiz-adv-x="315" 
d="M221 517h103l-16 -75h-103l-64 -304q-1 -9 -2 -17t-1 -17q0 -20 15.5 -27.5t35.5 -7.5q13 0 25 2.5t24 6.5l-15 -78q-30 -6 -60 -6q-24 0 -45 4t-36.5 13.5t-25 25.5t-9.5 41q0 11 1.5 21t3.5 22l68 321h-87l16 75h87l32 153h85z" />
    <glyph glyph-name="u" unicode="u" 
d="M411 0h-82l16 78h-2q-32 -44 -81 -67t-103 -23q-73 0 -108.5 32t-35.5 101q0 17 4 44t11 57l63 295h85l-66 -302q-2 -7 -4 -18t-3.5 -22.5t-3 -22t-1.5 -17.5q0 -37 26 -54.5t64 -17.5q35 0 66 14t55 37.5t40.5 54t23.5 62.5l60 286h85z" />
    <glyph glyph-name="v" unicode="v" horiz-adv-x="481" 
d="M207 0h-91l-74 517h90l44 -430h2l224 430h92z" />
    <glyph glyph-name="w" unicode="w" horiz-adv-x="759" 
d="M495 0h-90l-26 402h-2l-185 -402h-90l-61 517h90l32 -411h2l186 411h96l25 -411h2l196 411h92z" />
    <glyph glyph-name="x" unicode="x" horiz-adv-x="481" 
d="M176 274l-115 243h98l78 -188l154 188h103l-222 -250l132 -267h-97l-94 212l-176 -212h-103z" />
    <glyph glyph-name="y" unicode="y" horiz-adv-x="481" 
d="M163 -88q-16 -25 -31.5 -47.5t-35 -39t-43.5 -26t-57 -9.5q-15 0 -31 3.5t-28 9.5l15 69q10 -6 24 -10t25 -4q29 0 47 15.5t33 40.5l52 86l-91 517h91l60 -411h2l217 411h93z" />
    <glyph glyph-name="z" unicode="z" horiz-adv-x="444" 
d="M-41 64l360 378h-278l15 75h393l-13 -61l-363 -381h309l-14 -75h-421z" />
    <glyph glyph-name="braceleft" unicode="{" horiz-adv-x="333" 
d="M382 671h-50q-15 0 -25.5 -7.5t-18.5 -20t-13.5 -28.5t-8.5 -32l-37 -181q-8 -35 -23.5 -59.5t-32.5 -40.5t-33.5 -24t-25.5 -10l-1 -3q7 -1 18 -6t21.5 -16.5t18 -29t7.5 -44.5q0 -9 -2 -18t-4 -20l-37 -181q-3 -17 -3 -34q0 -23 6 -38.5t27 -15.5h50l-13 -60h-70
q-15 0 -30.5 6t-27.5 17t-19.5 28t-7.5 39q0 9 1 19.5t3 21.5l38 182q2 11 3 21.5t1 19.5q0 35 -18.5 55.5t-44.5 20.5l15 68q16 0 32.5 8.5t31 23.5t26 37t17.5 49l38 182q6 32 21 56.5t34 41t40 25t40 8.5h70z" />
    <glyph glyph-name="bar" unicode="|" horiz-adv-x="222" 
d="M77 786h68v-1000h-68v1000z" />
    <glyph glyph-name="braceright" unicode="}" horiz-adv-x="333" 
d="M-78 -138h50q15 0 25.5 7.5t18.5 20t13.5 28.5t8.5 32l37 181q7 35 23 59.5t33 40.5t33.5 24t25.5 10l1 3q-7 1 -18 6t-21.5 16.5t-18 29t-7.5 44.5q0 9 2 18t4 20l37 181q3 16 3 34q0 23 -6 38.5t-27 15.5h-50l13 60h70q15 0 30.5 -6t27.5 -17t19.5 -28t7.5 -39
q0 -9 -1 -19.5t-3 -21.5l-38 -182q-2 -11 -3 -21.5t-1 -19.5q0 -36 18.5 -56.5t44.5 -20.5l-15 -68q-16 0 -32.5 -8.5t-31 -24t-26 -37t-17.5 -47.5l-38 -182q-6 -32 -21 -56.5t-34 -41t-40 -25t-40 -8.5h-70z" />
    <glyph glyph-name="asciitilde" unicode="~" horiz-adv-x="600" 
d="M531 269q-11 -16 -23.5 -31.5t-27 -27.5t-33 -19.5t-41.5 -7.5q-28 0 -52.5 9.5t-49.5 23.5q-24 14 -52 26.5t-63 12.5q-17 0 -29.5 -7t-23 -18t-18 -24.5t-13.5 -26.5l-36 50q8 16 19.5 31.5t26.5 27.5t34.5 19.5t44.5 7.5q26 0 54 -9.5t57 -22.5q28 -12 55 -26t47 -14
q15 0 27.5 7t23 18t19.5 24.5t18 26.5z" />
    <glyph glyph-name="exclamdown" unicode="&#xa1;" horiz-adv-x="259" 
d="M20 25l90 308h46l-43 -308l-47 -223h-93zM201 406h-111l24 111h111z" />
    <glyph glyph-name="cent" unicode="&#xa2;" 
d="M480 169q-23 -87 -85 -134t-154 -47l-22 -104h-39l23 107q-86 11 -129 68.5t-43 151.5q0 61 20 118.5t57.5 102t90.5 71t118 26.5l19 91h39l-20 -93q72 -9 114 -51.5t42 -122.5h-85q0 45 -23 71.5t-63 32.5l-84 -399q51 4 86.5 33.5t52.5 77.5h85zM116 211
q0 -29 5.5 -54.5t17.5 -45.5t31.5 -33t47.5 -17l84 398q-45 -3 -80 -26.5t-58.5 -58.5t-35.5 -77.5t-12 -85.5z" />
    <glyph glyph-name="sterling" unicode="&#xa3;" 
d="M-3 63q28 22 51 42.5t39.5 42.5t25.5 46t9 53q0 18 -2 37.5t-8 42.5h-86l10 45h62q-8 31 -15.5 63t-7.5 64q0 50 20 92.5t53.5 73.5t77.5 48.5t91 17.5q56 0 98.5 -19t70 -52.5t40.5 -78.5t10 -96h-90q3 31 -3.5 61.5t-21.5 55t-39 39.5t-58 15q-35 0 -64 -12.5t-50 -35
t-33 -53t-12 -66.5q0 -30 6 -59.5t17 -57.5h154l-10 -45h-130q5 -14 7.5 -32.5t2.5 -35.5q0 -24 -11.5 -51t-30.5 -52.5t-43 -47.5t-49 -37v-2q22 11 54 19t58 8q23 0 43.5 -5t40.5 -11q20 -7 40.5 -14.5t44.5 -7.5q26 0 50 16t44 30l32 -72q-13 -9 -30 -18t-35 -16
t-36.5 -11t-34.5 -4q-27 0 -53 7.5t-51 16.5q-26 9 -50.5 16.5t-50.5 7.5q-33 0 -61.5 -13.5t-56.5 -29.5z" />
    <glyph glyph-name="fraction" unicode="&#x2044;" horiz-adv-x="167" 
d="M269 725h64l-435 -753h-64z" />
    <glyph glyph-name="yen" unicode="&#xa5;" 
d="M206 174h-145l14 60h144l8 52l-8 23h-130l14 60h97l-110 345h98l101 -344l239 344h108l-249 -345h96l-13 -60h-129l-24 -33l-9 -42h147l-14 -60h-146l-36 -174h-89z" />
    <glyph glyph-name="florin" unicode="&#x192;" 
d="M245 449l46 164q16 56 57.5 78.5t98.5 22.5q17 0 33 -2.5t32 -5.5l-20 -73q-9 4 -19.5 5t-20.5 1q-24 0 -39 -5.5t-25 -18t-17 -32t-15 -47.5l-24 -87h111l-18 -68h-111l-118 -415q-17 -65 -54 -98t-105 -33q-14 0 -28 1.5t-28 3.5l21 74q8 -2 17.5 -3.5t20.5 -0.5
q36 5 52.5 29t24.5 55l110 387h-95l18 68h95z" />
    <glyph glyph-name="section" unicode="&#xa7;" 
d="M440 555q1 45 -22.5 73t-74.5 28q-38 0 -66.5 -21.5t-28.5 -55.5q0 -29 14 -51t33 -42q42 -43 84 -85t77 -90q17 -23 26 -45t9 -51q0 -66 -39 -110t-104 -52q14 -15 21.5 -42t7.5 -47q0 -42 -16 -72.5t-43 -50t-62 -29t-73 -10.5q-42 1 -75 15.5t-55.5 39.5t-34 59.5
t-11.5 74.5h80q0 -52 27.5 -83t82.5 -31q39 0 67 21t28 59q0 13 -4.5 27t-11.5 27.5t-16 25.5t-17 21l-134 145q-12 13 -23 29t-20 33.5t-14.5 36t-5.5 37.5q0 68 38 105.5t101 51.5q-12 17 -17 37.5t-5 41.5q0 39 15 68t40.5 48.5t58.5 29.5t68 10q40 0 73 -12t56.5 -34.5
t36 -55.5t9.5 -74h-80zM126 351q0 -30 19.5 -58t39.5 -49l70 -75q3 -3 10 -11t16 -17.5t18 -19.5t15 -17q42 9 69.5 32t27.5 68q0 28 -24.5 60.5t-56.5 65t-64.5 62.5t-47.5 53q-5 0 -14 -3.5t-18.5 -8.5t-18 -10.5t-11.5 -8.5q-30 -25 -30 -63z" />
    <glyph glyph-name="currency" unicode="&#xa4;" 
d="M281 524q-36 0 -66.5 -13.5t-53 -37t-35.5 -55.5t-13 -69q0 -36 13 -68t35.5 -55t53 -36.5t65.5 -13.5t65 14t51.5 37.5t34 55.5t12.5 68q0 35 -12.5 66.5t-34 55t-51.5 37.5t-64 14zM74 604l56 -56q29 24 69 37.5t82 13.5q40 0 78 -13.5t65 -36.5l57 56l50 -51l-55 -55
q26 -28 39 -67t13 -81t-13 -80.5t-39 -69.5l55 -56l-47 -47l-56 58q-29 -27 -67.5 -41t-80.5 -14q-44 0 -83 13.5t-69 40.5l-55 -58l-48 48l55 58q-25 30 -38.5 67t-13.5 79t13 81t41 67l-57 58z" />
    <glyph glyph-name="quotesingle" unicode="'" horiz-adv-x="278" 
d="M142 714h68v-258h-68v258z" />
    <glyph glyph-name="quotedblleft" unicode="&#x201c;" horiz-adv-x="426" 
d="M200 456h-111q10 42 17.5 86t23 80.5t44 61.5t81.5 30l-10 -48q-20 -3 -33 -12.5t-21 -23t-13.5 -30t-9.5 -33.5h56zM382 456h-111q10 42 17.5 86t23 80.5t44 61.5t81.5 30l-10 -48q-20 -3 -33 -12.5t-21 -23t-13.5 -30t-9.5 -33.5h56z" />
    <glyph glyph-name="guillemotleft" unicode="&#xab;" horiz-adv-x="463" 
d="M226 250l22 92l174 100l-21 -85l-120 -68l87 -90l-19 -85zM30 250l22 92l174 100l-21 -85l-120 -68l87 -90l-19 -85z" />
    <glyph glyph-name="guilsinglleft" unicode="&#x2039;" horiz-adv-x="259" 
d="M30 250l22 92l174 100l-21 -85l-120 -68l87 -90l-19 -85z" />
    <glyph glyph-name="guilsinglright" unicode="&#x203a;" horiz-adv-x="259" 
d="M215 306l-22 -92l-174 -100l21 85l120 68l-87 90l19 85z" />
    <glyph glyph-name="endash" unicode="&#x2013;" horiz-adv-x="500" 
d="M-7 318h500l-16 -80h-500z" />
    <glyph glyph-name="dagger" unicode="&#x2020;" 
d="M254 442h-191l16 75h191l42 197h85l-42 -197h191l-16 -75h-191l-126 -597h-85z" />
    <glyph glyph-name="daggerdbl" unicode="&#x2021;" 
d="M170 42h-191l16 75h191l68 325h-191l16 75h191l42 197h85l-42 -197h191l-16 -75h-191l-68 -325h191l-16 -75h-191l-42 -197h-85z" />
    <glyph glyph-name="periodcentered" unicode="&#xb7;" horiz-adv-x="278" 
d="M67 253q0 28 19.5 46t44.5 18q27 0 45.5 -18.5t18.5 -45.5q0 -28 -18.5 -46t-45.5 -18q-26 0 -45 19t-19 45z" />
    <glyph glyph-name="paragraph" unicode="&#xb6;" horiz-adv-x="600" 
d="M244 336q-46 0 -81.5 14.5t-58 39.5t-31 59t-0.5 73q20 97 91 144.5t176 47.5h238l-181 -869h-64l169 814h-126l-169 -814h-65z" />
    <glyph glyph-name="bullet" unicode="&#x2022;" horiz-adv-x="500" 
d="M72 357q0 37 14 69.5t38 56.5t56.5 38t69.5 14t69.5 -14t57 -38t38.5 -56.5t14 -69.5t-14 -69.5t-38.5 -57t-57 -38.5t-69.5 -14t-69.5 14t-56.5 38.5t-38 57t-14 69.5z" />
    <glyph glyph-name="quotesinglbase" unicode="&#x201a;" horiz-adv-x="278" 
d="M22 111h111q-10 -42 -17.5 -86t-23 -80.5t-44.5 -62t-81 -29.5l10 48q20 3 33 12.5t21 23t13 30t10 33.5h-56z" />
    <glyph glyph-name="quotedblbase" unicode="&#x201e;" horiz-adv-x="426" 
d="M201 111h111q-10 -42 -17.5 -86t-23 -80.5t-44.5 -62t-81 -29.5l10 48q20 3 33 12.5t21 23t13 30t10 33.5h-56zM19 111h111q-10 -42 -17.5 -86t-23 -80.5t-44.5 -62t-81 -29.5l10 48q20 3 33 12.5t21 23t13 30t10 33.5h-56z" />
    <glyph glyph-name="quotedblright" unicode="&#x201d;" horiz-adv-x="426" 
d="M322 714h111q-10 -42 -17.5 -86t-23 -80.5t-44.5 -62t-81 -29.5l10 48q20 3 33 12.5t21 23t13 30t10 33.5h-56zM140 714h111q-10 -42 -17.5 -86t-23 -80.5t-44.5 -62t-81 -29.5l10 48q20 3 33 12.5t21 23t13 30t10 33.5h-56z" />
    <glyph glyph-name="guillemotright" unicode="&#xbb;" horiz-adv-x="463" 
d="M419 306l-22 -92l-174 -100l21 85l120 68l-87 90l19 85zM223 306l-22 -92l-174 -100l21 85l120 68l-87 90l19 85z" />
    <glyph glyph-name="ellipsis" unicode="&#x2026;" horiz-adv-x="1000" 
d="M729 111h111l-24 -111h-111zM396 111h111l-24 -111h-111zM63 111h111l-24 -111h-111z" />
    <glyph glyph-name="perthousand" unicode="&#x2030;" horiz-adv-x="1074" 
d="M441 127q0 -15 3.5 -30t10.5 -27t18 -19.5t26 -7.5q25 0 44 15.5t32 38.5t19 49.5t5 49.5q0 15 -3.5 30t-10.5 27t-18 19.5t-26 7.5q-25 0 -44 -15.5t-32 -38.5t-19 -49.5t-5 -49.5zM373 127q0 40 10.5 77.5t32.5 66.5t54.5 46.5t76.5 17.5q62 0 91 -37.5t29 -96.5
q0 -39 -10 -77t-31 -68t-53.5 -49t-77.5 -19q-34 0 -57 10.5t-37.5 29t-21 44t-6.5 55.5zM539 725h64l-435 -753h-64zM116 501q0 -15 3.5 -30t10.5 -27t18 -19.5t26 -7.5q25 0 44 15.5t32 38.5t19 49.5t5 49.5q0 15 -3.5 30t-10.5 27t-18 19.5t-26 7.5q-25 0 -44 -15.5
t-32 -38.5t-19 -49.5t-5 -49.5zM48 501q0 40 10.5 77.5t32.5 66.5t54.5 46.5t76.5 17.5q62 0 91 -37.5t29 -96.5q0 -39 -10 -77t-31 -68t-53.5 -49t-77.5 -19q-34 0 -57 10.5t-37.5 29t-21 44t-6.5 55.5zM791 127q0 -15 3.5 -30t10.5 -27t18 -19.5t26 -7.5q25 0 44 15.5
t32 38.5t19 49.5t5 49.5q0 15 -3.5 30t-10.5 27t-18 19.5t-26 7.5q-25 0 -44 -15.5t-32 -38.5t-19 -49.5t-5 -49.5zM723 127q0 40 10.5 77.5t32.5 66.5t54.5 46.5t76.5 17.5q62 0 91 -37.5t29 -96.5q0 -39 -10 -77t-31 -68t-53.5 -49t-77.5 -19q-34 0 -57 10.5t-37.5 29
t-21 44t-6.5 55.5z" />
    <glyph glyph-name="questiondown" unicode="&#xbf;" 
d="M348 406h-110l22 111h113zM431 25q-6 -54 -25.5 -97t-52 -74t-76.5 -47.5t-99 -16.5q-39 0 -75 12t-63 34.5t-43 56t-16 75.5q0 61 31.5 104.5t78.5 78.5l50 36t45 38.5t33.5 46t16.5 60.5h83q-7 -45 -20 -76.5t-32.5 -56.5t-46.5 -46.5t-62 -45.5q-33 -24 -60 -56
t-27 -76q0 -24 8.5 -44t23 -35t34.5 -23t44 -8q38 0 66 12t48 33t32.5 50.5t18.5 64.5h85z" />
    <glyph glyph-name="grave" unicode="`" horiz-adv-x="222" 
d="M284 589h-67l-101 143h101z" />
    <glyph glyph-name="acute" unicode="&#xb4;" horiz-adv-x="222" 
d="M270 732h113l-136 -143h-70z" />
    <glyph glyph-name="circumflex" unicode="&#x2c6;" horiz-adv-x="222" 
d="M203 732h86l75 -143h-74l-51 93l-87 -93h-82z" />
    <glyph glyph-name="tilde" unicode="&#x2dc;" horiz-adv-x="222" 
d="M63 608q6 18 14 37t19.5 35t27.5 26.5t38 10.5q20 0 39 -8t38 -17q19 -8 35 -15.5t29 -5.5q23 0 32.5 12t18.5 29h51q-6 -19 -14 -38.5t-20 -35t-28.5 -25.5t-39.5 -10q-17 0 -36.5 7.5t-39.5 17.5t-37 15.5t-28 5.5q-20 0 -30.5 -12t-16.5 -29h-52z" />
    <glyph glyph-name="macron" unicode="&#xaf;" horiz-adv-x="222" 
d="M104 682h269l-11 -55h-270z" />
    <glyph glyph-name="breve" unicode="&#x2d8;" horiz-adv-x="222" 
d="M139 730q1 -46 25 -65t69 -19q49 0 76 19.5t41 64.5h45q-9 -67 -54.5 -103t-111.5 -36q-67 0 -102 35t-33 104h45z" />
    <glyph glyph-name="dotaccent" unicode="&#x2d9;" horiz-adv-x="222" 
d="M196 706h89l-21 -104h-89z" />
    <glyph glyph-name="dieresis" unicode="&#xa8;" horiz-adv-x="222" 
d="M136 706h89l-21 -104h-89zM299 706h89l-21 -104h-89z" />
    <glyph glyph-name="ring" unicode="&#x2da;" horiz-adv-x="222" 
d="M126 680q0 23 9 43.5t24.5 36t36 24.5t43.5 9t43.5 -9t36 -24.5t24.5 -36t9 -43.5t-9 -43.5t-24.5 -36t-36 -24.5t-43.5 -9t-43.5 9t-36 24.5t-24.5 36t-9 43.5zM171 680q0 -29 19.5 -48.5t48.5 -19.5t48.5 19.5t19.5 48.5t-19.5 48.5t-48.5 19.5t-48.5 -19.5
t-19.5 -48.5z" />
    <glyph glyph-name="cedilla" unicode="&#xb8;" horiz-adv-x="222" 
d="M-103 -145q16 -5 31.5 -10t32.5 -5q23 0 41.5 5t18.5 25q0 17 -14.5 24t-31.5 7q-11 0 -21.5 -1.5t-20.5 -6.5l-19 30l68 77h48l-51 -54h2q5 2 12 3t14 1q15 0 31.5 -3.5t29 -12.5t20.5 -23t8 -34q0 -23 -11 -39.5t-28.5 -27t-38.5 -15.5t-41 -5q-49 0 -98 22z" />
    <glyph glyph-name="hungarumlaut" unicode="&#x2dd;" horiz-adv-x="222" 
d="M312 732h113l-136 -143h-70zM146 732h113l-136 -143h-70z" />
    <glyph glyph-name="ogonek" unicode="&#x2db;" horiz-adv-x="222" 
d="M84 0q-20 -13 -34.5 -23t-35.5 -28t-37 -37t-16 -35q0 -37 37 -37q17 0 34.5 4.5t37.5 19.5l37 -12q-29 -35 -57.5 -48.5t-67.5 -13.5q-15 0 -31 3t-29 11t-21 21.5t-8 35.5q0 19 10 38t28 36.5t40.5 34t45.5 30.5h67z" />
    <glyph glyph-name="caron" unicode="&#x2c7;" horiz-adv-x="222" 
d="M268 589h-86l-77 143h76l51 -93l93 93h78z" />
    <glyph glyph-name="emdash" unicode="&#x2014;" horiz-adv-x="1000" 
d="M123 318h740l-16 -80h-740z" />
    <glyph glyph-name="AE" unicode="&#xc6;" horiz-adv-x="926" 
d="M441 714h524l-17 -80h-351l-47 -227h330l-18 -80h-329l-53 -247h357l-16 -80h-455l43 208h-230l-149 -208h-109zM235 288h192l75 346h-22z" />
    <glyph glyph-name="ordfeminine" unicode="&#xaa;" horiz-adv-x="311" 
d="M274 544h-2q-15 -13 -45.5 -15t-60.5 -6t-51.5 -15t-21.5 -41q0 -19 17.5 -28t41.5 -9q55 3 78 19.5t32 49.5zM75 606q7 52 49.5 77.5t97.5 25.5q18 0 40 -4t41.5 -12.5t32.5 -22.5t13 -34q0 -11 -4 -26t-6 -27l-20 -83q-3 -13 -8 -30t-5 -28q0 -8 5.5 -10t11.5 -2
q7 0 15 3l-8 -46q-7 -3 -16.5 -5t-17.5 -2q-23 0 -34.5 13t-9.5 33h-3q-16 -21 -42 -33.5t-55 -12.5q-53 0 -86 20t-33 73q0 26 12.5 43.5t31.5 28.5t42 16t44 7q24 2 47 4.5t40.5 8.5t28 16t10.5 27q0 22 -21.5 28.5t-45.5 6.5q-32 0 -56.5 -12t-30.5 -41h-60z" />
    <glyph glyph-name="Lslash" unicode="&#x141;" 
d="M57 235l-78 -48l17 82l78 48l83 397h95l-69 -330l221 136l-17 -83l-221 -135l-46 -222h377l-17 -80h-473z" />
    <glyph glyph-name="Oslash" unicode="&#xd8;" horiz-adv-x="759" 
d="M181 135q26 -34 66 -53t97 -19q71 0 125 31t90.5 81t55 113t18.5 127q0 72 -27 126zM583 579q-26 34 -64 53t-89 19q-75 0 -130.5 -31.5t-92.5 -81.5t-55.5 -114t-18.5 -128q0 -70 25 -123zM88 106q-24 37 -37 85t-13 105q0 87 27 165.5t77.5 138.5t123 95.5t164.5 35.5
q70 0 124.5 -24.5t92.5 -66.5l98 93l29 -32l-100 -95q26 -40 40 -88.5t14 -102.5q0 -84 -26.5 -162t-76 -138t-121 -96t-160.5 -36q-75 0 -132.5 23t-96.5 65h-3l-95 -93l-29 32z" />
    <glyph glyph-name="OE" unicode="&#x152;" horiz-adv-x="1074" 
d="M1090 634h-379l-48 -227h347l-16 -80h-347l-52 -247h384l-16 -80h-475l13 57h-2q-30 -38 -78.5 -56t-97.5 -18q-70 0 -122.5 25t-88 67.5t-53 100.5t-17.5 124q0 79 26 156.5t75 138.5t118.5 98.5t156.5 37.5q29 0 59 -5.5t57.5 -17t50.5 -30t39 -44.5l16 80h466z
M594 534q4 22 -11 43t-40.5 37.5t-57 26.5t-58.5 10q-72 0 -126.5 -32t-90.5 -83t-54.5 -115.5t-18.5 -128.5q0 -44 11.5 -85t35.5 -73t60 -51.5t84 -19.5q41 0 80.5 14.5t69.5 43.5t41 62.5t19 73.5z" />
    <glyph glyph-name="ordmasculine" unicode="&#xba;" horiz-adv-x="344" 
d="M44 512q0 38 13 73.5t37.5 63t60 44t79.5 16.5q68 0 104.5 -33.5t36.5 -96.5q0 -38 -13 -74t-37 -63.5t-58.5 -44.5t-77.5 -17q-66 0 -106 32.5t-39 99.5zM104 513q0 -35 21 -59t64 -24q29 0 52 12.5t39.5 33t25.5 46.5t9 53q0 35 -20 59.5t-65 24.5q-31 0 -54.5 -13.5
t-39.5 -35t-24 -47.5t-8 -50z" />
    <glyph glyph-name="ae" unicode="&#xe6;" horiz-adv-x="870" 
d="M80 132q0 -19 8 -32t21.5 -21.5t31 -12t35.5 -3.5q35 0 67.5 10t57.5 35q13 13 23 32.5t17.5 41t12.5 43.5t8 41q-19 -9 -41 -14.5t-45.5 -9.5t-47 -7t-45.5 -7t-40.5 -10.5t-32.5 -17.5t-22 -27.5t-8 -40.5zM64 362q7 46 28 77.5t52 51.5t69.5 29t81.5 9q25 0 49.5 -3.5
t46 -13t39.5 -25t30 -39.5q28 39 72.5 60t92.5 21q99 0 149 -53t50 -150q0 -23 -4 -46.5t-10 -46.5h-375q-2 -12 -3.5 -25t-1.5 -27q0 -23 7.5 -44.5t22.5 -38t38.5 -26t55.5 -9.5q57 0 95 25.5t58 73.5h87q-5 -15 -12 -29.5t-16 -28.5q-40 -60 -93 -88t-126 -28
q-30 0 -58 5t-52 18t-42.5 34.5t-29.5 54.5q-34 -57 -85.5 -84.5t-117.5 -27.5q-32 0 -62.5 6.5t-53.5 23t-37 44.5t-14 70t17 70.5t44.5 46.5t63 27.5t72.5 13.5t72 7.5t62.5 12.5t44.5 26t17 49q0 22 -10.5 35.5t-27 21t-36.5 10t-39 2.5q-48 0 -82.5 -23.5t-45.5 -68.5
h-83zM739 308q4 28 -0.5 54.5t-19 47t-38.5 32.5t-60 12q-35 0 -63.5 -12t-50.5 -32.5t-36.5 -47t-21.5 -54.5h290z" />
    <glyph glyph-name="dotlessi" unicode="&#x131;" horiz-adv-x="222" 
d="M-5 0l108 517h85l-108 -517h-85z" />
    <glyph glyph-name="lslash" unicode="&#x142;" horiz-adv-x="222" 
d="M230 714l-53 -232l2 -2l66 52l-10 -78l-74 -57l-81 -397h-85l68 322l-70 -54l10 77l74 57l68 312h85z" />
    <glyph glyph-name="oslash" unicode="&#xf8;" horiz-adv-x="574" 
d="M47 83q-30 49 -30 121q0 63 19.5 122t57 104t91 72t121.5 27q111 0 165 -63l70 63l25 -28l-73 -66q28 -48 28 -120q0 -63 -19 -122t-56 -104.5t-90 -73t-121 -27.5q-110 0 -166 65l-75 -68l-24 28zM408 409q-17 20 -43.5 32.5t-64.5 12.5q-49 0 -86 -24t-62 -60.5
t-37.5 -80.5t-12.5 -84q0 -37 10 -63h1zM130 108q17 -20 45.5 -32.5t68.5 -12.5q46 0 82 24t60.5 60.5t37 79.5t12.5 81t-11 66z" />
    <glyph glyph-name="oe" unicode="&#x153;" horiz-adv-x="907" 
d="M667 454q-36 0 -65 -11.5t-51 -31t-37 -46t-22 -57.5h290q1 8 1.5 14.5t0.5 14.5q0 23 -7 44t-21.5 37.5t-36.5 26t-52 9.5zM102 195q0 -27 8 -51t24 -42t40 -28.5t56 -10.5q53 0 89 29t57.5 71.5t31 91.5t9.5 90q0 54 -34.5 81.5t-85.5 27.5q-48 0 -84 -25.5t-61 -64
t-37.5 -84t-12.5 -85.5zM838 163q-29 -88 -94 -131.5t-156 -43.5q-61 0 -108 21t-71 81q-28 -49 -78 -75.5t-106 -26.5q-97 0 -152.5 49t-55.5 154q0 61 20 121.5t57 108.5t90.5 78t120.5 30q30 0 57 -4.5t49.5 -16t39.5 -31t28 -49.5q28 52 80.5 76.5t109.5 24.5
q101 0 150.5 -56t49.5 -149q0 -9 -1 -21t-2.5 -25t-3.5 -24.5t-4 -20.5h-379q-3 -12 -5 -25.5t-2 -27.5q0 -60 35.5 -88.5t95.5 -28.5q51 0 91 28t57 72h87z" />
    <glyph glyph-name="germandbls" unicode="&#xdf;" horiz-adv-x="537" 
d="M102 504q10 51 26.5 92.5t43.5 71.5t65 46.5t90 16.5q36 0 70 -8t60 -26t41.5 -46.5t15.5 -69.5q0 -36 -11 -67.5t-31 -56.5t-47.5 -40.5t-59.5 -19.5v-2q28 -4 49 -17.5t35 -33t21.5 -44.5t7.5 -52q0 -53 -19 -100t-52 -82.5t-78.5 -56.5t-99.5 -21q-19 0 -37 1t-36 4
l14 72q8 -2 15 -2h15q40 0 75 12t61.5 34.5t41.5 55.5t15 76q0 39 -13 62t-35 35.5t-51 16t-62 2.5l15 70q34 -2 66.5 4.5t58 23.5t41.5 44t16 65q0 23 -9 40t-23 28.5t-31.5 17.5t-34.5 6q-38 0 -63 -14t-41.5 -36.5t-25.5 -51t-15 -57.5l-105 -497h-86z" />
    <glyph glyph-name="divide" unicode="&#xf7;" horiz-adv-x="600" 
d="M236 47q0 26 19 45t45 19t45 -19t19 -45q0 -24 -19 -44t-44 -20q-26 0 -45.5 19t-19.5 45zM236 459q0 26 19 45t45 19t45 -19t19 -45q0 -24 -19 -44t-44 -20q-26 0 -45.5 19t-19.5 45zM48 287h504v-68h-504v68z" />
    <glyph glyph-name="threequarters" unicode="&#xbe;" horiz-adv-x="834" 
d="M634 725h64l-435 -753h-64zM169 527q21 -2 43 0t40 10t29.5 23t11.5 40q0 32 -21.5 43t-52.5 11q-39 0 -63 -21.5t-26 -56.5h-68q3 58 46 95.5t114 37.5q28 0 53.5 -6.5t44.5 -20t30 -34t11 -47.5q0 -35 -25 -62t-63 -36v-2q33 -11 49 -34.5t16 -54.5q0 -25 -11.5 -50
t-33 -44.5t-53.5 -32t-74 -12.5q-79 0 -115.5 37t-33.5 103h68q-1 -18 1.5 -33.5t11.5 -27t25.5 -18t44.5 -6.5q45 0 73.5 21.5t28.5 63.5q0 24 -9.5 37.5t-25 20t-35.5 7t-40 -0.5zM700 332h-2l-178 -181h139zM649 96h-199l11 58l269 275h58l-64 -278h61l-13 -55h-60
l-22 -96h-63z" />
    <glyph glyph-name="onequarter" unicode="&#xbc;" horiz-adv-x="834" 
d="M559 725h64l-435 -753h-64zM196 280h-66l66 325q-29 -10 -55.5 -13.5t-61.5 -3.5l9 50q54 0 94 21t57 50h47zM621 151l41 181h-2l-178 -181h139zM611 96h-199l11 58l269 275h58l-64 -278h61l-13 -55h-60l-22 -96h-63z" />
    <glyph glyph-name="onesuperior" unicode="&#xb9;" horiz-adv-x="333" 
d="M214 280h-66l66 325q-29 -10 -55.5 -13.5t-61.5 -3.5l9 50q54 0 94 21t57 50h47z" />
    <glyph glyph-name="multiply" unicode="&#xd7;" horiz-adv-x="600" 
d="M71 72l182 182l-181 180l48 48l181 -180l180 180l48 -48l-180 -180l181 -182l-48 -48l-181 182l-182 -182z" />
    <glyph glyph-name="registered" unicode="&#xae;" horiz-adv-x="800" 
d="M323 382h71q22 0 43 1.5t37 8.5t25.5 21.5t9.5 40.5q0 22 -8.5 35t-22 20t-31 9.5t-34.5 2.5h-90v-139zM255 576h169q78 0 115.5 -31t37.5 -94q0 -59 -33 -86.5t-82 -32.5l125 -193h-73l-119 188h-72v-188h-68v437zM92 359q0 -69 23.5 -127.5t65 -101.5t98 -67.5
t122.5 -24.5q65 0 121 24.5t97.5 67.5t65 101.5t23.5 127.5q0 67 -23.5 125t-65 100.5t-97.5 67t-121 24.5q-66 0 -122.5 -24.5t-98 -67t-65 -100.5t-23.5 -125zM24 359q0 79 30 147t81.5 118t120 78.5t145.5 28.5q76 0 144.5 -28.5t119.5 -78.5t81 -118t30 -147
q0 -81 -30 -149.5t-81 -119t-119.5 -79t-144.5 -28.5q-77 0 -145.5 28.5t-120 79t-81.5 119t-30 149.5z" />
    <glyph glyph-name="Thorn" unicode="&#xde;" horiz-adv-x="648" 
d="M156 258h215q77 0 117.5 40.5t40.5 104.5q0 33 -9.5 55.5t-25.5 36t-37 19.5t-45 6h-201zM156 714h95l-23 -114h184q103 0 157.5 -49.5t54.5 -147.5q0 -33 -13 -72.5t-44.5 -73.5t-84 -56.5t-131.5 -22.5h-212l-37 -178h-95z" />
    <glyph glyph-name="brokenbar" unicode="&#xa6;" horiz-adv-x="222" 
d="M145 411h-68v250h68v-250zM77 161h68v-250h-68v250z" />
    <glyph glyph-name="Eth" unicode="&#xd0;" horiz-adv-x="704" 
d="M186 407h200l-14 -68h-200l-55 -259h165q76 0 132.5 30.5t94 80t56 112.5t18.5 128q0 39 -8.5 76t-30.5 65t-60.5 45t-97.5 17h-152zM79 339h-66l14 68h66l65 307h250q133 0 201.5 -73t68.5 -200q0 -101 -29 -182.5t-81 -139t-125.5 -88.5t-161.5 -31h-274z" />
    <glyph glyph-name="onehalf" unicode="&#xbd;" horiz-adv-x="834" 
d="M559 725h64l-435 -753h-64zM474 281q7 67 50 107.5t121 40.5q28 0 52.5 -8t42.5 -23t28.5 -36t10.5 -48q0 -25 -8.5 -45.5t-23 -38t-34 -32t-41.5 -26.5l-63 -36q-16 -9 -33.5 -19t-32.5 -20.5t-25 -21t-12 -20.5h231l-10 -55h-296q0 30 7.5 53t23 42.5t38.5 37t55 37.5
l64 40q15 9 31 19t29.5 22t22.5 26.5t9 33.5q0 30 -19 46.5t-53 16.5q-45 0 -70 -26t-27 -67h-68zM196 280h-66l66 325q-29 -10 -55.5 -13.5t-61.5 -3.5l9 50q54 0 94 21t57 50h47z" />
    <glyph glyph-name="minus" unicode="&#x2212;" horiz-adv-x="600" 
d="M48 287h504v-68h-504v68z" />
    <glyph glyph-name="eth" unicode="&#xf0;" horiz-adv-x="574" 
d="M508 696l-108 -55q29 -28 53 -57.5t40.5 -64.5t26 -78t9.5 -99q0 -73 -18.5 -137.5t-55.5 -112.5t-92 -76t-128 -28q-51 0 -91.5 16t-68.5 44.5t-43 67t-15 83.5q0 60 19.5 115.5t57 98t91 68t121.5 25.5q34 0 67 -10.5t62 -42.5h2q-7 23 -20 46.5t-28.5 44t-31.5 36.5
t-29 25l-114 -57l-42 40l113 56q-14 11 -28 21t-31 21l64 45q17 -11 34 -22.5t35 -27.5l105 53zM300 431q-49 0 -86 -22.5t-62 -56.5t-37.5 -74.5t-12.5 -77.5q0 -60 36 -98.5t106 -38.5q46 0 82.5 23t61.5 58.5t38 77t13 77.5q0 57 -34.5 94.5t-104.5 37.5z" />
    <glyph glyph-name="plusminus" unicode="&#xb1;" horiz-adv-x="600" 
d="M48 68h504v-68h-504v68zM48 339h218v166h68v-166h218v-68h-218v-167h-68v167h-218v68z" />
    <glyph glyph-name="thorn" unicode="&#xfe;" horiz-adv-x="593" 
d="M142 714h85l-63 -271h2q38 50 78.5 68t92.5 18q49 0 87 -15.5t64 -43.5t39 -67t13 -86q0 -59 -19.5 -117.5t-56 -105.5t-90 -76.5t-121.5 -29.5q-24 0 -49 4.5t-47.5 15t-40 28t-24.5 43.5h-2l-55 -277h-84zM455 317q0 63 -31.5 100t-101.5 37q-48 0 -86 -25t-63.5 -63
t-39 -83.5t-13.5 -85.5q0 -58 33.5 -96t96.5 -38q51 0 89 23.5t64 60.5t39 82t13 88z" />
    <glyph glyph-name="copyright" unicode="&#xa9;" horiz-adv-x="800" 
d="M599 285q-16 -73 -66.5 -115t-119.5 -42q-51 0 -92 17.5t-70 48t-44.5 72.5t-15.5 91q0 50 15 92t43 72t69 47t92 17q36 0 67.5 -9.5t56.5 -29t41.5 -48t22.5 -65.5h-63q-8 42 -41 69.5t-83 27.5q-37 0 -65.5 -13t-47.5 -36.5t-29 -54.5t-10 -67q0 -35 10.5 -67t30.5 -56
t48.5 -38.5t64.5 -14.5q50 0 82.5 28.5t39.5 73.5h64zM92 359q0 -69 23.5 -127.5t65 -101.5t98 -67.5t122.5 -24.5q65 0 121 24.5t97.5 67.5t65 101.5t23.5 127.5q0 67 -23.5 124.5t-65 100.5t-97.5 67.5t-121 24.5q-66 0 -122.5 -24.5t-98 -67.5t-65 -100.5t-23.5 -124.5z
M24 359q0 79 30 147t81.5 118t120 78.5t145.5 28.5q76 0 144.5 -28.5t119.5 -78.5t81 -118t30 -147q0 -81 -30 -149.5t-81 -119t-119.5 -79t-144.5 -28.5q-77 0 -145.5 28.5t-120 79t-81.5 119t-30 149.5z" />
    <glyph glyph-name="logicalnot" unicode="&#xac;" horiz-adv-x="600" 
d="M552 109h-68v211h-436v68h504v-279z" />
    <glyph glyph-name="twosuperior" unicode="&#xb2;" horiz-adv-x="333" 
d="M55 561q7 67 50 107.5t121 40.5q28 0 52.5 -8t42.5 -23t28.5 -36t10.5 -48q0 -25 -8.5 -45.5t-23 -38t-34 -32t-41.5 -26.5l-63 -36q-16 -9 -33.5 -19t-32.5 -20.5t-25 -21t-12 -20.5h231l-10 -55h-296q0 30 7.5 53t23 42.5t38.5 37t55 37.5l64 40q15 9 31 19t29.5 22
t22.5 26.5t9 33.5q0 30 -19 46.5t-53 16.5q-45 -2 -70 -27t-27 -66h-68z" />
    <glyph glyph-name="threesuperior" unicode="&#xb3;" horiz-adv-x="333" 
d="M169 527q21 -2 43 0t40 10t29.5 23t11.5 40q0 32 -21.5 43t-52.5 11q-39 0 -63 -21.5t-26 -56.5h-68q3 58 46 95.5t114 37.5q28 0 53.5 -6.5t44.5 -20t30 -34t11 -47.5q0 -35 -25 -62t-63 -36v-2q33 -11 49 -34.5t16 -54.5q0 -25 -11.5 -50t-33 -44.5t-53.5 -32
t-74 -12.5q-79 0 -115.5 37t-33.5 103h68q-1 -18 1.5 -33.5t11.5 -27t25.5 -18t44.5 -6.5q45 0 73.5 21.5t28.5 63.5q0 24 -9.5 37.5t-25 20t-35.5 7t-40 -0.5z" />
    <glyph glyph-name="trademark" unicode="&#x2122;" horiz-adv-x="990" 
d="M926 302h-68v344h-2l-135 -344h-43l-135 344h-2v-344h-68v412h105l123 -313l121 313h104v-412zM390 659h-129v-357h-68v357h-129v55h326v-55z" />
    <glyph glyph-name="degree" unicode="&#xb0;" horiz-adv-x="400" 
d="M127 561q0 -42 28 -70t70 -28t70 28t28 70t-28 70t-70 28t-70 -28t-28 -70zM77 561q0 31 11.5 58t31.5 47t47 31.5t58 11.5t58 -11.5t47 -31.5t31.5 -47t11.5 -58t-11.5 -58t-31.5 -47t-47 -31.5t-58 -11.5t-58 11.5t-47 31.5t-31.5 47t-11.5 58z" />
    <glyph glyph-name="mu" unicode="&#xb5;" 
d="M411 0h-82l16 78h-2q-32 -44 -80 -67t-92 -23q-35 0 -60 13t-33 25h-2l-47 -224h-85l149 715h85l-66 -302q-2 -7 -4 -18t-3.5 -22.5t-3 -22t-1.5 -17.5q0 -37 26 -54.5t64 -17.5q35 0 66 14t55 37.5t40.5 54t23.5 62.5l60 286h85z" />
    <glyph glyph-name="dollar" unicode="$" 
d="M172 -12q-95 16 -141 79.5t-41 166.5h90q-8 -145 108 -169l54 269q-36 11 -68 25t-56.5 35t-38.5 51t-14 74q0 51 21.5 92.5t57.5 69.5t82 41.5t96 8.5l13 63h53l-14 -69q36 -10 66.5 -28.5t52.5 -46t34 -64.5t9 -83h-90q2 64 -21 99t-66 49l-49 -246l54 -19
q75 -21 113.5 -66t38.5 -114q0 -60 -27 -105t-69.5 -73.5t-94.5 -40t-101 -4.5l-17 -80h-53zM239 58q19 -5 51 0.5t62 22t52 45t22 71.5q0 35 -11 56t-29.5 33.5t-42.5 19.5t-50 16zM307 656q-23 0 -49.5 -6t-49 -20.5t-38 -39t-15.5 -61.5q0 -41 27.5 -67t63.5 -38l13 -6z
" />
    <glyph glyph-name="Euro" unicode="&#x20ac;" 
d="M544 585q-31 26 -64 41t-75 15q-44 0 -79 -15.5t-62.5 -42t-47.5 -61t-34 -72.5h325l-34 -59h-308l-9 -57h299l-34 -59h-267q2 -45 12.5 -84t32.5 -68t56.5 -46t84.5 -17q56 0 98.5 21t86.5 52l-21 -101q-43 -25 -83.5 -37t-91.5 -12q-65 0 -113 23t-79.5 62.5t-47.5 93
t-17 113.5h-78l33 59h47l8 57h-67l33 59h48q16 55 44 104t67.5 86t90 58.5t111.5 21.5q51 0 93 -15t84 -45z" />
    <glyph glyph-name="notequal" unicode="&#x2260;" horiz-adv-x="593" 
d="M235 114l-76 -146l-62 32l59 114h-141v72h178l67 127h-245v71h283l77 148l63 -32l-62 -116h146v-71h-183l-67 -127h250v-72h-287z" />
    <glyph glyph-name="infinity" unicode="&#x221e;" horiz-adv-x="759" 
d="M305 251q-14 13 -31.5 28.5t-37 29t-40.5 23t-41 9.5q-38 0 -59 -27t-21 -62q0 -38 22 -62t61 -24q20 0 40.5 8t39.5 21t36 27.5t31 28.5zM621 252q0 38 -21.5 64t-61.5 26q-21 0 -41 -9t-39 -23t-36 -30t-31 -29q16 -15 32.5 -30t35 -27t39 -20t43.5 -8q38 0 59 25
t21 61zM686 255q0 -33 -10 -61.5t-29 -50t-46.5 -33.5t-61.5 -12q-29 0 -55 9.5t-49.5 25.5t-45 35t-40.5 39q-21 -19 -42 -38.5t-44 -35t-49 -25t-56 -9.5q-33 0 -60.5 11.5t-47 32t-30 48.5t-10.5 61q0 32 10 60.5t28.5 49.5t45.5 33.5t61 12.5q30 0 57 -10t50.5 -26.5
t45 -37t41.5 -40.5l40.5 40.5t43.5 37.5t49 27.5t56 10.5q34 0 61 -12t46.5 -33t30 -49t10.5 -61z" />
    <glyph glyph-name="lessequal" unicode="&#x2264;" horiz-adv-x="593" 
d="M15 -30v72h507v-72h-507zM15 266v75l507 187v-78l-408 -146l408 -145v-77z" />
    <glyph glyph-name="greaterequal" unicode="&#x2265;" horiz-adv-x="593" 
d="M15 -30v72h507v-72h-507zM15 82v77l408 145l-408 146v78l507 -187v-75z" />
    <glyph glyph-name="partialdiff" unicode="&#x2202;" horiz-adv-x="511" 
d="M369 280q-26 35 -64 60t-83 25q-33 0 -58.5 -13t-42 -34.5t-25 -49.5t-8.5 -58q0 -29 8 -58t24.5 -52t41 -37.5t57.5 -14.5q42 0 70.5 23.5t46 59t25.5 76t8 73.5zM450 362q0 -38 -3.5 -80.5t-13 -84.5t-26 -79.5t-42 -66.5t-62.5 -46t-86 -17q-47 0 -85 18.5t-64.5 49
t-40.5 71.5t-14 86q0 44 13.5 83t39.5 68t62.5 46t83.5 17t89 -20.5t72 -55.5q0 11 0.5 22.5t0.5 22.5q0 40 -8.5 86t-28.5 85t-53 65t-83 26q-34 0 -61 -13.5t-53 -33.5l-41 50q33 29 70.5 44.5t82.5 15.5q73 0 121.5 -33.5t77.5 -85.5t40.5 -116t11.5 -124z" />
    <glyph glyph-name="summation" unicode="&#x2211;" horiz-adv-x="615" 
d="M25 -214v64l322 440l-308 432v64h538v-72h-437l301 -424l-319 -432h467v-72h-564z" />
    <glyph glyph-name="product" unicode="&#x220f;" horiz-adv-x="719" 
d="M572 -214v928h-426v-928h-78v1000h582v-1000h-78z" />
    <glyph glyph-name="pi" unicode="&#x3c0;" horiz-adv-x="570" 
d="M553 410h-78l-60 -284q-2 -11 -4.5 -22.5t-2.5 -22.5q0 -14 9 -18.5t21 -4.5q11 0 22.5 3t22.5 7l-12 -57q-17 -8 -34 -12.5t-36 -4.5q-27 0 -50 12.5t-23 44.5q0 16 3 32t6 31l63 296h-241l-87 -410h-75l87 410h-73l15 69h541z" />
    <glyph glyph-name="integral" unicode="&#x222b;" horiz-adv-x="554" 
d="M420 730q0 -18 -12.5 -28t-29.5 -10q-12 0 -20 6.5t-14 15t-10.5 15t-10.5 6.5q-15 0 -22 -20t-9 -44.5t-1 -47.5t1 -29l1 -39v-512q0 -34 -1 -78.5t-12.5 -84t-37.5 -66.5t-75 -27q-11 0 -23.5 3t-22.5 9.5t-16.5 16t-6.5 23.5q0 15 11.5 25.5t25.5 10.5q12 0 19.5 -6.5
t13 -14.5t10 -14.5t9.5 -6.5q13 0 19 22t8 49t1.5 51t-0.5 29v22v495q0 24 -1 54t0.5 62t7.5 62t20 54t37.5 38.5t60.5 14.5q13 0 27 -3t26 -9.5t19.5 -17.5t7.5 -26z" />
    <glyph glyph-name="Omega" unicode="&#x2126;" horiz-adv-x="748" 
d="M700 452q0 -59 -17.5 -111.5t-50.5 -94t-80 -69.5t-106 -38l-16 -75l194 -1l-14 -63h-256l40 185q52 7 94 29.5t71 57t45 79.5t16 98q0 47 -14.5 84t-41.5 63t-65 40t-84 14q-60 0 -112.5 -25t-90.5 -66t-60 -95.5t-22 -112.5q0 -32 8.5 -60.5t25.5 -51t42.5 -37
t59.5 -17.5l-39 -185h-249l14 63h184l17 80q-36 11 -62.5 31.5t-44.5 48.5t-27 61t-9 69q0 74 29.5 141t80 117.5t117 80t140.5 29.5q60 0 112 -19t90 -54t59.5 -84.5t21.5 -111.5z" />
    <glyph glyph-name="radical" unicode="&#x221a;" horiz-adv-x="504" 
d="M274 -214h-75l-162 334l-47 -22l-28 60l112 52l151 -317l184 893h76z" />
    <glyph glyph-name="approxequal" unicode="&#x2248;" horiz-adv-x="593" 
d="M532 234q-3 -28 -11.5 -54t-24 -46.5t-38.5 -32.5t-55 -12t-69 11t-74 24.5t-70.5 25t-58.5 11.5q-32 0 -51.5 -24.5t-23.5 -53.5h-52q4 27 12.5 53.5t24 47.5t38 34t54.5 13q33 0 68.5 -11t71.5 -24.5t70 -24.5t64 -11q34 0 51.5 22t23.5 52h50v0zM533 415
q-3 -28 -11.5 -54.5t-24.5 -46.5t-39 -32.5t-55 -12.5q-33 0 -69.5 11t-73 24.5t-70 24.5t-58.5 11q-32 0 -51 -24t-24 -53h-52q3 27 12 53.5t24 47.5t38 34t55 13t68 -11t72 -24.5t70 -24.5t64 -11q34 0 51.5 22.5t23.5 52.5h50v0z" />
    <glyph glyph-name="Delta" unicode="&#x2206;" horiz-adv-x="674" 
d="M393 625l-331 -553h430zM-64 0l430 712h83l135 -712h-648z" />
    <glyph glyph-name="lozenge" unicode="&#x25ca;" horiz-adv-x="593" 
d="M296 671l-131 -315l131 -315l132 315zM332 -35h-72l-171 391l171 391h72l172 -391z" />
    <glyph glyph-name="Agrave" unicode="&#xc0;" horiz-adv-x="667" 
d="M375 714h104l129 -714h-98l-33 215h-301l-125 -215h-106zM219 295h246l-53 335h-2zM478 779h-67l-101 143h101z" />
    <glyph glyph-name="Aacute" unicode="&#xc1;" horiz-adv-x="667" 
d="M375 714h104l129 -714h-98l-33 215h-301l-125 -215h-106zM219 295h246l-53 335h-2zM471 922h113l-136 -143h-70z" />
    <glyph glyph-name="Acircumflex" unicode="&#xc2;" horiz-adv-x="667" 
d="M375 714h104l129 -714h-98l-33 215h-301l-125 -215h-106zM219 295h246l-53 335h-2zM415 922h86l75 -143h-74l-51 93l-87 -93h-82z" />
    <glyph glyph-name="Atilde" unicode="&#xc3;" horiz-adv-x="667" 
d="M375 714h104l129 -714h-98l-33 215h-301l-125 -215h-106zM219 295h246l-53 335h-2zM257 798q6 18 14 37t19.5 35t27.5 26.5t38 10.5q20 0 39 -8t38 -17q19 -8 35 -15.5t29 -5.5q23 0 32.5 12t18.5 29h51q-6 -19 -14 -38.5t-20 -35t-28.5 -25.5t-39.5 -10q-17 0 -36.5 7.5
t-39.5 17.5t-37 15.5t-28 5.5q-20 0 -30.5 -12t-16.5 -29h-52z" />
    <glyph glyph-name="Adieresis" unicode="&#xc4;" horiz-adv-x="667" 
d="M375 714h104l129 -714h-98l-33 215h-301l-125 -215h-106zM219 295h246l-53 335h-2zM339 896h89l-21 -104h-89zM502 896h89l-21 -104h-89z" />
    <glyph glyph-name="Amacron" unicode="&#x100;" horiz-adv-x="667" 
d="M375 714h104l129 -714h-98l-33 215h-301l-125 -215h-106zM219 295h246l-53 335h-2zM309 872h269l-11 -55h-270z" />
    <glyph glyph-name="Abreve" unicode="&#x102;" horiz-adv-x="667" 
d="M375 714h104l129 -714h-98l-33 215h-301l-125 -215h-106zM219 295h246l-53 335h-2zM338 920q1 -46 25 -65t69 -19q49 0 76 19.5t41 64.5h45q-9 -67 -54.5 -103t-111.5 -36q-67 0 -102 35t-33 104h45z" />
    <glyph glyph-name="Aring" unicode="&#xc5;" horiz-adv-x="667" 
d="M375 714h104l129 -714h-98l-33 215h-301l-125 -215h-106zM219 295h246l-53 335h-2zM326 860q0 23 9 43.5t24.5 36t36 24.5t43.5 9t43.5 -9t36 -24.5t24.5 -36t9 -43.5t-9 -43.5t-24.5 -36t-36 -24.5t-43.5 -9t-43.5 9t-36 24.5t-24.5 36t-9 43.5zM371 860
q0 -29 19.5 -48.5t48.5 -19.5t48.5 19.5t19.5 48.5t-19.5 48.5t-48.5 19.5t-48.5 -19.5t-19.5 -48.5z" />
    <glyph glyph-name="Aogonek" unicode="&#x104;" horiz-adv-x="667" 
d="M577 0q-20 -13 -34.5 -23t-35.5 -28t-37 -37t-16 -35q0 -37 37 -37q17 0 34.5 4.5t37.5 19.5l37 -12q-29 -35 -57.5 -48.5t-67.5 -13.5q-15 0 -31 3t-29 11t-21 21.5t-8 35.5q0 19 10 38t28 36.5t40.5 34t45.5 30.5l-33 215h-301l-125 -215h-106l430 714h104l129 -714
h-31zM219 295h246l-53 335h-2z" />
    <glyph glyph-name="Cacute" unicode="&#x106;" horiz-adv-x="722" 
d="M660 241q-27 -120 -105.5 -189t-210.5 -69q-73 0 -130 21t-96 61.5t-59.5 98.5t-20.5 132q0 87 27 165.5t77.5 138.5t123 95.5t164.5 35.5q58 0 107.5 -15.5t86 -46t57.5 -77t21 -108.5h-95q0 84 -49.5 125.5t-127.5 41.5q-75 0 -130.5 -31.5t-92.5 -81.5t-55.5 -114
t-18.5 -128q0 -52 13 -95t39 -73.5t65.5 -47.5t93.5 -17q88 0 143 47t78 131h95zM504 922h113l-136 -143h-70z" />
    <glyph glyph-name="Ccircumflex" unicode="&#x108;" horiz-adv-x="722" 
d="M660 241q-27 -120 -105.5 -189t-210.5 -69q-73 0 -130 21t-96 61.5t-59.5 98.5t-20.5 132q0 87 27 165.5t77.5 138.5t123 95.5t164.5 35.5q58 0 107.5 -15.5t86 -46t57.5 -77t21 -108.5h-95q0 84 -49.5 125.5t-127.5 41.5q-75 0 -130.5 -31.5t-92.5 -81.5t-55.5 -114
t-18.5 -128q0 -52 13 -95t39 -73.5t65.5 -47.5t93.5 -17q88 0 143 47t78 131h95zM434 922h86l75 -143h-74l-51 93l-87 -93h-82z" />
    <glyph glyph-name="Ccaron" unicode="&#x10c;" horiz-adv-x="722" 
d="M660 241q-27 -120 -105.5 -189t-210.5 -69q-73 0 -130 21t-96 61.5t-59.5 98.5t-20.5 132q0 87 27 165.5t77.5 138.5t123 95.5t164.5 35.5q58 0 107.5 -15.5t86 -46t57.5 -77t21 -108.5h-95q0 84 -49.5 125.5t-127.5 41.5q-75 0 -130.5 -31.5t-92.5 -81.5t-55.5 -114
t-18.5 -128q0 -52 13 -95t39 -73.5t65.5 -47.5t93.5 -17q88 0 143 47t78 131h95zM487 779h-86l-77 143h76l51 -93l93 93h78z" />
    <glyph glyph-name="Cdotaccent" unicode="&#x10a;" horiz-adv-x="722" 
d="M660 241q-27 -120 -105.5 -189t-210.5 -69q-73 0 -130 21t-96 61.5t-59.5 98.5t-20.5 132q0 87 27 165.5t77.5 138.5t123 95.5t164.5 35.5q58 0 107.5 -15.5t86 -46t57.5 -77t21 -108.5h-95q0 84 -49.5 125.5t-127.5 41.5q-75 0 -130.5 -31.5t-92.5 -81.5t-55.5 -114
t-18.5 -128q0 -52 13 -95t39 -73.5t65.5 -47.5t93.5 -17q88 0 143 47t78 131h95zM416 896h89l-21 -104h-89z" />
    <glyph glyph-name="Ccedilla" unicode="&#xc7;" horiz-adv-x="722" 
d="M201 -145q16 -5 31.5 -10t32.5 -5q23 0 41.5 5t18.5 25q0 17 -14.5 24t-31.5 7q-11 0 -21.5 -1.5t-20.5 -6.5l-19 30l57 65q-32 6 -61 16q-57 21 -96 61.5t-59.5 98.5t-20.5 132q0 87 27 165.5t77.5 138.5t123 95.5t164.5 35.5q58 0 107.5 -15.5t86 -46t57.5 -77
t21 -108.5h-95q0 84 -49.5 125.5t-127.5 41.5q-75 0 -130.5 -31.5t-92.5 -81.5t-55.5 -114t-18.5 -128q0 -52 13 -95t39 -73.5t65.5 -47.5t93.5 -17q88 0 143 47t78 131h95q-27 -120 -105.5 -189t-210.5 -69q-13 0 -26 1l-35 -38h2q5 2 12 3t14 1q15 0 31.5 -3.5t29 -12.5
t20.5 -23t8 -34q0 -23 -11 -39.5t-28.5 -27t-38.5 -15.5t-41 -5q-49 0 -98 22z" />
    <glyph glyph-name="Dcaron" unicode="&#x10e;" horiz-adv-x="704" 
d="M117 80h165q76 0 132.5 30.5t94 80t56 112.5t18.5 128q0 39 -8.5 76t-30.5 65t-60.5 45t-97.5 17h-152zM158 714h250q133 0 201.5 -73t68.5 -200q0 -101 -29 -182.5t-81 -139t-125.5 -88.5t-161.5 -31h-274zM429 779h-86l-77 143h76l51 -93l93 93h78z" />
    <glyph glyph-name="Egrave" unicode="&#xc8;" horiz-adv-x="611" 
d="M158 714h492l-16 -80h-397l-48 -227h370l-16 -80h-371l-52 -247h402l-18 -80h-497zM478 779h-67l-101 143h101z" />
    <glyph glyph-name="Eacute" unicode="&#xc9;" horiz-adv-x="611" 
d="M158 714h492l-16 -80h-397l-48 -227h370l-16 -80h-371l-52 -247h402l-18 -80h-497zM465 922h113l-136 -143h-70z" />
    <glyph glyph-name="Ecircumflex" unicode="&#xca;" horiz-adv-x="611" 
d="M158 714h492l-16 -80h-397l-48 -227h370l-16 -80h-371l-52 -247h402l-18 -80h-497zM393 922h86l75 -143h-74l-51 93l-87 -93h-82z" />
    <glyph glyph-name="Ecaron" unicode="&#x11a;" horiz-adv-x="611" 
d="M158 714h492l-16 -80h-397l-48 -227h370l-16 -80h-371l-52 -247h402l-18 -80h-497zM450 779h-86l-77 143h76l51 -93l93 93h78z" />
    <glyph glyph-name="Edieresis" unicode="&#xcb;" horiz-adv-x="611" 
d="M158 714h492l-16 -80h-397l-48 -227h370l-16 -80h-371l-52 -247h402l-18 -80h-497zM305 896h89l-21 -104h-89zM468 896h89l-21 -104h-89z" />
    <glyph glyph-name="Emacron" unicode="&#x112;" horiz-adv-x="611" 
d="M158 714h492l-16 -80h-397l-48 -227h370l-16 -80h-371l-52 -247h402l-18 -80h-497zM289 872h269l-11 -55h-270z" />
    <glyph glyph-name="Ebreve" unicode="&#x114;" horiz-adv-x="611" 
d="M158 714h492l-16 -80h-397l-48 -227h370l-16 -80h-371l-52 -247h402l-18 -80h-497zM320 920q1 -46 25 -65t69 -19q49 0 76 19.5t41 64.5h45q-9 -67 -54.5 -103t-111.5 -36q-67 0 -102 35t-33 104h45z" />
    <glyph glyph-name="Edotaccent" unicode="&#x116;" horiz-adv-x="611" 
d="M158 714h492l-16 -80h-397l-48 -227h370l-16 -80h-371l-52 -247h402l-18 -80h-497zM391 896h89l-21 -104h-89z" />
    <glyph glyph-name="Eogonek" unicode="&#x118;" horiz-adv-x="611" 
d="M452 0q-20 -13 -34.5 -23t-35.5 -28t-37 -37t-16 -35q0 -37 37 -37q17 0 34.5 4.5t37.5 19.5l37 -12q-29 -35 -57.5 -48.5t-67.5 -13.5q-15 0 -31 3t-29 11t-21 21.5t-8 35.5q0 19 10 38t28 36.5t40.5 34t45.5 30.5h-378l151 714h492l-16 -80h-397l-48 -227h370l-16 -80
h-371l-52 -247h402l-18 -80h-52z" />
    <glyph glyph-name="Gcircumflex" unicode="&#x11c;" horiz-adv-x="759" 
d="M557 71q-41 -45 -98 -66.5t-115 -21.5q-73 0 -130 21t-96 61.5t-59.5 98.5t-20.5 132q0 87 27 165.5t77.5 138.5t123 95.5t164.5 35.5q59 0 111.5 -14t91.5 -43.5t61.5 -74.5t22.5 -107h-95q0 41 -15.5 71t-41.5 49.5t-61 29t-74 9.5q-75 0 -130.5 -31.5t-92.5 -81.5
t-55.5 -114t-18.5 -128q0 -52 13 -95t39 -73.5t65.5 -47.5t93.5 -17q57 0 99.5 17t73.5 47.5t51.5 73.5t33.5 95h-228l16 80h311l-78 -376h-60zM439 922h86l75 -143h-74l-51 93l-87 -93h-82z" />
    <glyph glyph-name="Gbreve" unicode="&#x11e;" horiz-adv-x="759" 
d="M557 71q-41 -45 -98 -66.5t-115 -21.5q-73 0 -130 21t-96 61.5t-59.5 98.5t-20.5 132q0 87 27 165.5t77.5 138.5t123 95.5t164.5 35.5q59 0 111.5 -14t91.5 -43.5t61.5 -74.5t22.5 -107h-95q0 41 -15.5 71t-41.5 49.5t-61 29t-74 9.5q-75 0 -130.5 -31.5t-92.5 -81.5
t-55.5 -114t-18.5 -128q0 -52 13 -95t39 -73.5t65.5 -47.5t93.5 -17q57 0 99.5 17t73.5 47.5t51.5 73.5t33.5 95h-228l16 80h311l-78 -376h-60zM354 920q1 -46 25 -65t69 -19q49 0 76 19.5t41 64.5h45q-9 -67 -54.5 -103t-111.5 -36q-67 0 -102 35t-33 104h45z" />
    <glyph glyph-name="Gdotaccent" unicode="&#x120;" horiz-adv-x="759" 
d="M557 71q-41 -45 -98 -66.5t-115 -21.5q-73 0 -130 21t-96 61.5t-59.5 98.5t-20.5 132q0 87 27 165.5t77.5 138.5t123 95.5t164.5 35.5q59 0 111.5 -14t91.5 -43.5t61.5 -74.5t22.5 -107h-95q0 41 -15.5 71t-41.5 49.5t-61 29t-74 9.5q-75 0 -130.5 -31.5t-92.5 -81.5
t-55.5 -114t-18.5 -128q0 -52 13 -95t39 -73.5t65.5 -47.5t93.5 -17q57 0 99.5 17t73.5 47.5t51.5 73.5t33.5 95h-228l16 80h311l-78 -376h-60zM417 896h89l-21 -104h-89z" />
    <glyph glyph-name="Hcircumflex" unicode="&#x124;" horiz-adv-x="722" 
d="M157 714h96l-65 -307h374l64 307h95l-150 -714h-95l69 327h-374l-69 -327h-95zM428 922h86l75 -143h-74l-51 93l-87 -93h-82z" />
    <glyph glyph-name="Hbar" unicode="&#x126;" horiz-adv-x="722" 
d="M157 714h96l-42 -197h374l41 197h95l-150 -714h-95l67 316h-374l-67 -316h-95zM560 396l13 66h-373l-14 -66h374z" />
    <glyph glyph-name="Igrave" unicode="&#xcc;" horiz-adv-x="259" 
d="M157 714h95l-150 -714h-95zM257 779h-67l-101 143h101z" />
    <glyph glyph-name="Iacute" unicode="&#xcd;" horiz-adv-x="259" 
d="M157 714h95l-150 -714h-95zM250 922h113l-136 -143h-70z" />
    <glyph glyph-name="Icircumflex" unicode="&#xce;" horiz-adv-x="259" 
d="M157 714h95l-150 -714h-95zM202 922h86l75 -143h-74l-51 93l-87 -93h-82z" />
    <glyph glyph-name="Itilde" unicode="&#x128;" horiz-adv-x="259" 
d="M157 714h95l-150 -714h-95zM56 798q6 18 14 37t19.5 35t27.5 26.5t38 10.5q20 0 39 -8t38 -17q19 -8 35 -15.5t29 -5.5q23 0 32.5 12t18.5 29h51q-6 -19 -14 -38.5t-20 -35t-28.5 -25.5t-39.5 -10q-17 0 -36.5 7.5t-39.5 17.5t-37 15.5t-28 5.5q-20 0 -30.5 -12
t-16.5 -29h-52z" />
    <glyph glyph-name="Idieresis" unicode="&#xcf;" horiz-adv-x="259" 
d="M157 714h95l-150 -714h-95zM115 896h89l-21 -104h-89zM278 896h89l-21 -104h-89z" />
    <glyph glyph-name="Imacron" unicode="&#x12a;" horiz-adv-x="259" 
d="M157 714h95l-150 -714h-95zM98 872h269l-11 -55h-270z" />
    <glyph glyph-name="Idotaccent" unicode="&#x130;" horiz-adv-x="259" 
d="M157 714h95l-150 -714h-95zM196 896h89l-21 -104h-89z" />
    <glyph glyph-name="Iogonek" unicode="&#x12e;" horiz-adv-x="259" 
d="M102 0q-18 -13 -31.5 -23t-32 -28t-33 -37t-14.5 -35q0 -37 33 -37q15 0 31 4.5t34 19.5l33 -12q-26 -35 -51.5 -48.5t-60.5 -13.5q-14 0 -28.5 3t-26 11t-18.5 21.5t-7 35.5q0 19 9 38t25 36.5t36.5 34t40.5 30.5h-34l150 714h95z" />
    <glyph glyph-name="Jcircumflex" unicode="&#x134;" horiz-adv-x="519" 
d="M412 176q-10 -46 -26 -82t-42 -60.5t-63.5 -37.5t-91.5 -13q-43 0 -79.5 10t-62.5 29t-41 47.5t-15 65.5q0 18 2 44t7 55h96q-4 -18 -6.5 -36.5t-3.5 -37.5q0 -51 28 -74t77 -23q36 0 59.5 14.5t38.5 37.5t23.5 52t14.5 58l104 489h94zM468 922h86l75 -143h-74l-51 93
l-87 -93h-82z" />
    <glyph glyph-name="Lacute" unicode="&#x139;" 
d="M157 714h95l-132 -634h377l-17 -80h-473zM270 922h113l-136 -143h-70z" />
    <glyph glyph-name="Nacute" unicode="&#x143;" horiz-adv-x="722" 
d="M158 714h102l255 -591h2l119 591h92l-151 -714h-102l-253 587h-2l-121 -587h-92zM500 922h113l-136 -143h-70z" />
    <glyph glyph-name="Ncaron" unicode="&#x147;" horiz-adv-x="722" 
d="M158 714h102l255 -591h2l119 591h92l-151 -714h-102l-253 587h-2l-121 -587h-92zM485 779h-86l-77 143h76l51 -93l93 93h78z" />
    <glyph glyph-name="Ntilde" unicode="&#xd1;" horiz-adv-x="722" 
d="M158 714h102l255 -591h2l119 591h92l-151 -714h-102l-253 587h-2l-121 -587h-92zM290 798q6 18 14 37t19.5 35t27.5 26.5t38 10.5q20 0 39 -8t38 -17q19 -8 35 -15.5t29 -5.5q23 0 32.5 12t18.5 29h51q-6 -19 -14 -38.5t-20 -35t-28.5 -25.5t-39.5 -10q-17 0 -36.5 7.5
t-39.5 17.5t-37 15.5t-28 5.5q-20 0 -30.5 -12t-16.5 -29h-52z" />
    <glyph glyph-name="Ograve" unicode="&#xd2;" horiz-adv-x="759" 
d="M133 296q0 -52 13 -95t39 -73.5t65.5 -47.5t93.5 -17q71 0 125 31t90.5 81t55 113t18.5 127q0 49 -13 92.5t-39 75t-64 50t-87 18.5q-75 0 -130.5 -31.5t-92.5 -81.5t-55.5 -114t-18.5 -128zM38 296q0 87 27 165.5t77.5 138.5t123 95.5t164.5 35.5q69 0 124.5 -24.5
t94 -67t59 -100.5t20.5 -124q0 -84 -26.5 -162t-76 -138t-121 -96t-160.5 -36q-73 0 -130 21t-96 61.5t-59.5 98.5t-20.5 132zM494 779h-67l-101 143h101z" />
    <glyph glyph-name="Oacute" unicode="&#xd3;" horiz-adv-x="759" 
d="M133 296q0 -52 13 -95t39 -73.5t65.5 -47.5t93.5 -17q71 0 125 31t90.5 81t55 113t18.5 127q0 49 -13 92.5t-39 75t-64 50t-87 18.5q-75 0 -130.5 -31.5t-92.5 -81.5t-55.5 -114t-18.5 -128zM38 296q0 87 27 165.5t77.5 138.5t123 95.5t164.5 35.5q69 0 124.5 -24.5
t94 -67t59 -100.5t20.5 -124q0 -84 -26.5 -162t-76 -138t-121 -96t-160.5 -36q-73 0 -130 21t-96 61.5t-59.5 98.5t-20.5 132zM486 922h113l-136 -143h-70z" />
    <glyph glyph-name="Ocircumflex" unicode="&#xd4;" horiz-adv-x="759" 
d="M133 296q0 -52 13 -95t39 -73.5t65.5 -47.5t93.5 -17q71 0 125 31t90.5 81t55 113t18.5 127q0 49 -13 92.5t-39 75t-64 50t-87 18.5q-75 0 -130.5 -31.5t-92.5 -81.5t-55.5 -114t-18.5 -128zM38 296q0 87 27 165.5t77.5 138.5t123 95.5t164.5 35.5q69 0 124.5 -24.5
t94 -67t59 -100.5t20.5 -124q0 -84 -26.5 -162t-76 -138t-121 -96t-160.5 -36q-73 0 -130 21t-96 61.5t-59.5 98.5t-20.5 132zM445 922h86l75 -143h-74l-51 93l-87 -93h-82z" />
    <glyph glyph-name="Otilde" unicode="&#xd5;" horiz-adv-x="759" 
d="M133 296q0 -52 13 -95t39 -73.5t65.5 -47.5t93.5 -17q71 0 125 31t90.5 81t55 113t18.5 127q0 49 -13 92.5t-39 75t-64 50t-87 18.5q-75 0 -130.5 -31.5t-92.5 -81.5t-55.5 -114t-18.5 -128zM38 296q0 87 27 165.5t77.5 138.5t123 95.5t164.5 35.5q69 0 124.5 -24.5
t94 -67t59 -100.5t20.5 -124q0 -84 -26.5 -162t-76 -138t-121 -96t-160.5 -36q-73 0 -130 21t-96 61.5t-59.5 98.5t-20.5 132zM296 798q6 18 14 37t19.5 35t27.5 26.5t38 10.5q20 0 39 -8t38 -17q19 -8 35 -15.5t29 -5.5q23 0 32.5 12t18.5 29h51q-6 -19 -14 -38.5t-20 -35
t-28.5 -25.5t-39.5 -10q-17 0 -36.5 7.5t-39.5 17.5t-37 15.5t-28 5.5q-20 0 -30.5 -12t-16.5 -29h-52z" />
    <glyph glyph-name="Odieresis" unicode="&#xd6;" horiz-adv-x="759" 
d="M133 296q0 -52 13 -95t39 -73.5t65.5 -47.5t93.5 -17q71 0 125 31t90.5 81t55 113t18.5 127q0 49 -13 92.5t-39 75t-64 50t-87 18.5q-75 0 -130.5 -31.5t-92.5 -81.5t-55.5 -114t-18.5 -128zM38 296q0 87 27 165.5t77.5 138.5t123 95.5t164.5 35.5q69 0 124.5 -24.5
t94 -67t59 -100.5t20.5 -124q0 -84 -26.5 -162t-76 -138t-121 -96t-160.5 -36q-73 0 -130 21t-96 61.5t-59.5 98.5t-20.5 132zM348 896h89l-21 -104h-89zM511 896h89l-21 -104h-89z" />
    <glyph glyph-name="Omacron" unicode="&#x14c;" horiz-adv-x="759" 
d="M133 296q0 -52 13 -95t39 -73.5t65.5 -47.5t93.5 -17q71 0 125 31t90.5 81t55 113t18.5 127q0 49 -13 92.5t-39 75t-64 50t-87 18.5q-75 0 -130.5 -31.5t-92.5 -81.5t-55.5 -114t-18.5 -128zM38 296q0 87 27 165.5t77.5 138.5t123 95.5t164.5 35.5q69 0 124.5 -24.5
t94 -67t59 -100.5t20.5 -124q0 -84 -26.5 -162t-76 -138t-121 -96t-160.5 -36q-73 0 -130 21t-96 61.5t-59.5 98.5t-20.5 132zM339 872h269l-11 -55h-270z" />
    <glyph glyph-name="Obreve" unicode="&#x14e;" horiz-adv-x="759" 
d="M133 296q0 -52 13 -95t39 -73.5t65.5 -47.5t93.5 -17q71 0 125 31t90.5 81t55 113t18.5 127q0 49 -13 92.5t-39 75t-64 50t-87 18.5q-75 0 -130.5 -31.5t-92.5 -81.5t-55.5 -114t-18.5 -128zM38 296q0 87 27 165.5t77.5 138.5t123 95.5t164.5 35.5q69 0 124.5 -24.5
t94 -67t59 -100.5t20.5 -124q0 -84 -26.5 -162t-76 -138t-121 -96t-160.5 -36q-73 0 -130 21t-96 61.5t-59.5 98.5t-20.5 132zM365 920q1 -46 25 -65t69 -19q49 0 76 19.5t41 64.5h45q-9 -67 -54.5 -103t-111.5 -36q-67 0 -102 35t-33 104h45z" />
    <glyph glyph-name="Ohungarumlaut" unicode="&#x150;" horiz-adv-x="759" 
d="M133 296q0 -52 13 -95t39 -73.5t65.5 -47.5t93.5 -17q71 0 125 31t90.5 81t55 113t18.5 127q0 49 -13 92.5t-39 75t-64 50t-87 18.5q-75 0 -130.5 -31.5t-92.5 -81.5t-55.5 -114t-18.5 -128zM38 296q0 87 27 165.5t77.5 138.5t123 95.5t164.5 35.5q69 0 124.5 -24.5
t94 -67t59 -100.5t20.5 -124q0 -84 -26.5 -162t-76 -138t-121 -96t-160.5 -36q-73 0 -130 21t-96 61.5t-59.5 98.5t-20.5 132zM595 922h113l-136 -143h-70zM429 922h113l-136 -143h-70z" />
    <glyph glyph-name="Racute" unicode="&#x154;" horiz-adv-x="685" 
d="M158 714h275q45 0 87.5 -8.5t75.5 -29.5t52.5 -56t19.5 -88q0 -36 -12 -68.5t-33 -58t-50.5 -43t-65.5 -22.5v-2q23 -7 38.5 -22t24 -35.5t11 -45.5t-0.5 -52q-2 -24 -6 -48t-6 -46.5t0 -45t13 -43.5h-99q-7 20 -8 59t10 94q11 64 1.5 95.5t-28.5 44t-42 12.5h-38h-211
l-64 -305h-95zM183 385h214q56 0 90.5 15t53.5 36.5t25.5 46t6.5 43.5q0 33 -12 54t-31.5 33t-44.5 16.5t-52 4.5h-197zM445 922h113l-136 -143h-70z" />
    <glyph glyph-name="Rcaron" unicode="&#x158;" horiz-adv-x="685" 
d="M158 714h275q45 0 87.5 -8.5t75.5 -29.5t52.5 -56t19.5 -88q0 -36 -12 -68.5t-33 -58t-50.5 -43t-65.5 -22.5v-2q23 -7 38.5 -22t24 -35.5t11 -45.5t-0.5 -52q-2 -24 -6 -48t-6 -46.5t0 -45t13 -43.5h-99q-7 20 -8 59t10 94q11 64 1.5 95.5t-28.5 44t-42 12.5h-38h-211
l-64 -305h-95zM183 385h214q56 0 90.5 15t53.5 36.5t25.5 46t6.5 43.5q0 33 -12 54t-31.5 33t-44.5 16.5t-52 4.5h-197zM454 779h-86l-77 143h76l51 -93l93 93h78z" />
    <glyph glyph-name="Sacute" unicode="&#x15a;" horiz-adv-x="648" 
d="M519 503q1 42 -10.5 70.5t-33.5 46t-52.5 24.5t-67.5 7q-26 0 -55 -6.5t-53.5 -20.5t-40.5 -36t-16 -54q0 -26 9 -44.5t24.5 -32t37 -22.5t45.5 -16l96 -26q33 -9 64 -22.5t55 -35t38.5 -54.5t14.5 -81q0 -55 -25.5 -96t-65.5 -68t-89.5 -40t-97.5 -13q-65 0 -118.5 14.5
t-91 45.5t-57 78t-14.5 113h95q-2 -48 11 -81t38.5 -53t61 -28.5t79.5 -8.5q33 0 65.5 8t57.5 24.5t40.5 42.5t15.5 62q0 27 -10 46.5t-27.5 33t-40.5 22.5t-49 16l-97 26q-32 9 -61 23t-51 36t-35 52t-13 69q0 52 23 90.5t59.5 64.5t83 39t94.5 13q53 0 100.5 -13.5
t83.5 -41t56.5 -70.5t18.5 -103h-95zM425 922h113l-136 -143h-70z" />
    <glyph glyph-name="Scircumflex" unicode="&#x15c;" horiz-adv-x="648" 
d="M519 503q1 42 -10.5 70.5t-33.5 46t-52.5 24.5t-67.5 7q-26 0 -55 -6.5t-53.5 -20.5t-40.5 -36t-16 -54q0 -26 9 -44.5t24.5 -32t37 -22.5t45.5 -16l96 -26q33 -9 64 -22.5t55 -35t38.5 -54.5t14.5 -81q0 -55 -25.5 -96t-65.5 -68t-89.5 -40t-97.5 -13q-65 0 -118.5 14.5
t-91 45.5t-57 78t-14.5 113h95q-2 -48 11 -81t38.5 -53t61 -28.5t79.5 -8.5q33 0 65.5 8t57.5 24.5t40.5 42.5t15.5 62q0 27 -10 46.5t-27.5 33t-40.5 22.5t-49 16l-97 26q-32 9 -61 23t-51 36t-35 52t-13 69q0 52 23 90.5t59.5 64.5t83 39t94.5 13q53 0 100.5 -13.5
t83.5 -41t56.5 -70.5t18.5 -103h-95zM374 922h86l75 -143h-74l-51 93l-87 -93h-82z" />
    <glyph glyph-name="Scaron" unicode="&#x160;" horiz-adv-x="648" 
d="M519 503q1 42 -10.5 70.5t-33.5 46t-52.5 24.5t-67.5 7q-26 0 -55 -6.5t-53.5 -20.5t-40.5 -36t-16 -54q0 -26 9 -44.5t24.5 -32t37 -22.5t45.5 -16l96 -26q33 -9 64 -22.5t55 -35t38.5 -54.5t14.5 -81q0 -55 -25.5 -96t-65.5 -68t-89.5 -40t-97.5 -13q-65 0 -118.5 14.5
t-91 45.5t-57 78t-14.5 113h95q-2 -48 11 -81t38.5 -53t61 -28.5t79.5 -8.5q33 0 65.5 8t57.5 24.5t40.5 42.5t15.5 62q0 27 -10 46.5t-27.5 33t-40.5 22.5t-49 16l-97 26q-32 9 -61 23t-51 36t-35 52t-13 69q0 52 23 90.5t59.5 64.5t83 39t94.5 13q53 0 100.5 -13.5
t83.5 -41t56.5 -70.5t18.5 -103h-95zM427 779h-86l-77 143h76l51 -93l93 93h78z" />
    <glyph glyph-name="Scedilla" unicode="&#x15e;" horiz-adv-x="648" 
d="M160 -145q16 -5 31.5 -10t32.5 -5q23 0 41.5 5t18.5 25q0 17 -14.5 24t-31.5 7q-11 0 -21.5 -1.5t-20.5 -6.5l-19 30l56 64q-29 4 -56 11q-53 14 -90.5 45t-57 78t-14.5 113h95q-2 -48 11 -81t38.5 -53t61 -28.5t79.5 -8.5q33 0 65.5 8t57.5 24.5t40.5 42.5t15.5 62
q0 27 -10 46.5t-27.5 33t-40.5 22.5t-49 16l-97 26q-32 9 -61 23t-51 36t-35 52t-13 69q0 52 23 90.5t59.5 64.5t83 39t94.5 13q53 0 100.5 -13.5t83.5 -41t56.5 -70.5t18.5 -103h-95q1 42 -10.5 70.5t-33.5 46t-52.5 24.5t-67.5 7q-26 0 -55 -6.5t-53.5 -20.5t-40.5 -36
t-16 -54q0 -26 9 -44.5t24.5 -32t37 -22.5t45.5 -16l96 -26q33 -9 64 -22.5t55 -35t38.5 -54.5t14.5 -81q0 -55 -25.5 -96t-65.5 -68t-89.5 -40t-97.5 -13h-19l-35 -37h2q5 2 12 3t14 1q15 0 31.5 -3.5t29 -12.5t20.5 -23t8 -34q0 -23 -11 -39.5t-28.5 -27t-38.5 -15.5
t-41 -5q-49 0 -98 22z" />
    <glyph glyph-name="Tcaron" unicode="&#x164;" horiz-adv-x="574" 
d="M635 634h-240l-134 -634h-95l134 634h-240l17 80h576zM415 779h-86l-77 143h76l51 -93l93 93h78z" />
    <glyph glyph-name="Tbar" unicode="&#x166;" horiz-adv-x="574" 
d="M102 487h167l31 147h-240l17 80h576l-18 -80h-240l-31 -147h170l-11 -55h-171l-91 -432h-95l91 432h-167z" />
    <glyph glyph-name="Ugrave" unicode="&#xd9;" horiz-adv-x="722" 
d="M639 286q-9 -42 -18 -79t-18 -58q-18 -44 -46.5 -75.5t-65 -51.5t-79 -29.5t-87.5 -9.5q-158 0 -224 80.5t-35 230.5l89 420h95l-94 -444q-24 -104 20.5 -155.5t148.5 -51.5q58 0 95.5 16t61.5 45t37 70.5t24 91.5l90 428h95zM475 779h-67l-101 143h101z" />
    <glyph glyph-name="Uacute" unicode="&#xda;" horiz-adv-x="722" 
d="M639 286q-9 -42 -18 -79t-18 -58q-18 -44 -46.5 -75.5t-65 -51.5t-79 -29.5t-87.5 -9.5q-158 0 -224 80.5t-35 230.5l89 420h95l-94 -444q-24 -104 20.5 -155.5t148.5 -51.5q58 0 95.5 16t61.5 45t37 70.5t24 91.5l90 428h95zM498 922h113l-136 -143h-70z" />
    <glyph glyph-name="Ucircumflex" unicode="&#xdb;" horiz-adv-x="722" 
d="M639 286q-9 -42 -18 -79t-18 -58q-18 -44 -46.5 -75.5t-65 -51.5t-79 -29.5t-87.5 -9.5q-158 0 -224 80.5t-35 230.5l89 420h95l-94 -444q-24 -104 20.5 -155.5t148.5 -51.5q58 0 95.5 16t61.5 45t37 70.5t24 91.5l90 428h95zM436 922h86l75 -143h-74l-51 93l-87 -93h-82
z" />
    <glyph glyph-name="Utilde" unicode="&#x168;" horiz-adv-x="722" 
d="M639 286q-9 -42 -18 -79t-18 -58q-18 -44 -46.5 -75.5t-65 -51.5t-79 -29.5t-87.5 -9.5q-158 0 -224 80.5t-35 230.5l89 420h95l-94 -444q-24 -104 20.5 -155.5t148.5 -51.5q58 0 95.5 16t61.5 45t37 70.5t24 91.5l90 428h95zM283 798q6 18 14 37t19.5 35t27.5 26.5
t38 10.5q20 0 39 -8t38 -17q19 -8 35 -15.5t29 -5.5q23 0 32.5 12t18.5 29h51q-6 -19 -14 -38.5t-20 -35t-28.5 -25.5t-39.5 -10q-17 0 -36.5 7.5t-39.5 17.5t-37 15.5t-28 5.5q-20 0 -30.5 -12t-16.5 -29h-52z" />
    <glyph glyph-name="Udieresis" unicode="&#xdc;" horiz-adv-x="722" 
d="M639 286q-9 -42 -18 -79t-18 -58q-18 -44 -46.5 -75.5t-65 -51.5t-79 -29.5t-87.5 -9.5q-158 0 -224 80.5t-35 230.5l89 420h95l-94 -444q-24 -104 20.5 -155.5t148.5 -51.5q58 0 95.5 16t61.5 45t37 70.5t24 91.5l90 428h95zM340 896h89l-21 -104h-89zM503 896h89
l-21 -104h-89z" />
    <glyph glyph-name="Umacron" unicode="&#x16a;" horiz-adv-x="722" 
d="M639 286q-9 -42 -18 -79t-18 -58q-18 -44 -46.5 -75.5t-65 -51.5t-79 -29.5t-87.5 -9.5q-158 0 -224 80.5t-35 230.5l89 420h95l-94 -444q-24 -104 20.5 -155.5t148.5 -51.5q58 0 95.5 16t61.5 45t37 70.5t24 91.5l90 428h95zM324 872h269l-11 -55h-270z" />
    <glyph glyph-name="Ubreve" unicode="&#x16c;" horiz-adv-x="722" 
d="M639 286q-9 -42 -18 -79t-18 -58q-18 -44 -46.5 -75.5t-65 -51.5t-79 -29.5t-87.5 -9.5q-158 0 -224 80.5t-35 230.5l89 420h95l-94 -444q-24 -104 20.5 -155.5t148.5 -51.5q58 0 95.5 16t61.5 45t37 70.5t24 91.5l90 428h95zM356 920q1 -46 25 -65t69 -19q49 0 76 19.5
t41 64.5h45q-9 -67 -54.5 -103t-111.5 -36q-67 0 -102 35t-33 104h45z" />
    <glyph glyph-name="Uring" unicode="&#x16e;" horiz-adv-x="722" 
d="M639 286q-9 -42 -18 -79t-18 -58q-18 -44 -46.5 -75.5t-65 -51.5t-79 -29.5t-87.5 -9.5q-158 0 -224 80.5t-35 230.5l89 420h95l-94 -444q-24 -104 20.5 -155.5t148.5 -51.5q58 0 95.5 16t61.5 45t37 70.5t24 91.5l90 428h95zM334 860q0 23 9 43.5t24.5 36t36 24.5
t43.5 9t43.5 -9t36 -24.5t24.5 -36t9 -43.5t-9 -43.5t-24.5 -36t-36 -24.5t-43.5 -9t-43.5 9t-36 24.5t-24.5 36t-9 43.5zM379 860q0 -29 19.5 -48.5t48.5 -19.5t48.5 19.5t19.5 48.5t-19.5 48.5t-48.5 19.5t-48.5 -19.5t-19.5 -48.5z" />
    <glyph glyph-name="Uhungarumlaut" unicode="&#x170;" horiz-adv-x="722" 
d="M639 286q-9 -42 -18 -79t-18 -58q-18 -44 -46.5 -75.5t-65 -51.5t-79 -29.5t-87.5 -9.5q-158 0 -224 80.5t-35 230.5l89 420h95l-94 -444q-24 -104 20.5 -155.5t148.5 -51.5q58 0 95.5 16t61.5 45t37 70.5t24 91.5l90 428h95zM587 922h113l-136 -143h-70zM421 922h113
l-136 -143h-70z" />
    <glyph glyph-name="Uogonek" unicode="&#x172;" horiz-adv-x="722" 
d="M639 286q-9 -42 -18 -79t-18 -58q-18 -44 -46.5 -75.5t-65 -51.5t-79 -29.5t-87.5 -9.5l-8 -6q-14 -10 -35 -28t-37 -37t-16 -35q0 -37 37 -37q17 0 34.5 4.5t37.5 19.5l37 -12q-29 -35 -57.5 -48.5t-67.5 -13.5q-15 0 -31 3t-29 11t-21 21.5t-8 35.5q0 19 10 38t28 36.5
t40 34.5q12 8 24 17q-110 13 -162 76q-66 81 -35 231l89 420h95l-94 -444q-24 -104 20.5 -155.5t148.5 -51.5q58 0 95.5 16t61.5 45t37 70.5t24 91.5l90 428h95z" />
    <glyph glyph-name="Wcircumflex" unicode="&#x174;" horiz-adv-x="926" 
d="M655 0h-99l-45 616h-2l-282 -616h-102l-45 714h94l25 -601h2l274 601h108l40 -603h2l260 603h98zM525 922h86l75 -143h-74l-51 93l-87 -93h-82z" />
    <glyph glyph-name="Yacute" unicode="&#xdd;" horiz-adv-x="611" 
d="M254 287l-188 427h101l146 -346l271 346h110l-346 -427l-62 -287h-93zM452 922h113l-136 -143h-70z" />
    <glyph glyph-name="Ycircumflex" unicode="&#x176;" horiz-adv-x="611" 
d="M254 287l-188 427h101l146 -346l271 346h110l-346 -427l-62 -287h-93zM374 922h86l75 -143h-74l-51 93l-87 -93h-82z" />
    <glyph glyph-name="Ydieresis" unicode="&#x178;" horiz-adv-x="611" 
d="M254 287l-188 427h101l146 -346l271 346h110l-346 -427l-62 -287h-93zM283 896h89l-21 -104h-89zM446 896h89l-21 -104h-89z" />
    <glyph glyph-name="Zacute" unicode="&#x179;" horiz-adv-x="611" 
d="M-21 79l536 555h-409l20 80h521l-17 -81l-540 -553h456l-17 -80h-567zM430 922h113l-136 -143h-70z" />
    <glyph glyph-name="Zcaron" unicode="&#x17d;" horiz-adv-x="611" 
d="M-21 79l536 555h-409l20 80h521l-17 -81l-540 -553h456l-17 -80h-567zM429 779h-86l-77 143h76l51 -93l93 93h78z" />
    <glyph glyph-name="Zdotaccent" unicode="&#x17b;" horiz-adv-x="611" 
d="M-21 79l536 555h-409l20 80h521l-17 -81l-540 -553h456l-17 -80h-567zM359 896h89l-21 -104h-89z" />
    <glyph glyph-name="agrave" unicode="&#xe0;" horiz-adv-x="519" 
d="M53 361q6 43 26.5 74.5t50.5 52.5t68 31t79 10q37 0 71.5 -6t60.5 -21t41.5 -40.5t15.5 -64.5q0 -22 -5.5 -47.5t-10.5 -46.5l-33 -141q-3 -16 -8.5 -36t-5.5 -38t7 -25t18 -7q6 0 13.5 2.5l13.5 4.5l-13 -63q-10 -5 -25.5 -8.5t-26.5 -3.5q-35 0 -53 19.5t-14 53.5l-2 2
q-27 -36 -67 -55.5t-106 -19.5q-32 0 -61 8t-50.5 25.5t-34 45t-12.5 67.5q0 56 24.5 88.5t63 49t84.5 22.5t89 10q34 3 58.5 6.5t40.5 11.5t23.5 23t7.5 41q0 21 -10 34t-25 20.5t-33.5 10.5t-35.5 3q-24 0 -47.5 -5t-42.5 -16.5t-32 -29t-17 -42.5h-85zM75 135
q0 -36 28.5 -54t64.5 -18q101 0 145 68q21 29 28.5 63t16.5 70h-2q-14 -8 -33 -13.5t-40.5 -9.5t-45.5 -6.5t-47 -5.5t-44 -9t-36.5 -16.5t-25 -27t-9.5 -41.5zM375 589h-67l-101 143h101z" />
    <glyph glyph-name="aacute" unicode="&#xe1;" horiz-adv-x="519" 
d="M53 361q6 43 26.5 74.5t50.5 52.5t68 31t79 10q37 0 71.5 -6t60.5 -21t41.5 -40.5t15.5 -64.5q0 -22 -5.5 -47.5t-10.5 -46.5l-33 -141q-3 -16 -8.5 -36t-5.5 -38t7 -25t18 -7q6 0 13.5 2.5l13.5 4.5l-13 -63q-10 -5 -25.5 -8.5t-26.5 -3.5q-35 0 -53 19.5t-14 53.5l-2 2
q-27 -36 -67 -55.5t-106 -19.5q-32 0 -61 8t-50.5 25.5t-34 45t-12.5 67.5q0 56 24.5 88.5t63 49t84.5 22.5t89 10q34 3 58.5 6.5t40.5 11.5t23.5 23t7.5 41q0 21 -10 34t-25 20.5t-33.5 10.5t-35.5 3q-24 0 -47.5 -5t-42.5 -16.5t-32 -29t-17 -42.5h-85zM75 135
q0 -36 28.5 -54t64.5 -18q101 0 145 68q21 29 28.5 63t16.5 70h-2q-14 -8 -33 -13.5t-40.5 -9.5t-45.5 -6.5t-47 -5.5t-44 -9t-36.5 -16.5t-25 -27t-9.5 -41.5zM364 732h113l-136 -143h-70z" />
    <glyph glyph-name="acircumflex" unicode="&#xe2;" horiz-adv-x="519" 
d="M53 361q6 43 26.5 74.5t50.5 52.5t68 31t79 10q37 0 71.5 -6t60.5 -21t41.5 -40.5t15.5 -64.5q0 -22 -5.5 -47.5t-10.5 -46.5l-33 -141q-3 -16 -8.5 -36t-5.5 -38t7 -25t18 -7q6 0 13.5 2.5l13.5 4.5l-13 -63q-10 -5 -25.5 -8.5t-26.5 -3.5q-35 0 -53 19.5t-14 53.5l-2 2
q-27 -36 -67 -55.5t-106 -19.5q-32 0 -61 8t-50.5 25.5t-34 45t-12.5 67.5q0 56 24.5 88.5t63 49t84.5 22.5t89 10q34 3 58.5 6.5t40.5 11.5t23.5 23t7.5 41q0 21 -10 34t-25 20.5t-33.5 10.5t-35.5 3q-24 0 -47.5 -5t-42.5 -16.5t-32 -29t-17 -42.5h-85zM75 135
q0 -36 28.5 -54t64.5 -18q101 0 145 68q21 29 28.5 63t16.5 70h-2q-14 -8 -33 -13.5t-40.5 -9.5t-45.5 -6.5t-47 -5.5t-44 -9t-36.5 -16.5t-25 -27t-9.5 -41.5zM282 732h86l75 -143h-74l-51 93l-87 -93h-82z" />
    <glyph glyph-name="atilde" unicode="&#xe3;" horiz-adv-x="519" 
d="M53 361q6 43 26.5 74.5t50.5 52.5t68 31t79 10q37 0 71.5 -6t60.5 -21t41.5 -40.5t15.5 -64.5q0 -22 -5.5 -47.5t-10.5 -46.5l-33 -141q-3 -16 -8.5 -36t-5.5 -38t7 -25t18 -7q6 0 13.5 2.5l13.5 4.5l-13 -63q-10 -5 -25.5 -8.5t-26.5 -3.5q-35 0 -53 19.5t-14 53.5l-2 2
q-27 -36 -67 -55.5t-106 -19.5q-32 0 -61 8t-50.5 25.5t-34 45t-12.5 67.5q0 56 24.5 88.5t63 49t84.5 22.5t89 10q34 3 58.5 6.5t40.5 11.5t23.5 23t7.5 41q0 21 -10 34t-25 20.5t-33.5 10.5t-35.5 3q-24 0 -47.5 -5t-42.5 -16.5t-32 -29t-17 -42.5h-85zM75 135
q0 -36 28.5 -54t64.5 -18q101 0 145 68q21 29 28.5 63t16.5 70h-2q-14 -8 -33 -13.5t-40.5 -9.5t-45.5 -6.5t-47 -5.5t-44 -9t-36.5 -16.5t-25 -27t-9.5 -41.5zM134 608q6 18 14 37t19.5 35t27.5 26.5t38 10.5q20 0 39 -8t38 -17q19 -8 35 -15.5t29 -5.5q23 0 32.5 12
t18.5 29h51q-6 -19 -14 -38.5t-20 -35t-28.5 -25.5t-39.5 -10q-17 0 -36.5 7.5t-39.5 17.5t-37 15.5t-28 5.5q-20 0 -30.5 -12t-16.5 -29h-52z" />
    <glyph glyph-name="adieresis" unicode="&#xe4;" horiz-adv-x="519" 
d="M53 361q6 43 26.5 74.5t50.5 52.5t68 31t79 10q37 0 71.5 -6t60.5 -21t41.5 -40.5t15.5 -64.5q0 -22 -5.5 -47.5t-10.5 -46.5l-33 -141q-3 -16 -8.5 -36t-5.5 -38t7 -25t18 -7q6 0 13.5 2.5l13.5 4.5l-13 -63q-10 -5 -25.5 -8.5t-26.5 -3.5q-35 0 -53 19.5t-14 53.5l-2 2
q-27 -36 -67 -55.5t-106 -19.5q-32 0 -61 8t-50.5 25.5t-34 45t-12.5 67.5q0 56 24.5 88.5t63 49t84.5 22.5t89 10q34 3 58.5 6.5t40.5 11.5t23.5 23t7.5 41q0 21 -10 34t-25 20.5t-33.5 10.5t-35.5 3q-24 0 -47.5 -5t-42.5 -16.5t-32 -29t-17 -42.5h-85zM75 135
q0 -36 28.5 -54t64.5 -18q101 0 145 68q21 29 28.5 63t16.5 70h-2q-14 -8 -33 -13.5t-40.5 -9.5t-45.5 -6.5t-47 -5.5t-44 -9t-36.5 -16.5t-25 -27t-9.5 -41.5zM197 706h89l-21 -104h-89zM360 706h89l-21 -104h-89z" />
    <glyph glyph-name="amacron" unicode="&#x101;" horiz-adv-x="519" 
d="M53 361q6 43 26.5 74.5t50.5 52.5t68 31t79 10q37 0 71.5 -6t60.5 -21t41.5 -40.5t15.5 -64.5q0 -22 -5.5 -47.5t-10.5 -46.5l-33 -141q-3 -16 -8.5 -36t-5.5 -38t7 -25t18 -7q6 0 13.5 2.5l13.5 4.5l-13 -63q-10 -5 -25.5 -8.5t-26.5 -3.5q-35 0 -53 19.5t-14 53.5l-2 2
q-27 -36 -67 -55.5t-106 -19.5q-32 0 -61 8t-50.5 25.5t-34 45t-12.5 67.5q0 56 24.5 88.5t63 49t84.5 22.5t89 10q34 3 58.5 6.5t40.5 11.5t23.5 23t7.5 41q0 21 -10 34t-25 20.5t-33.5 10.5t-35.5 3q-24 0 -47.5 -5t-42.5 -16.5t-32 -29t-17 -42.5h-85zM75 135
q0 -36 28.5 -54t64.5 -18q101 0 145 68q21 29 28.5 63t16.5 70h-2q-14 -8 -33 -13.5t-40.5 -9.5t-45.5 -6.5t-47 -5.5t-44 -9t-36.5 -16.5t-25 -27t-9.5 -41.5zM195 682h269l-11 -55h-270z" />
    <glyph glyph-name="abreve" unicode="&#x103;" horiz-adv-x="519" 
d="M53 361q6 43 26.5 74.5t50.5 52.5t68 31t79 10q37 0 71.5 -6t60.5 -21t41.5 -40.5t15.5 -64.5q0 -22 -5.5 -47.5t-10.5 -46.5l-33 -141q-3 -16 -8.5 -36t-5.5 -38t7 -25t18 -7q6 0 13.5 2.5l13.5 4.5l-13 -63q-10 -5 -25.5 -8.5t-26.5 -3.5q-35 0 -53 19.5t-14 53.5l-2 2
q-27 -36 -67 -55.5t-106 -19.5q-32 0 -61 8t-50.5 25.5t-34 45t-12.5 67.5q0 56 24.5 88.5t63 49t84.5 22.5t89 10q34 3 58.5 6.5t40.5 11.5t23.5 23t7.5 41q0 21 -10 34t-25 20.5t-33.5 10.5t-35.5 3q-24 0 -47.5 -5t-42.5 -16.5t-32 -29t-17 -42.5h-85zM75 135
q0 -36 28.5 -54t64.5 -18q101 0 145 68q21 29 28.5 63t16.5 70h-2q-14 -8 -33 -13.5t-40.5 -9.5t-45.5 -6.5t-47 -5.5t-44 -9t-36.5 -16.5t-25 -27t-9.5 -41.5zM221 730q1 -46 25 -65t69 -19q49 0 76 19.5t41 64.5h45q-9 -67 -54.5 -103t-111.5 -36q-67 0 -102 35t-33 104
h45z" />
    <glyph glyph-name="aring" unicode="&#xe5;" horiz-adv-x="519" 
d="M53 361q6 43 26.5 74.5t50.5 52.5t68 31t79 10q37 0 71.5 -6t60.5 -21t41.5 -40.5t15.5 -64.5q0 -22 -5.5 -47.5t-10.5 -46.5l-33 -141q-3 -16 -8.5 -36t-5.5 -38t7 -25t18 -7q6 0 13.5 2.5l13.5 4.5l-13 -63q-10 -5 -25.5 -8.5t-26.5 -3.5q-35 0 -53 19.5t-14 53.5l-2 2
q-27 -36 -67 -55.5t-106 -19.5q-32 0 -61 8t-50.5 25.5t-34 45t-12.5 67.5q0 56 24.5 88.5t63 49t84.5 22.5t89 10q34 3 58.5 6.5t40.5 11.5t23.5 23t7.5 41q0 21 -10 34t-25 20.5t-33.5 10.5t-35.5 3q-24 0 -47.5 -5t-42.5 -16.5t-32 -29t-17 -42.5h-85zM75 135
q0 -36 28.5 -54t64.5 -18q101 0 145 68q21 29 28.5 63t16.5 70h-2q-14 -8 -33 -13.5t-40.5 -9.5t-45.5 -6.5t-47 -5.5t-44 -9t-36.5 -16.5t-25 -27t-9.5 -41.5zM204 675q0 23 9 43.5t24.5 36t36 24.5t43.5 9t43.5 -9t36 -24.5t24.5 -36t9 -43.5t-9 -43.5t-24.5 -36
t-36 -24.5t-43.5 -9t-43.5 9t-36 24.5t-24.5 36t-9 43.5zM249 675q0 -29 19.5 -48.5t48.5 -19.5t48.5 19.5t19.5 48.5t-19.5 48.5t-48.5 19.5t-48.5 -19.5t-19.5 -48.5z" />
    <glyph glyph-name="aogonek" unicode="&#x105;" horiz-adv-x="519" 
d="M53 361q6 43 26.5 74.5t50.5 52.5t68 31t79 10q37 0 71.5 -6t60.5 -21t41.5 -40.5t15.5 -64.5q0 -22 -5.5 -47.5t-10.5 -46.5l-33 -141q-3 -16 -8.5 -36t-5.5 -38t7 -25t18 -7q6 0 13 2l14 5l-13 -63q-10 -5 -25.5 -8.5t-26.5 -3.5h-5q-9 -6 -16 -11q-14 -10 -35 -28
t-37 -37t-16 -35q0 -37 37 -37q17 0 34.5 4.5t37.5 19.5l37 -12q-29 -35 -57.5 -48.5t-67.5 -13.5q-15 0 -31 3t-29 11t-21 21.5t-8 35.5q0 19 10 38t28 36.5t40 34.5q21 15 50 33l-4 4q-18 20 -14 54l-2 2q-27 -36 -67 -55.5t-106 -19.5q-32 0 -61 8t-50.5 25.5t-34 45
t-12.5 67.5q0 56 24.5 88.5t63 49t84.5 22.5t89 10q34 3 58.5 6.5t40.5 11.5t23.5 23t7.5 41q0 21 -10 34t-25 20.5t-33.5 10.5t-35.5 3q-24 0 -47.5 -5t-42.5 -16.5t-32 -29t-17 -42.5h-85zM75 135q0 -36 28.5 -54t64.5 -18q101 0 145 68q21 29 28.5 63t16.5 70h-2
q-14 -8 -33 -13.5t-40.5 -9.5t-45.5 -6.5t-47 -5.5t-44 -9t-36.5 -16.5t-25 -27t-9.5 -41.5z" />
    <glyph glyph-name="cacute" unicode="&#x107;" horiz-adv-x="537" 
d="M416 353q0 48 -29.5 74.5t-79.5 26.5q-49 0 -86.5 -22t-63 -57t-38.5 -78.5t-13 -85.5q0 -30 6.5 -57t21.5 -47t39.5 -32t60.5 -12q55 0 94 29t57 77h85q-23 -87 -84.5 -134t-151.5 -47q-106 0 -159.5 59t-53.5 164q0 61 18.5 118.5t55 102t90 71t122.5 26.5
q88 0 139.5 -42.5t54.5 -133.5h-85zM378 732h113l-136 -143h-70z" />
    <glyph glyph-name="ccircumflex" unicode="&#x109;" horiz-adv-x="537" 
d="M416 353q0 48 -29.5 74.5t-79.5 26.5q-49 0 -86.5 -22t-63 -57t-38.5 -78.5t-13 -85.5q0 -30 6.5 -57t21.5 -47t39.5 -32t60.5 -12q55 0 94 29t57 77h85q-23 -87 -84.5 -134t-151.5 -47q-106 0 -159.5 59t-53.5 164q0 61 18.5 118.5t55 102t90 71t122.5 26.5
q88 0 139.5 -42.5t54.5 -133.5h-85zM302 732h86l75 -143h-74l-51 93l-87 -93h-82z" />
    <glyph glyph-name="ccaron" unicode="&#x10d;" horiz-adv-x="537" 
d="M416 353q0 48 -29.5 74.5t-79.5 26.5q-49 0 -86.5 -22t-63 -57t-38.5 -78.5t-13 -85.5q0 -30 6.5 -57t21.5 -47t39.5 -32t60.5 -12q55 0 94 29t57 77h85q-23 -87 -84.5 -134t-151.5 -47q-106 0 -159.5 59t-53.5 164q0 61 18.5 118.5t55 102t90 71t122.5 26.5
q88 0 139.5 -42.5t54.5 -133.5h-85zM362 589h-86l-77 143h76l51 -93l93 93h78z" />
    <glyph glyph-name="cdotaccent" unicode="&#x10b;" horiz-adv-x="537" 
d="M416 353q0 48 -29.5 74.5t-79.5 26.5q-49 0 -86.5 -22t-63 -57t-38.5 -78.5t-13 -85.5q0 -30 6.5 -57t21.5 -47t39.5 -32t60.5 -12q55 0 94 29t57 77h85q-23 -87 -84.5 -134t-151.5 -47q-106 0 -159.5 59t-53.5 164q0 61 18.5 118.5t55 102t90 71t122.5 26.5
q88 0 139.5 -42.5t54.5 -133.5h-85zM295 706h89l-21 -104h-89z" />
    <glyph glyph-name="ccedilla" unicode="&#xe7;" horiz-adv-x="537" 
d="M97 -145q16 -5 31.5 -10t32.5 -5q23 0 41.5 5t18.5 25q0 17 -14.5 24t-31.5 7q-11 0 -21.5 -1.5t-20.5 -6.5l-19 30l62 70q-64 12 -102 54q-53 59 -53 164q0 61 18.5 118.5t55 102t90 71t122.5 26.5q88 0 139.5 -42.5t54.5 -133.5h-85q0 48 -29.5 74.5t-79.5 26.5
q-49 0 -86.5 -22t-63 -57t-38.5 -78.5t-13 -85.5q0 -30 6.5 -57t21.5 -47t39.5 -32t60.5 -12q55 0 94 29t57 77h85q-23 -87 -84.5 -134t-151.5 -47h-15l-40 -42h2q5 2 12 3t14 1q15 0 31.5 -3.5t29 -12.5t20.5 -23t8 -34q0 -23 -11 -39.5t-28.5 -27t-38.5 -15.5t-41 -5
q-49 0 -98 22z" />
    <glyph glyph-name="dcroat" unicode="&#x111;" horiz-adv-x="603" 
d="M455 0h-80l18 74h-2q-38 -50 -78.5 -68t-92.5 -18q-50 0 -87.5 15.5t-63.5 43.5t-39 67t-13 86q0 59 19.5 117.5t56 105.5t90 76.5t121.5 29.5q24 0 49 -4.5t47.5 -15t39.5 -28t25 -43.5h2l26 133h-118l12 55h117l18 88h84l-19 -88h84l-11 -55h-84zM102 200
q0 -63 31.5 -100t101.5 -37q48 0 86 25t63.5 63t39 83t13.5 86q0 58 -33.5 96t-96.5 38q-51 0 -89 -23.5t-64 -60.5t-39 -82t-13 -88z" />
    <glyph glyph-name="egrave" unicode="&#xe8;" horiz-adv-x="537" 
d="M98 233q-3 -23 -3 -45q0 -30 11 -53.5t30 -39t43 -24t50 -8.5q56 0 93.5 25.5t55.5 73.5h85q-10 -43 -32 -75.5t-53 -54.5t-69 -33t-80 -11q-64 0 -106.5 20t-67.5 50.5t-35 67t-10 70.5q0 74 21.5 135.5t58 105.5t85 68t101.5 24q114 0 166.5 -60t52.5 -169
q0 -20 -3 -38t-5 -29h-389zM410 308q2 27 -3.5 53.5t-19.5 47t-38.5 33t-59.5 12.5q-38 0 -67 -11.5t-50.5 -31.5t-37 -46.5t-24.5 -56.5h300zM352 589h-67l-101 143h101z" />
    <glyph glyph-name="eacute" unicode="&#xe9;" horiz-adv-x="537" 
d="M98 233q-3 -23 -3 -45q0 -30 11 -53.5t30 -39t43 -24t50 -8.5q56 0 93.5 25.5t55.5 73.5h85q-10 -43 -32 -75.5t-53 -54.5t-69 -33t-80 -11q-64 0 -106.5 20t-67.5 50.5t-35 67t-10 70.5q0 74 21.5 135.5t58 105.5t85 68t101.5 24q114 0 166.5 -60t52.5 -169
q0 -20 -3 -38t-5 -29h-389zM410 308q2 27 -3.5 53.5t-19.5 47t-38.5 33t-59.5 12.5q-38 0 -67 -11.5t-50.5 -31.5t-37 -46.5t-24.5 -56.5h300zM365 732h113l-136 -143h-70z" />
    <glyph glyph-name="ecircumflex" unicode="&#xea;" horiz-adv-x="537" 
d="M98 233q-3 -23 -3 -45q0 -30 11 -53.5t30 -39t43 -24t50 -8.5q56 0 93.5 25.5t55.5 73.5h85q-10 -43 -32 -75.5t-53 -54.5t-69 -33t-80 -11q-64 0 -106.5 20t-67.5 50.5t-35 67t-10 70.5q0 74 21.5 135.5t58 105.5t85 68t101.5 24q114 0 166.5 -60t52.5 -169
q0 -20 -3 -38t-5 -29h-389zM410 308q2 27 -3.5 53.5t-19.5 47t-38.5 33t-59.5 12.5q-38 0 -67 -11.5t-50.5 -31.5t-37 -46.5t-24.5 -56.5h300zM285 732h86l75 -143h-74l-51 93l-87 -93h-82z" />
    <glyph glyph-name="ecaron" unicode="&#x11b;" horiz-adv-x="537" 
d="M98 233q-3 -23 -3 -45q0 -30 11 -53.5t30 -39t43 -24t50 -8.5q56 0 93.5 25.5t55.5 73.5h85q-10 -43 -32 -75.5t-53 -54.5t-69 -33t-80 -11q-64 0 -106.5 20t-67.5 50.5t-35 67t-10 70.5q0 74 21.5 135.5t58 105.5t85 68t101.5 24q114 0 166.5 -60t52.5 -169
q0 -20 -3 -38t-5 -29h-389zM410 308q2 27 -3.5 53.5t-19.5 47t-38.5 33t-59.5 12.5q-38 0 -67 -11.5t-50.5 -31.5t-37 -46.5t-24.5 -56.5h300zM346 589h-86l-77 143h76l51 -93l93 93h78z" />
    <glyph glyph-name="edieresis" unicode="&#xeb;" horiz-adv-x="537" 
d="M98 233q-3 -23 -3 -45q0 -30 11 -53.5t30 -39t43 -24t50 -8.5q56 0 93.5 25.5t55.5 73.5h85q-10 -43 -32 -75.5t-53 -54.5t-69 -33t-80 -11q-64 0 -106.5 20t-67.5 50.5t-35 67t-10 70.5q0 74 21.5 135.5t58 105.5t85 68t101.5 24q114 0 166.5 -60t52.5 -169
q0 -20 -3 -38t-5 -29h-389zM410 308q2 27 -3.5 53.5t-19.5 47t-38.5 33t-59.5 12.5q-38 0 -67 -11.5t-50.5 -31.5t-37 -46.5t-24.5 -56.5h300zM205 706h89l-21 -104h-89zM368 706h89l-21 -104h-89z" />
    <glyph glyph-name="emacron" unicode="&#x113;" horiz-adv-x="537" 
d="M98 233q-3 -23 -3 -45q0 -30 11 -53.5t30 -39t43 -24t50 -8.5q56 0 93.5 25.5t55.5 73.5h85q-10 -43 -32 -75.5t-53 -54.5t-69 -33t-80 -11q-64 0 -106.5 20t-67.5 50.5t-35 67t-10 70.5q0 74 21.5 135.5t58 105.5t85 68t101.5 24q114 0 166.5 -60t52.5 -169
q0 -20 -3 -38t-5 -29h-389zM410 308q2 27 -3.5 53.5t-19.5 47t-38.5 33t-59.5 12.5q-38 0 -67 -11.5t-50.5 -31.5t-37 -46.5t-24.5 -56.5h300zM187 682h269l-11 -55h-270z" />
    <glyph glyph-name="ebreve" unicode="&#x115;" horiz-adv-x="537" 
d="M98 233q-3 -23 -3 -45q0 -30 11 -53.5t30 -39t43 -24t50 -8.5q56 0 93.5 25.5t55.5 73.5h85q-10 -43 -32 -75.5t-53 -54.5t-69 -33t-80 -11q-64 0 -106.5 20t-67.5 50.5t-35 67t-10 70.5q0 74 21.5 135.5t58 105.5t85 68t101.5 24q114 0 166.5 -60t52.5 -169
q0 -20 -3 -38t-5 -29h-389zM410 308q2 27 -3.5 53.5t-19.5 47t-38.5 33t-59.5 12.5q-38 0 -67 -11.5t-50.5 -31.5t-37 -46.5t-24.5 -56.5h300zM216 730q1 -46 25 -65t69 -19q49 0 76 19.5t41 64.5h45q-9 -67 -54.5 -103t-111.5 -36q-67 0 -102 35t-33 104h45z" />
    <glyph glyph-name="edotaccent" unicode="&#x117;" horiz-adv-x="537" 
d="M98 233q-3 -23 -3 -45q0 -30 11 -53.5t30 -39t43 -24t50 -8.5q56 0 93.5 25.5t55.5 73.5h85q-10 -43 -32 -75.5t-53 -54.5t-69 -33t-80 -11q-64 0 -106.5 20t-67.5 50.5t-35 67t-10 70.5q0 74 21.5 135.5t58 105.5t85 68t101.5 24q114 0 166.5 -60t52.5 -169
q0 -20 -3 -38t-5 -29h-389zM410 308q2 27 -3.5 53.5t-19.5 47t-38.5 33t-59.5 12.5q-38 0 -67 -11.5t-50.5 -31.5t-37 -46.5t-24.5 -56.5h300zM280 706h89l-21 -104h-89z" />
    <glyph glyph-name="eogonek" unicode="&#x119;" horiz-adv-x="537" 
d="M98 233q-3 -23 -3 -45q0 -30 11 -53.5t30 -39t43 -24t50 -8.5q56 0 93.5 25.5t55.5 73.5h85q-10 -43 -32 -75.5t-53 -54.5t-69 -33q-21 -6 -43 -8q-10 -8 -19 -14q-14 -10 -35 -28t-37 -37t-16 -35q0 -37 37 -37q17 0 34.5 4.5t37.5 19.5l37 -12q-29 -35 -57.5 -48.5
t-67.5 -13.5q-15 0 -31 3t-29 11t-21 21.5t-8 35.5q0 19 10 38t28 36.5t40 34.5l28 20q-43 3 -75 18q-42 20 -67 50.5t-35 67t-10 70.5q0 74 21.5 135.5t58 105.5t85 68t101.5 24q114 0 166.5 -60t52.5 -169q0 -20 -3 -38t-5 -29h-389zM410 308q2 27 -3.5 53.5t-19.5 47
t-38.5 33t-59.5 12.5q-38 0 -67 -11.5t-50.5 -31.5t-37 -46.5t-24.5 -56.5h300z" />
    <glyph glyph-name="gcircumflex" unicode="&#x11d;" horiz-adv-x="574" 
d="M459 75q-9 -40 -19 -77t-21 -64q-33 -78 -92.5 -111t-142.5 -33q-39 0 -76 9t-65.5 28t-46 49.5t-18.5 73.5h85q2 -26 13.5 -42.5t29 -26t40.5 -13t47 -3.5q49 0 80.5 18t51.5 47.5t31.5 66.5t21.5 76l-2 2q-28 -42 -70 -60.5t-91 -18.5q-48 0 -84.5 16t-60.5 44.5
t-36.5 68t-12.5 85.5q0 57 18.5 114t53 102.5t84.5 74t113 28.5q28 0 55 -7.5t49.5 -21t38 -33t21.5 -43.5v-2h2l16 95h80zM106 210q0 -28 8 -53t23.5 -44t39.5 -30.5t56 -11.5q48 0 83.5 24t58.5 61t34.5 80.5t11.5 82.5q0 61 -32.5 98t-99.5 37q-45 0 -79 -25t-57 -61.5
t-35 -79t-12 -78.5zM337 732h86l75 -143h-74l-51 93l-87 -93h-82z" />
    <glyph glyph-name="gbreve" unicode="&#x11f;" horiz-adv-x="574" 
d="M459 75q-9 -40 -19 -77t-21 -64q-33 -78 -92.5 -111t-142.5 -33q-39 0 -76 9t-65.5 28t-46 49.5t-18.5 73.5h85q2 -26 13.5 -42.5t29 -26t40.5 -13t47 -3.5q49 0 80.5 18t51.5 47.5t31.5 66.5t21.5 76l-2 2q-28 -42 -70 -60.5t-91 -18.5q-48 0 -84.5 16t-60.5 44.5
t-36.5 68t-12.5 85.5q0 57 18.5 114t53 102.5t84.5 74t113 28.5q28 0 55 -7.5t49.5 -21t38 -33t21.5 -43.5v-2h2l16 95h80zM106 210q0 -28 8 -53t23.5 -44t39.5 -30.5t56 -11.5q48 0 83.5 24t58.5 61t34.5 80.5t11.5 82.5q0 61 -32.5 98t-99.5 37q-45 0 -79 -25t-57 -61.5
t-35 -79t-12 -78.5zM253 730q1 -46 25 -65t69 -19q49 0 76 19.5t41 64.5h45q-9 -67 -54.5 -103t-111.5 -36q-67 0 -102 35t-33 104h45z" />
    <glyph glyph-name="gdotaccent" unicode="&#x121;" horiz-adv-x="574" 
d="M459 75q-9 -40 -19 -77t-21 -64q-33 -78 -92.5 -111t-142.5 -33q-39 0 -76 9t-65.5 28t-46 49.5t-18.5 73.5h85q2 -26 13.5 -42.5t29 -26t40.5 -13t47 -3.5q49 0 80.5 18t51.5 47.5t31.5 66.5t21.5 76l-2 2q-28 -42 -70 -60.5t-91 -18.5q-48 0 -84.5 16t-60.5 44.5
t-36.5 68t-12.5 85.5q0 57 18.5 114t53 102.5t84.5 74t113 28.5q28 0 55 -7.5t49.5 -21t38 -33t21.5 -43.5v-2h2l16 95h80zM106 210q0 -28 8 -53t23.5 -44t39.5 -30.5t56 -11.5q48 0 83.5 24t58.5 61t34.5 80.5t11.5 82.5q0 61 -32.5 98t-99.5 37q-45 0 -79 -25t-57 -61.5
t-35 -79t-12 -78.5zM311 706h89l-21 -104h-89z" />
    <glyph glyph-name="gcommaaccent" unicode="&#x123;" horiz-adv-x="574" 
d="M459 75q-9 -40 -19 -77t-21 -64q-33 -78 -92.5 -111t-142.5 -33q-39 0 -76 9t-65.5 28t-46 49.5t-18.5 73.5h85q2 -26 13.5 -42.5t29 -26t40.5 -13t47 -3.5q49 0 80.5 18t51.5 47.5t31.5 66.5t21.5 76l-2 2q-28 -42 -70 -60.5t-91 -18.5q-48 0 -84.5 16t-60.5 44.5
t-36.5 68t-12.5 85.5q0 57 18.5 114t53 102.5t84.5 74t113 28.5q28 0 55 -7.5t49.5 -21t38 -33t21.5 -43.5v-2h2l16 95h80zM106 210q0 -28 8 -53t23.5 -44t39.5 -30.5t56 -11.5q48 0 83.5 24t58.5 61t34.5 80.5t11.5 82.5q0 61 -32.5 98t-99.5 37q-45 0 -79 -25t-57 -61.5
t-35 -79t-12 -78.5zM396 626h-111q14 77 18 91.5t13 29t30.5 26.5t70.5 13l-8 -35q-14 -3 -22 -7t-14 -10.5t-10 -19.5h52z" />
    <glyph glyph-name="hcircumflex" unicode="&#x125;" 
d="M146 714h85l-61 -273l2 -2q32 44 81 67t103 23q73 0 108.5 -32t35.5 -101q0 -17 -4 -44t-11 -57l-63 -295h-85l66 302q1 7 3.5 18t4 22.5t3 22t1.5 17.5q0 37 -26 54.5t-64 17.5q-35 0 -69.5 -17t-58.5 -43q-23 -20 -36 -48.5t-21 -59.5l-60 -286h-85zM348 922h86
l75 -143h-74l-51 93l-87 -93h-82z" />
    <glyph glyph-name="hbar" unicode="&#x127;" horiz-adv-x="566" 
d="M53 626h84l19 88h85l-20 -88h106l-11 -55h-107l-29 -130l2 -2q32 44 81 67t103 23q73 0 108.5 -32t35.5 -101q0 -17 -4 -44t-11 -57l-63 -295h-85l66 302q1 7 3.5 18t4 22.5t3 22t1.5 17.5q0 37 -26 54.5t-64 17.5q-35 0 -69.5 -17t-58.5 -43q-23 -20 -36 -48.5
t-21 -59.5l-60 -286h-85l121 571h-85z" />
    <glyph glyph-name="igrave" unicode="&#xec;" horiz-adv-x="222" 
d="M-5 0l108 517h85l-108 -517h-85zM189 589h-67l-101 143h101z" />
    <glyph glyph-name="iacute" unicode="&#xed;" horiz-adv-x="222" 
d="M-5 0l108 517h85l-108 -517h-85zM198 732h113l-136 -143h-70z" />
    <glyph glyph-name="icircumflex" unicode="&#xee;" horiz-adv-x="222" 
d="M-5 0l108 517h85l-108 -517h-85zM141 732h86l75 -143h-74l-51 93l-87 -93h-82z" />
    <glyph glyph-name="itilde" unicode="&#x129;" horiz-adv-x="222" 
d="M-5 0l108 517h85l-108 -517h-85zM-1 608q6 18 14 37t19.5 35t27.5 26.5t38 10.5q20 0 39 -8t38 -17q19 -8 35 -15.5t29 -5.5q23 0 32.5 12t18.5 29h51q-6 -19 -14 -38.5t-20 -35t-28.5 -25.5t-39.5 -10q-17 0 -36.5 7.5t-39.5 17.5t-37 15.5t-28 5.5q-20 0 -30.5 -12
t-16.5 -29h-52z" />
    <glyph glyph-name="idieresis" unicode="&#xef;" horiz-adv-x="222" 
d="M-5 0l108 517h85l-108 -517h-85zM58 706h89l-21 -104h-89zM221 706h89l-21 -104h-89z" />
    <glyph glyph-name="imacron" unicode="&#x12b;" horiz-adv-x="222" 
d="M-5 0l108 517h85l-108 -517h-85zM39 682h269l-11 -55h-270z" />
    <glyph glyph-name="iogonek" unicode="&#x12f;" horiz-adv-x="222" 
d="M80 0q-19 -13 -33 -23t-34 -28t-35 -37t-15 -35q0 -37 35 -37q16 0 32.5 4.5t35.5 19.5l36 -12q-28 -35 -55 -48.5t-64 -13.5q-14 0 -29.5 3t-27.5 11t-20 21.5t-8 35.5q0 19 9.5 38t27 36.5t38.5 34t43 30.5h-21l108 517h85zM208 610h-86l22 104h86z" />
    <glyph glyph-name="dotlessj" horiz-adv-x="222" 
d="M-105 -117q8 -2 16.5 -4t16.5 -2q14 0 23 5t16 16t12 30t11 46l113 543h85l-130 -614q-11 -48 -41 -74.5t-81 -26.5q-14 0 -28 1t-28 5z" />
    <glyph glyph-name="jcircumflex" unicode="&#x135;" horiz-adv-x="222" 
d="M-105 -117q8 -2 16.5 -4t16.5 -2q14 0 23 5t16 16t12 30t11 46l113 543h85l-130 -614q-11 -48 -41 -74.5t-81 -26.5q-14 0 -28 1t-28 5zM134 732h86l75 -143h-74l-51 93l-87 -93h-82z" />
    <glyph glyph-name="lacute" unicode="&#x13a;" horiz-adv-x="222" 
d="M145 714h85l-150 -714h-85zM246 922h113l-136 -143h-70z" />
    <glyph glyph-name="nacute" unicode="&#x144;" 
d="M104 517h82l-16 -78h2q32 44 81 67t103 23q73 0 108.5 -32t35.5 -101q0 -17 -4 -44t-11 -57l-63 -295h-85l66 302q1 7 3.5 18t4 22.5t3 22t1.5 17.5q0 37 -26 54.5t-64 17.5q-35 0 -69.5 -17t-58.5 -43q-23 -20 -36 -48.5t-21 -59.5l-60 -286h-85zM352 732h113l-136 -143
h-70z" />
    <glyph glyph-name="ncaron" unicode="&#x148;" 
d="M104 517h82l-16 -78h2q32 44 81 67t103 23q73 0 108.5 -32t35.5 -101q0 -17 -4 -44t-11 -57l-63 -295h-85l66 302q1 7 3.5 18t4 22.5t3 22t1.5 17.5q0 37 -26 54.5t-64 17.5q-35 0 -69.5 -17t-58.5 -43q-23 -20 -36 -48.5t-21 -59.5l-60 -286h-85zM357 589h-86l-77 143
h76l51 -93l93 93h78z" />
    <glyph glyph-name="ntilde" unicode="&#xf1;" 
d="M104 517h82l-16 -78h2q32 44 81 67t103 23q73 0 108.5 -32t35.5 -101q0 -17 -4 -44t-11 -57l-63 -295h-85l66 302q1 7 3.5 18t4 22.5t3 22t1.5 17.5q0 37 -26 54.5t-64 17.5q-35 0 -69.5 -17t-58.5 -43q-23 -20 -36 -48.5t-21 -59.5l-60 -286h-85zM170 608q6 18 14 37
t19.5 35t27.5 26.5t38 10.5q20 0 39 -8t38 -17q19 -8 35 -15.5t29 -5.5q23 0 32.5 12t18.5 29h51q-6 -19 -14 -38.5t-20 -35t-28.5 -25.5t-39.5 -10q-17 0 -36.5 7.5t-39.5 17.5t-37 15.5t-28 5.5q-20 0 -30.5 -12t-16.5 -29h-52z" />
    <glyph glyph-name="ograve" unicode="&#xf2;" horiz-adv-x="574" 
d="M17 204q0 63 19.5 122t57 104t91 72t121.5 27q104 0 159.5 -55t55.5 -159q0 -63 -19 -122t-56 -104.5t-90 -73t-121 -27.5q-51 0 -91.5 16t-68.5 45t-43 68.5t-15 86.5zM102 205q0 -64 36 -103t106 -39q46 0 82 24t60.5 60.5t37 79.5t12.5 81q0 30 -8 57t-25 46.5
t-42.5 31t-60.5 11.5q-49 0 -86 -24t-62 -60.5t-37.5 -80.5t-12.5 -84zM372 589h-67l-101 143h101z" />
    <glyph glyph-name="oacute" unicode="&#xf3;" horiz-adv-x="574" 
d="M17 204q0 63 19.5 122t57 104t91 72t121.5 27q104 0 159.5 -55t55.5 -159q0 -63 -19 -122t-56 -104.5t-90 -73t-121 -27.5q-51 0 -91.5 16t-68.5 45t-43 68.5t-15 86.5zM102 205q0 -64 36 -103t106 -39q46 0 82 24t60.5 60.5t37 79.5t12.5 81q0 30 -8 57t-25 46.5
t-42.5 31t-60.5 11.5q-49 0 -86 -24t-62 -60.5t-37.5 -80.5t-12.5 -84zM386 732h113l-136 -143h-70z" />
    <glyph glyph-name="ocircumflex" unicode="&#xf4;" horiz-adv-x="574" 
d="M17 204q0 63 19.5 122t57 104t91 72t121.5 27q104 0 159.5 -55t55.5 -159q0 -63 -19 -122t-56 -104.5t-90 -73t-121 -27.5q-51 0 -91.5 16t-68.5 45t-43 68.5t-15 86.5zM102 205q0 -64 36 -103t106 -39q46 0 82 24t60.5 60.5t37 79.5t12.5 81q0 30 -8 57t-25 46.5
t-42.5 31t-60.5 11.5q-49 0 -86 -24t-62 -60.5t-37.5 -80.5t-12.5 -84zM318 732h86l75 -143h-74l-51 93l-87 -93h-82z" />
    <glyph glyph-name="otilde" unicode="&#xf5;" horiz-adv-x="574" 
d="M17 204q0 63 19.5 122t57 104t91 72t121.5 27q104 0 159.5 -55t55.5 -159q0 -63 -19 -122t-56 -104.5t-90 -73t-121 -27.5q-51 0 -91.5 16t-68.5 45t-43 68.5t-15 86.5zM102 205q0 -64 36 -103t106 -39q46 0 82 24t60.5 60.5t37 79.5t12.5 81q0 30 -8 57t-25 46.5
t-42.5 31t-60.5 11.5q-49 0 -86 -24t-62 -60.5t-37.5 -80.5t-12.5 -84zM178 608q6 18 14 37t19.5 35t27.5 26.5t38 10.5q20 0 39 -8t38 -17q19 -8 35 -15.5t29 -5.5q23 0 32.5 12t18.5 29h51q-6 -19 -14 -38.5t-20 -35t-28.5 -25.5t-39.5 -10q-17 0 -36.5 7.5t-39.5 17.5
t-37 15.5t-28 5.5q-20 0 -30.5 -12t-16.5 -29h-52z" />
    <glyph glyph-name="odieresis" unicode="&#xf6;" horiz-adv-x="574" 
d="M17 204q0 63 19.5 122t57 104t91 72t121.5 27q104 0 159.5 -55t55.5 -159q0 -63 -19 -122t-56 -104.5t-90 -73t-121 -27.5q-51 0 -91.5 16t-68.5 45t-43 68.5t-15 86.5zM102 205q0 -64 36 -103t106 -39q46 0 82 24t60.5 60.5t37 79.5t12.5 81q0 30 -8 57t-25 46.5
t-42.5 31t-60.5 11.5q-49 0 -86 -24t-62 -60.5t-37.5 -80.5t-12.5 -84zM225 706h89l-21 -104h-89zM388 706h89l-21 -104h-89z" />
    <glyph glyph-name="omacron" unicode="&#x14d;" horiz-adv-x="574" 
d="M17 204q0 63 19.5 122t57 104t91 72t121.5 27q104 0 159.5 -55t55.5 -159q0 -63 -19 -122t-56 -104.5t-90 -73t-121 -27.5q-51 0 -91.5 16t-68.5 45t-43 68.5t-15 86.5zM102 205q0 -64 36 -103t106 -39q46 0 82 24t60.5 60.5t37 79.5t12.5 81q0 30 -8 57t-25 46.5
t-42.5 31t-60.5 11.5q-49 0 -86 -24t-62 -60.5t-37.5 -80.5t-12.5 -84zM214 682h269l-11 -55h-270z" />
    <glyph glyph-name="obreve" unicode="&#x14f;" horiz-adv-x="574" 
d="M17 204q0 63 19.5 122t57 104t91 72t121.5 27q104 0 159.5 -55t55.5 -159q0 -63 -19 -122t-56 -104.5t-90 -73t-121 -27.5q-51 0 -91.5 16t-68.5 45t-43 68.5t-15 86.5zM102 205q0 -64 36 -103t106 -39q46 0 82 24t60.5 60.5t37 79.5t12.5 81q0 30 -8 57t-25 46.5
t-42.5 31t-60.5 11.5q-49 0 -86 -24t-62 -60.5t-37.5 -80.5t-12.5 -84zM236 730q1 -46 25 -65t69 -19q49 0 76 19.5t41 64.5h45q-9 -67 -54.5 -103t-111.5 -36q-67 0 -102 35t-33 104h45z" />
    <glyph glyph-name="ohungarumlaut" unicode="&#x151;" horiz-adv-x="574" 
d="M17 204q0 63 19.5 122t57 104t91 72t121.5 27q104 0 159.5 -55t55.5 -159q0 -63 -19 -122t-56 -104.5t-90 -73t-121 -27.5q-51 0 -91.5 16t-68.5 45t-43 68.5t-15 86.5zM102 205q0 -64 36 -103t106 -39q46 0 82 24t60.5 60.5t37 79.5t12.5 81q0 30 -8 57t-25 46.5
t-42.5 31t-60.5 11.5q-49 0 -86 -24t-62 -60.5t-37.5 -80.5t-12.5 -84zM472 732h113l-136 -143h-70zM306 732h113l-136 -143h-70z" />
    <glyph glyph-name="racute" unicode="&#x155;" horiz-adv-x="333" 
d="M103 517h80l-25 -111h2q30 53 76.5 88t111.5 35q8 0 15 1t15 -1l-20 -91q-6 1 -13 1h-12q-16 0 -26 -0.5t-25 -4.5q-35 -9 -62.5 -31t-47.5 -53q-17 -25 -27 -58.5t-16 -62.5l-49 -229h-85zM221 732h113l-136 -143h-70z" />
    <glyph glyph-name="rcaron" unicode="&#x159;" horiz-adv-x="333" 
d="M103 517h80l-25 -111h2q30 53 76.5 88t111.5 35q8 0 15 1t15 -1l-20 -91q-6 1 -13 1h-12q-16 0 -26 -0.5t-25 -4.5q-35 -9 -62.5 -31t-47.5 -53q-17 -25 -27 -58.5t-16 -62.5l-49 -229h-85zM281 589h-86l-77 143h76l51 -93l93 93h78z" />
    <glyph glyph-name="sacute" unicode="&#x15b;" horiz-adv-x="481" 
d="M355 365q1 22 -7 38.5t-23 28t-35 17t-42 5.5q-20 0 -39.5 -3t-35 -10.5t-25.5 -20.5t-10 -32q0 -18 11.5 -31t31 -24t43.5 -20.5t50 -19.5q25 -11 50 -23.5t44 -29.5t31 -39.5t12 -52.5q0 -43 -19 -73.5t-49 -49.5t-68 -28t-75 -9q-44 0 -82.5 9t-66.5 29t-44 53.5
t-16 83.5h85q-2 -29 8.5 -48t29 -30.5t43 -16.5t51.5 -5q21 0 42 4t38 13.5t27.5 24.5t10.5 37q0 19 -11.5 32.5t-31 24.5t-44 20.5t-49.5 20.5q-26 10 -50.5 22t-44 28.5t-31 38.5t-11.5 51q0 36 16.5 64t43.5 46.5t61.5 28.5t70.5 10t71 -8.5t62.5 -28t44.5 -51t17 -76.5
h-85zM319 732h113l-136 -143h-70z" />
    <glyph glyph-name="scircumflex" unicode="&#x15d;" horiz-adv-x="481" 
d="M355 365q1 22 -7 38.5t-23 28t-35 17t-42 5.5q-20 0 -39.5 -3t-35 -10.5t-25.5 -20.5t-10 -32q0 -18 11.5 -31t31 -24t43.5 -20.5t50 -19.5q25 -11 50 -23.5t44 -29.5t31 -39.5t12 -52.5q0 -43 -19 -73.5t-49 -49.5t-68 -28t-75 -9q-44 0 -82.5 9t-66.5 29t-44 53.5
t-16 83.5h85q-2 -29 8.5 -48t29 -30.5t43 -16.5t51.5 -5q21 0 42 4t38 13.5t27.5 24.5t10.5 37q0 19 -11.5 32.5t-31 24.5t-44 20.5t-49.5 20.5q-26 10 -50.5 22t-44 28.5t-31 38.5t-11.5 51q0 36 16.5 64t43.5 46.5t61.5 28.5t70.5 10t71 -8.5t62.5 -28t44.5 -51t17 -76.5
h-85zM261 732h86l75 -143h-74l-51 93l-87 -93h-82z" />
    <glyph glyph-name="scaron" unicode="&#x161;" horiz-adv-x="481" 
d="M355 365q1 22 -7 38.5t-23 28t-35 17t-42 5.5q-20 0 -39.5 -3t-35 -10.5t-25.5 -20.5t-10 -32q0 -18 11.5 -31t31 -24t43.5 -20.5t50 -19.5q25 -11 50 -23.5t44 -29.5t31 -39.5t12 -52.5q0 -43 -19 -73.5t-49 -49.5t-68 -28t-75 -9q-44 0 -82.5 9t-66.5 29t-44 53.5
t-16 83.5h85q-2 -29 8.5 -48t29 -30.5t43 -16.5t51.5 -5q21 0 42 4t38 13.5t27.5 24.5t10.5 37q0 19 -11.5 32.5t-31 24.5t-44 20.5t-49.5 20.5q-26 10 -50.5 22t-44 28.5t-31 38.5t-11.5 51q0 36 16.5 64t43.5 46.5t61.5 28.5t70.5 10t71 -8.5t62.5 -28t44.5 -51t17 -76.5
h-85zM311 589h-86l-77 143h76l51 -93l93 93h78z" />
    <glyph glyph-name="scedilla" unicode="&#x15f;" horiz-adv-x="481" 
d="M69 -145q16 -5 31.5 -10t32.5 -5q23 0 41.5 5t18.5 25q0 17 -14.5 24t-31.5 7q-11 0 -21.5 -1.5t-20.5 -6.5l-19 30l60 69q-15 2 -29 5q-38 9 -66 29t-44 53.5t-16 83.5h85q-2 -29 8.5 -48t29 -30.5t43 -16.5t51.5 -5q21 0 42 4t38 13.5t27.5 24.5t10.5 37
q0 19 -11.5 32.5t-31 24.5t-44 20.5t-49.5 20.5q-26 10 -50.5 22t-44 28.5t-31 38.5t-11.5 51q0 36 16.5 64t43.5 46.5t61.5 28.5t70.5 10t71 -8.5t62.5 -28t44.5 -51t17 -76.5h-85q1 22 -7 38.5t-23 28t-35 17t-42 5.5q-20 0 -39.5 -3t-35 -10.5t-25.5 -20.5t-10 -32
q0 -18 11.5 -31t31 -24t43.5 -20.5t50 -19.5q25 -11 50 -23.5t44 -29.5t31 -39.5t12 -52.5q0 -43 -19 -73.5t-49 -49.5t-68 -28t-75 -9h-10l-39 -42h2q5 2 12 3t14 1q15 0 31.5 -3.5t29 -12.5t20.5 -23t8 -34q0 -23 -11 -39.5t-28.5 -27t-38.5 -15.5t-41 -5q-49 0 -98 22z
" />
    <glyph glyph-name="tbar" unicode="&#x167;" horiz-adv-x="315" 
d="M5 346h94l21 96h-87l16 75h87l32 153h85l-32 -153h103l-16 -75h-103l-21 -96h115l-11 -55h-115l-32 -153q-1 -9 -2 -17t-1 -17q0 -20 15.5 -27.5t35.5 -7.5q13 0 25 2.5t24 6.5l-15 -78q-30 -6 -60 -6q-24 0 -45 4t-36.5 13.5t-25 25.5t-9.5 41q0 11 1.5 21t3.5 22
l36 170h-95z" />
    <glyph glyph-name="ugrave" unicode="&#xf9;" 
d="M411 0h-82l16 78h-2q-32 -44 -81 -67t-103 -23q-73 0 -108.5 32t-35.5 101q0 17 4 44t11 57l63 295h85l-66 -302q-2 -7 -4 -18t-3.5 -22.5t-3 -22t-1.5 -17.5q0 -37 26 -54.5t64 -17.5q35 0 66 14t55 37.5t40.5 54t23.5 62.5l60 286h85zM353 589h-67l-101 143h101z" />
    <glyph glyph-name="uacute" unicode="&#xfa;" 
d="M411 0h-82l16 78h-2q-32 -44 -81 -67t-103 -23q-73 0 -108.5 32t-35.5 101q0 17 4 44t11 57l63 295h85l-66 -302q-2 -7 -4 -18t-3.5 -22.5t-3 -22t-1.5 -17.5q0 -37 26 -54.5t64 -17.5q35 0 66 14t55 37.5t40.5 54t23.5 62.5l60 286h85zM368 732h113l-136 -143h-70z" />
    <glyph glyph-name="ucircumflex" unicode="&#xfb;" 
d="M411 0h-82l16 78h-2q-32 -44 -81 -67t-103 -23q-73 0 -108.5 32t-35.5 101q0 17 4 44t11 57l63 295h85l-66 -302q-2 -7 -4 -18t-3.5 -22.5t-3 -22t-1.5 -17.5q0 -37 26 -54.5t64 -17.5q35 0 66 14t55 37.5t40.5 54t23.5 62.5l60 286h85zM302 732h86l75 -143h-74l-51 93
l-87 -93h-82z" />
    <glyph glyph-name="utilde" unicode="&#x169;" 
d="M411 0h-82l16 78h-2q-32 -44 -81 -67t-103 -23q-73 0 -108.5 32t-35.5 101q0 17 4 44t11 57l63 295h85l-66 -302q-2 -7 -4 -18t-3.5 -22.5t-3 -22t-1.5 -17.5q0 -37 26 -54.5t64 -17.5q35 0 66 14t55 37.5t40.5 54t23.5 62.5l60 286h85zM164 608q6 18 14 37t19.5 35
t27.5 26.5t38 10.5q20 0 39 -8t38 -17q19 -8 35 -15.5t29 -5.5q23 0 32.5 12t18.5 29h51q-6 -19 -14 -38.5t-20 -35t-28.5 -25.5t-39.5 -10q-17 0 -36.5 7.5t-39.5 17.5t-37 15.5t-28 5.5q-20 0 -30.5 -12t-16.5 -29h-52z" />
    <glyph glyph-name="udieresis" unicode="&#xfc;" 
d="M411 0h-82l16 78h-2q-32 -44 -81 -67t-103 -23q-73 0 -108.5 32t-35.5 101q0 17 4 44t11 57l63 295h85l-66 -302q-2 -7 -4 -18t-3.5 -22.5t-3 -22t-1.5 -17.5q0 -37 26 -54.5t64 -17.5q35 0 66 14t55 37.5t40.5 54t23.5 62.5l60 286h85zM208 706h89l-21 -104h-89z
M371 706h89l-21 -104h-89z" />
    <glyph glyph-name="umacron" unicode="&#x16b;" 
d="M411 0h-82l16 78h-2q-32 -44 -81 -67t-103 -23q-73 0 -108.5 32t-35.5 101q0 17 4 44t11 57l63 295h85l-66 -302q-2 -7 -4 -18t-3.5 -22.5t-3 -22t-1.5 -17.5q0 -37 26 -54.5t64 -17.5q35 0 66 14t55 37.5t40.5 54t23.5 62.5l60 286h85zM196 682h269l-11 -55h-270z" />
    <glyph glyph-name="ubreve" unicode="&#x16d;" 
d="M411 0h-82l16 78h-2q-32 -44 -81 -67t-103 -23q-73 0 -108.5 32t-35.5 101q0 17 4 44t11 57l63 295h85l-66 -302q-2 -7 -4 -18t-3.5 -22.5t-3 -22t-1.5 -17.5q0 -37 26 -54.5t64 -17.5q35 0 66 14t55 37.5t40.5 54t23.5 62.5l60 286h85zM227 730q1 -46 25 -65t69 -19
q49 0 76 19.5t41 64.5h45q-9 -67 -54.5 -103t-111.5 -36q-67 0 -102 35t-33 104h45z" />
    <glyph glyph-name="uring" unicode="&#x16f;" 
d="M411 0h-82l16 78h-2q-32 -44 -81 -67t-103 -23q-73 0 -108.5 32t-35.5 101q0 17 4 44t11 57l63 295h85l-66 -302q-2 -7 -4 -18t-3.5 -22.5t-3 -22t-1.5 -17.5q0 -37 26 -54.5t64 -17.5q35 0 66 14t55 37.5t40.5 54t23.5 62.5l60 286h85zM212 680q0 23 9 43.5t24.5 36
t36 24.5t43.5 9t43.5 -9t36 -24.5t24.5 -36t9 -43.5t-9 -43.5t-24.5 -36t-36 -24.5t-43.5 -9t-43.5 9t-36 24.5t-24.5 36t-9 43.5zM257 680q0 -29 19.5 -48.5t48.5 -19.5t48.5 19.5t19.5 48.5t-19.5 48.5t-48.5 19.5t-48.5 -19.5t-19.5 -48.5z" />
    <glyph glyph-name="uhungarumlaut" unicode="&#x171;" 
d="M411 0h-82l16 78h-2q-32 -44 -81 -67t-103 -23q-73 0 -108.5 32t-35.5 101q0 17 4 44t11 57l63 295h85l-66 -302q-2 -7 -4 -18t-3.5 -22.5t-3 -22t-1.5 -17.5q0 -37 26 -54.5t64 -17.5q35 0 66 14t55 37.5t40.5 54t23.5 62.5l60 286h85zM454 732h113l-136 -143h-70z
M288 732h113l-136 -143h-70z" />
    <glyph glyph-name="uogonek" unicode="&#x173;" 
d="M393 0q-19 -13 -33 -23t-34 -28t-35 -37t-15 -35q0 -37 35 -37q16 0 32.5 4.5t35.5 19.5l36 -12q-28 -35 -55 -48.5t-64 -13.5q-14 0 -29.5 3t-27.5 11t-20 21.5t-8 35.5q0 19 9.5 38t27 36.5t38.5 34t43 30.5l16 78h-2q-32 -44 -81 -67t-103 -23q-73 0 -108.5 32
t-35.5 101q0 17 4 44t11 57l63 295h85l-66 -302q-2 -7 -4 -18t-3.5 -22.5t-3 -22t-1.5 -17.5q0 -37 26 -54.5t64 -17.5q35 0 66 14t55 37.5t40.5 54t23.5 62.5l60 286h85l-109 -517h-18z" />
    <glyph glyph-name="wcircumflex" unicode="&#x175;" horiz-adv-x="759" 
d="M495 0h-90l-26 402h-2l-185 -402h-90l-61 517h90l32 -411h2l186 411h96l25 -411h2l196 411h92zM399 732h86l75 -143h-74l-51 93l-87 -93h-82z" />
    <glyph glyph-name="yacute" unicode="&#xfd;" horiz-adv-x="481" 
d="M163 -88q-16 -25 -31.5 -47.5t-35 -39t-43.5 -26t-57 -9.5q-15 0 -31 3.5t-28 9.5l15 69q10 -6 24 -10t25 -4q29 0 47 15.5t33 40.5l52 86l-91 517h91l60 -411h2l217 411h93zM347 732h113l-136 -143h-70z" />
    <glyph glyph-name="ycircumflex" unicode="&#x177;" horiz-adv-x="481" 
d="M163 -88q-16 -25 -31.5 -47.5t-35 -39t-43.5 -26t-57 -9.5q-15 0 -31 3.5t-28 9.5l15 69q10 -6 24 -10t25 -4q29 0 47 15.5t33 40.5l52 86l-91 517h91l60 -411h2l217 411h93zM272 732h86l75 -143h-74l-51 93l-87 -93h-82z" />
    <glyph glyph-name="ydieresis" unicode="&#xff;" horiz-adv-x="481" 
d="M163 -88q-16 -25 -31.5 -47.5t-35 -39t-43.5 -26t-57 -9.5q-15 0 -31 3.5t-28 9.5l15 69q10 -6 24 -10t25 -4q29 0 47 15.5t33 40.5l52 86l-91 517h91l60 -411h2l217 411h93zM181 706h89l-21 -104h-89zM344 706h89l-21 -104h-89z" />
    <glyph glyph-name="zacute" unicode="&#x17a;" horiz-adv-x="444" 
d="M-41 64l360 378h-278l15 75h393l-13 -61l-363 -381h309l-14 -75h-421zM307 732h113l-136 -143h-70z" />
    <glyph glyph-name="zcaron" unicode="&#x17e;" horiz-adv-x="444" 
d="M-41 64l360 378h-278l15 75h393l-13 -61l-363 -381h309l-14 -75h-421zM295 589h-86l-77 143h76l51 -93l93 93h78z" />
    <glyph glyph-name="zdotaccent" unicode="&#x17c;" horiz-adv-x="444" 
d="M-41 64l360 378h-278l15 75h393l-13 -61l-363 -381h309l-14 -75h-421zM230 706h89l-21 -104h-89z" />
    <glyph glyph-name="commaaccenttwo" horiz-adv-x="278" 
d="M276 626h-111q14 77 18 91.5t13 29t30.5 26.5t70.5 13l-8 -35q-14 -3 -22 -7t-14 -10.5t-10 -19.5h52z" />
    <glyph glyph-name="carontwo" horiz-adv-x="222" 
d="M248 714h113l-100 -143h-66z" />
    <glyph glyph-name="ldot" unicode="&#x140;" horiz-adv-x="340" 
d="M145 714h85l-150 -714h-85zM249 518h89l-21 -104h-89z" />
    <glyph glyph-name="Ldot" unicode="&#x13f;" 
d="M157 714h95l-132 -634h377l-17 -80h-473zM342 518h89l-21 -104h-89z" />
    <glyph glyph-name="commaaccent" horiz-adv-x="278" 
d="M-17 -50h111q-14 -77 -18 -91.5t-13 -29t-30.5 -26.5t-70.5 -13l8 35q14 3 22 7t14 10.5t10 19.5h-52z" />
    <glyph glyph-name="Gcommaaccent" unicode="&#x122;" horiz-adv-x="759" 
d="M557 71q-41 -45 -98 -66.5t-115 -21.5q-73 0 -130 21t-96 61.5t-59.5 98.5t-20.5 132q0 87 27 165.5t77.5 138.5t123 95.5t164.5 35.5q59 0 111.5 -14t91.5 -43.5t61.5 -74.5t22.5 -107h-95q0 41 -15.5 71t-41.5 49.5t-61 29t-74 9.5q-75 0 -130.5 -31.5t-92.5 -81.5
t-55.5 -114t-18.5 -128q0 -52 13 -95t39 -73.5t65.5 -47.5t93.5 -17q57 0 99.5 17t73.5 47.5t51.5 73.5t33.5 95h-228l16 80h311l-78 -376h-60zM272 -50h111q-14 -77 -18 -91.5t-13 -29t-30.5 -26.5t-70.5 -13l8 35q14 3 22 7t14 10.5t10 19.5h-52z" />
    <glyph glyph-name="Kcommaaccent" unicode="&#x136;" horiz-adv-x="667" 
d="M158 714h95l-75 -352l2 -2l404 354h127l-344 -294l229 -420h-105l-195 362l-143 -121l-51 -241h-95zM215 -50h111q-14 -77 -18 -91.5t-13 -29t-30.5 -26.5t-70.5 -13l8 35q14 3 22 7t14 10.5t10 19.5h-52z" />
    <glyph glyph-name="Lcaron" unicode="&#x13d;" 
d="M157 714h95l-132 -634h377l-17 -80h-473zM360 714h113l-100 -143h-66z" />
    <glyph glyph-name="Lcommaaccent" unicode="&#x13b;" 
d="M157 714h95l-132 -634h377l-17 -80h-473zM177 -50h111q-14 -77 -18 -91.5t-13 -29t-30.5 -26.5t-70.5 -13l8 35q14 3 22 7t14 10.5t10 19.5h-52z" />
    <glyph glyph-name="Ncommaaccent" unicode="&#x145;" horiz-adv-x="722" 
d="M158 714h102l255 -591h2l119 591h92l-151 -714h-102l-253 587h-2l-121 -587h-92zM235 -50h111q-14 -77 -18 -91.5t-13 -29t-30.5 -26.5t-70.5 -13l8 35q14 3 22 7t14 10.5t10 19.5h-52z" />
    <glyph glyph-name="Rcommaaccent" unicode="&#x156;" horiz-adv-x="685" 
d="M158 714h275q45 0 87.5 -8.5t75.5 -29.5t52.5 -56t19.5 -88q0 -36 -12 -68.5t-33 -58t-50.5 -43t-65.5 -22.5v-2q23 -7 38.5 -22t24 -35.5t11 -45.5t-0.5 -52q-2 -24 -6 -48t-6 -46.5t0 -45t13 -43.5h-99q-7 20 -8 59t10 94q11 64 1.5 95.5t-28.5 44t-42 12.5h-38h-211
l-64 -305h-95zM183 385h214q56 0 90.5 15t53.5 36.5t25.5 46t6.5 43.5q0 33 -12 54t-31.5 33t-44.5 16.5t-52 4.5h-197zM224 -50h111q-14 -77 -18 -91.5t-13 -29t-30.5 -26.5t-70.5 -13l8 35q14 3 22 7t14 10.5t10 19.5h-52z" />
    <glyph glyph-name="Scommaaccent" unicode="&#x218;" horiz-adv-x="648" 
d="M519 503q1 42 -10.5 70.5t-33.5 46t-52.5 24.5t-67.5 7q-26 0 -55 -6.5t-53.5 -20.5t-40.5 -36t-16 -54q0 -26 9 -44.5t24.5 -32t37 -22.5t45.5 -16l96 -26q33 -9 64 -22.5t55 -35t38.5 -54.5t14.5 -81q0 -55 -25.5 -96t-65.5 -68t-89.5 -40t-97.5 -13q-65 0 -118.5 14.5
t-91 45.5t-57 78t-14.5 113h95q-2 -48 11 -81t38.5 -53t61 -28.5t79.5 -8.5q33 0 65.5 8t57.5 24.5t40.5 42.5t15.5 62q0 27 -10 46.5t-27.5 33t-40.5 22.5t-49 16l-97 26q-32 9 -61 23t-51 36t-35 52t-13 69q0 52 23 90.5t59.5 64.5t83 39t94.5 13q53 0 100.5 -13.5
t83.5 -41t56.5 -70.5t18.5 -103h-95zM214 -50h111q-14 -77 -18 -91.5t-13 -29t-30.5 -26.5t-70.5 -13l8 35q14 3 22 7t14 10.5t10 19.5h-52z" />
    <glyph glyph-name="Tcommaaccent" unicode="&#x162;" horiz-adv-x="574" 
d="M635 634h-240l-134 -634h-95l134 634h-240l17 80h576zM150 -50h111q-14 -77 -18 -91.5t-13 -29t-30.5 -26.5t-70.5 -13l8 35q14 3 22 7t14 10.5t10 19.5h-52z" />
    <glyph glyph-name="dcaron" unicode="&#x10f;" horiz-adv-x="670" 
d="M455 0h-80l18 74h-2q-38 -50 -78.5 -68t-92.5 -18q-50 0 -87.5 15.5t-63.5 43.5t-39 67t-13 86q0 59 19.5 117.5t56 105.5t90 76.5t121.5 29.5q24 0 49 -4.5t47.5 -15t39.5 -28t25 -43.5h2l55 276h84zM102 200q0 -63 31.5 -100t101.5 -37q48 0 86 25t63.5 63t39 83
t13.5 86q0 58 -33.5 96t-96.5 38q-51 0 -89 -23.5t-64 -60.5t-39 -82t-13 -88zM683 714h113l-100 -143h-66z" />
    <glyph glyph-name="kcommaaccent" unicode="&#x137;" horiz-adv-x="481" 
d="M146 714h84l-89 -420l2 -2l260 225h111l-225 -191l128 -326h-95l-101 275l-102 -91l-39 -184h-85zM134 -50h111q-14 -77 -18 -91.5t-13 -29t-30.5 -26.5t-70.5 -13l8 35q14 3 22 7t14 10.5t10 19.5h-52z" />
    <glyph glyph-name="lcaron" unicode="&#x13e;" horiz-adv-x="294" 
d="M145 714h85l-150 -714h-85zM307 714h113l-100 -143h-66z" />
    <glyph glyph-name="lcommaaccent" unicode="&#x13c;" horiz-adv-x="222" 
d="M145 714h85l-150 -714h-85zM-26 -50h111q-14 -77 -18 -91.5t-13 -29t-30.5 -26.5t-70.5 -13l8 35q14 3 22 7t14 10.5t10 19.5h-52z" />
    <glyph glyph-name="ncommaaccent" unicode="&#x146;" 
d="M104 517h82l-16 -78h2q32 44 81 67t103 23q73 0 108.5 -32t35.5 -101q0 -17 -4 -44t-11 -57l-63 -295h-85l66 302q1 7 3.5 18t4 22.5t3 22t1.5 17.5q0 37 -26 54.5t-64 17.5q-35 0 -69.5 -17t-58.5 -43q-23 -20 -36 -48.5t-21 -59.5l-60 -286h-85zM145 -50h111
q-14 -77 -18 -91.5t-13 -29t-30.5 -26.5t-70.5 -13l8 35q14 3 22 7t14 10.5t10 19.5h-52z" />
    <glyph glyph-name="rcommaaccent" unicode="&#x157;" horiz-adv-x="333" 
d="M103 517h80l-25 -111h2q30 53 76.5 88t111.5 35q8 0 15 1t15 -1l-20 -91q-6 1 -13 1h-12q-16 0 -26 -0.5t-25 -4.5q-35 -9 -62.5 -31t-47.5 -53q-17 -25 -27 -58.5t-16 -62.5l-49 -229h-85zM-25 -50h111q-14 -77 -18 -91.5t-13 -29t-30.5 -26.5t-70.5 -13l8 35q14 3 22 7
t14 10.5t10 19.5h-52z" />
    <glyph glyph-name="tcommaaccent" unicode="&#x163;" horiz-adv-x="315" 
d="M221 517h103l-16 -75h-103l-64 -304q-1 -9 -2 -17t-1 -17q0 -20 15.5 -27.5t35.5 -7.5q13 0 25 2.5t24 6.5l-15 -78q-30 -6 -60 -6q-24 0 -45 4t-36.5 13.5t-25 25.5t-9.5 41q0 11 1.5 21t3.5 22l68 321h-87l16 75h87l32 153h85zM64 -50h111q-14 -77 -18 -91.5t-13 -29
t-30.5 -26.5t-70.5 -13l8 35q14 3 22 7t14 10.5t10 19.5h-52z" />
    <glyph glyph-name="tcaron" unicode="&#x165;" horiz-adv-x="361" 
d="M374 714h113l-100 -143h-66zM221 517h103l-16 -75h-103l-64 -304q-1 -9 -2 -17t-1 -17q0 -20 15.5 -27.5t35.5 -7.5q13 0 25 2.5t24 6.5l-15 -78q-30 -6 -60 -6q-24 0 -45 4t-36.5 13.5t-25 25.5t-9.5 41q0 11 1.5 21t3.5 22l68 321h-87l16 75h87l32 153h85z" />
    <glyph glyph-name="scommaaccent" unicode="&#x219;" horiz-adv-x="481" 
d="M355 365q1 22 -7 38.5t-23 28t-35 17t-42 5.5q-20 0 -39.5 -3t-35 -10.5t-25.5 -20.5t-10 -32q0 -18 11.5 -31t31 -24t43.5 -20.5t50 -19.5q25 -11 50 -23.5t44 -29.5t31 -39.5t12 -52.5q0 -43 -19 -73.5t-49 -49.5t-68 -28t-75 -9q-44 0 -82.5 9t-66.5 29t-44 53.5
t-16 83.5h85q-2 -29 8.5 -48t29 -30.5t43 -16.5t51.5 -5q21 0 42 4t38 13.5t27.5 24.5t10.5 37q0 19 -11.5 32.5t-31 24.5t-44 20.5t-49.5 20.5q-26 10 -50.5 22t-44 28.5t-31 38.5t-11.5 51q0 36 16.5 64t43.5 46.5t61.5 28.5t70.5 10t71 -8.5t62.5 -28t44.5 -51t17 -76.5
h-85zM126 -50h111q-14 -77 -18 -91.5t-13 -29t-30.5 -26.5t-70.5 -13l8 35q14 3 22 7t14 10.5t10 19.5h-52z" />
    <glyph glyph-name="estimated" unicode="&#x212e;" horiz-adv-x="600" 
d="M157 259v-181q59 -59 145 -59q63 0 109 28.5t84 91.5l35 -21q-23 -36 -46.5 -61.5t-51 -42t-59.5 -24t-71 -7.5q-59 0 -106.5 21.5t-81.5 59t-52 87.5t-18 108t18 108.5t52 87.5t81.5 58.5t106.5 21.5q58 0 105.5 -20.5t81.5 -57t53 -87t19 -111.5h-404zM448 295v145
q-63 60 -147 60t-144 -60v-145h291z" />
    <glyph glyph-name="afii61289" unicode="&#x2113;" horiz-adv-x="500" 
d="M466 617q0 -44 -19.5 -89t-53 -89t-78 -86t-94.5 -80q-12 -52 -19 -83.5t-10 -49.5t-4 -26.5t-1 -13.5q0 -32 16.5 -43.5t35.5 -11.5q21 0 44.5 9t55.5 32h2l20 -46q-38 -28 -71.5 -41t-71.5 -13q-50 0 -80 25.5t-30 74.5q0 6 0.5 13.5t3 21.5t7.5 37.5t13 61.5l-68 -58
h-2l-23 46l108 83l55 258q18 88 62 130t102 42q45 0 72.5 -29.5t27.5 -74.5zM399 613q0 23 -11.5 38.5t-29.5 15.5q-23 0 -43 -22t-32 -79l-47 -220q26 24 54.5 55.5t52.5 67t40 72.5t16 72z" />
    <glyph glyph-name="exclam" unicode="!" horiz-adv-x="259" 
d="M205 491l-90 -308h-46l43 308l47 223h93zM24 111h111l-24 -111h-111z" />
    <glyph glyph-name="quotedbl" unicode="&#x22;" horiz-adv-x="426" 
d="M286 714h68v-258h-68v258zM146 714h68v-258h-68v258z" />
    <glyph glyph-name="numbersign" unicode="#" 
d="M231 424l-21 -150h122l21 150h-122zM131 206h-97l9 68h97l21 150h-101l9 68h102l29 205h69l-29 -205h122l29 205h69l-29 -205h91l-9 -68h-91l-21 -150h93l-9 -68h-93l-29 -206h-69l29 206h-123l-29 -206h-69z" />
    <glyph glyph-name="uni00A0" unicode="&#xa0;" horiz-adv-x="278" 
 />
    <glyph glyph-name="Dcroat" unicode="&#x110;" horiz-adv-x="704" 
d="M186 407h200l-14 -68h-200l-55 -259h165q76 0 132.5 30.5t94 80t56 112.5t18.5 128q0 39 -8.5 76t-30.5 65t-60.5 45t-97.5 17h-152zM79 339h-66l14 68h66l65 307h250q133 0 201.5 -73t68.5 -200q0 -101 -29 -182.5t-81 -139t-125.5 -88.5t-161.5 -31h-274z" />
    <glyph glyph-name="uni021A" unicode="&#x21a;" horiz-adv-x="574" 
d="M635 634h-240l-134 -634h-95l134 634h-240l17 80h576zM150 -50h111q-14 -77 -18 -91.5t-13 -29t-30.5 -26.5t-70.5 -13l8 35q14 3 22 7t14 10.5t10 19.5h-52z" />
    <glyph glyph-name="grave.cap" horiz-adv-x="222" 
d="M284 779h-67l-101 143h101z" />
    <glyph glyph-name="uni021B" unicode="&#x21b;" horiz-adv-x="315" 
d="M221 517h103l-16 -75h-103l-64 -304q-1 -9 -2 -17t-1 -17q0 -20 15.5 -27.5t35.5 -7.5q13 0 25 2.5t24 6.5l-15 -78q-30 -6 -60 -6q-24 0 -45 4t-36.5 13.5t-25 25.5t-9.5 41q0 11 1.5 21t3.5 22l68 321h-87l16 75h87l32 153h85zM64 -50h111q-14 -77 -18 -91.5t-13 -29
t-30.5 -26.5t-70.5 -13l8 35q14 3 22 7t14 10.5t10 19.5h-52z" />
    <glyph glyph-name="acute.cap" horiz-adv-x="222" 
d="M270 922h113l-136 -143h-70z" />
    <glyph glyph-name="circumflex.cap" horiz-adv-x="222" 
d="M203 922h86l75 -143h-74l-51 93l-87 -93h-82z" />
    <glyph glyph-name="caron.cap" horiz-adv-x="222" 
d="M268 779h-86l-77 143h76l51 -93l93 93h78z" />
    <glyph glyph-name="caron.alt" horiz-adv-x="222" 
d="M248 714h113l-100 -143h-66z" />
    <glyph glyph-name="tilde.cap" horiz-adv-x="222" 
d="M63 798q6 18 14 37t19.5 35t27.5 26.5t38 10.5q20 0 39 -8t38 -17q19 -8 35 -15.5t29 -5.5q23 0 32.5 12t18.5 29h51q-6 -19 -14 -38.5t-20 -35t-28.5 -25.5t-39.5 -10q-17 0 -37 8t-39.5 17t-36.5 16t-28 5q-20 0 -30.5 -12t-16.5 -29h-52z" />
    <glyph glyph-name="dieresis.cap" horiz-adv-x="222" 
d="M136 896h89l-21 -104h-89zM299 896h89l-21 -104h-89z" />
    <glyph glyph-name="uni02C9" unicode="&#x2c9;" horiz-adv-x="222" 
d="M104 682h269l-11 -55h-270z" />
    <glyph glyph-name="macron.cap" horiz-adv-x="222" 
d="M104 682h269l-11 -55h-270z" />
    <glyph glyph-name="breve.cap" horiz-adv-x="222" 
d="M139 920q1 -46 25 -65t69 -19q49 0 76 19.5t41 64.5h45q-9 -67 -54.5 -103t-111.5 -36q-67 0 -102 35t-33 104h45z" />
    <glyph glyph-name="ring.cap" horiz-adv-x="222" 
d="M126 860q0 23 9 43.5t24.5 36t36 24.5t43.5 9t43.5 -9t36 -24.5t24.5 -36t9 -43.5t-9 -43.5t-24.5 -36t-36 -24.5t-43.5 -9t-43.5 9t-36 24.5t-24.5 36t-9 43.5zM171 860q0 -29 19.5 -48.5t48.5 -19.5t48.5 19.5t19.5 48.5t-19.5 48.5t-48.5 19.5t-48.5 -19.5
t-19.5 -48.5z" />
    <glyph glyph-name="hungarumlaut.cap" horiz-adv-x="222" 
d="M312 922h113l-136 -143h-70zM146 922h113l-136 -143h-70z" />
    <glyph glyph-name="dotaccent.cap" horiz-adv-x="222" 
d="M196 896h89l-21 -104h-89z" />
    <glyph glyph-name="commaaccent.alt" horiz-adv-x="278" 
d="M276 626h-111q14 79 18 91q5 17 13 29q9 15 30.5 27t70.5 13l-8 -35q-20 -5 -30 -11.5t-16 -25.5h52z" />
    <glyph glyph-name="uni2215" unicode="&#x2215;" horiz-adv-x="167" 
d="M269 725h64l-435 -753h-64z" />
    <glyph glyph-name="uni0394" unicode="&#x394;" horiz-adv-x="674" 
d="M393 625l-331 -553h430zM-64 0l430 712h83l135 -712h-648z" />
    <glyph glyph-name="uni03A9" unicode="&#x3a9;" horiz-adv-x="748" 
d="M700 452q0 -59 -17.5 -111.5t-50.5 -94t-80 -69.5t-106 -38l-16 -75l194 -1l-14 -63h-256l40 185q52 7 94 29.5t71 57t45 79.5t16 98q0 47 -14.5 84t-41.5 63t-65 40t-84 14q-60 0 -112.5 -25t-90.5 -66t-60 -95.5t-22 -112.5q0 -32 8.5 -60.5t25.5 -51t42.5 -37
t59.5 -17.5l-39 -185h-249l14 63h184l17 80q-36 11 -62.5 31.5t-44.5 48.5t-27 61t-9 69q0 74 29.5 141t80 117.5t117 80t140.5 29.5q60 0 112 -19t90 -54t59.5 -84.5t21.5 -111.5z" />
    <glyph glyph-name="uni03BC" unicode="&#x3bc;" 
d="M411 0h-82l16 78h-2q-32 -44 -80 -67t-92 -23q-35 0 -60 13t-33 25h-2l-47 -224h-85l149 715h85l-66 -302q-2 -7 -4 -18t-3.5 -22.5t-3 -22t-1.5 -17.5q0 -37 26 -54.5t64 -17.5q35 0 66 14t55 37.5t40.5 54t23.5 62.5l60 286h85z" />
    <glyph glyph-name="uni2219" unicode="&#x2219;" horiz-adv-x="278" 
d="M67 253q0 28 19.5 46t44.5 18q27 0 45.5 -18.5t18.5 -45.5q0 -28 -18.5 -46t-45.5 -18q-26 0 -45 19t-19 45z" />
    <glyph glyph-name="uni00AD" unicode="&#xad;" horiz-adv-x="389" 
d="M42 318h290l-16 -80h-290z" />
    <glyph glyph-name="uniF8FF" unicode="&#xf8ff;" horiz-adv-x="512" 
d="M222 117v67h56v-67h-56zM225 234l-2 17q0 55 13 81t46 59q32 31 41 47.5t9 35.5q0 36 -22.5 60.5t-53.5 24.5t-53.5 -22t-28.5 -73l-50 8q7 71 44 104t91 33q53 0 88.5 -36t35.5 -95q0 -32 -12.5 -58.5t-50.5 -61.5q-37 -33 -43 -52t-6 -72h-46zM462 50v617h-412v-617
h412zM512 718v-718h-512v718h512z" />
    </font>
</defs>
</svg>
